<svg width="1000" height="600" viewBox="0 0 1000 600" fill="none" xmlns="http://www.w3.org/2000/svg">
<g clip-path="url(#clip0)">
<path d="M990.873 534.145H0V536.531H990.873V534.145Z" fill="#3F3D56"/>
<path d="M128.219 102.976C119.711 82.1873 98.053 78.2612 98.053 78.2612C98.053 78.2612 77.1999 72.5003 59.7847 99.9366C43.5525 125.509 22.6199 149.469 49.1665 159.676L56.1788 144.426L57.02 161.977C60.8803 162.809 64.7816 163.422 68.7066 163.813C98.1519 166.911 125.909 172.062 126.423 161.042C127.106 146.393 136.405 122.978 128.219 102.976Z" fill="#2F2E41"/>
<path d="M38.384 269.453L36.4893 319.486C36.4893 319.486 16.5948 359.709 32.6998 358.728C48.8049 357.747 46.9102 319.486 46.9102 319.486L52.5944 272.396L38.384 269.453Z" fill="#FFB8B8"/>
<path d="M147.33 260.624L153.014 310.657C153.014 310.657 170.067 337.145 156.804 345.974C143.541 354.803 143.541 314.581 143.541 314.581L129.331 263.567L147.33 260.624Z" fill="#FFB8B8"/>
<path d="M127.436 353.822L110.383 422.495C110.383 422.495 102.804 449.964 92.3834 463.699L88.594 471.547L73.4363 469.585L83.8572 425.438L90.4887 344.012L127.436 353.822Z" fill="#FFB8B8"/>
<path opacity="0.1" d="M127.436 353.822L110.383 422.495C110.383 422.495 102.804 449.964 92.3834 463.699L88.594 471.547L73.4363 469.585L83.8572 425.438L90.4887 344.012L127.436 353.822Z" fill="black"/>
<path d="M69.6864 458.632L95.5946 464.844L84.9168 490.911C84.9168 490.911 89.2567 506.515 85.1227 514.779C80.9886 523.043 81.5852 538.038 81.5852 538.038L75.9703 537.122C75.9703 537.122 62.3376 563.699 46.2298 556.106C30.122 548.513 47.2546 530.452 47.2546 530.452C47.2546 530.452 61.182 501.936 62.9508 490.307C64.7195 478.678 69.6864 458.632 69.6864 458.632Z" fill="#2F2E41"/>
<path opacity="0.1" d="M69.6864 458.632L95.5946 464.844L84.9168 490.911C84.9168 490.911 89.2567 506.515 85.1227 514.779C80.9886 523.043 81.5852 538.038 81.5852 538.038L75.9703 537.122C75.9703 537.122 62.3376 563.699 46.2298 556.106C30.122 548.513 47.2546 530.452 47.2546 530.452C47.2546 530.452 61.182 501.936 62.9508 490.307C64.7195 478.678 69.6864 458.632 69.6864 458.632Z" fill="black"/>
<path d="M47.8577 339.107L62.068 412.685C62.068 412.685 57.3312 448.983 63.0154 471.547L68.6995 493.13H87.6467V413.666C87.6467 413.666 88.594 348.917 85.752 344.012C82.9099 339.107 47.8577 339.107 47.8577 339.107Z" fill="#FFB8B8"/>
<path d="M91.4362 485.282L64.9102 487.244L71.5417 514.713C71.5417 514.713 64.9102 529.428 67.7522 538.258C70.5943 547.087 67.7522 561.803 67.7522 561.803H73.4364C73.4364 561.803 82.91 590.253 99.9624 585.348C117.015 580.442 102.805 559.841 102.805 559.841C102.805 559.841 93.3309 529.428 93.3309 517.656C93.3309 505.883 91.4362 485.282 91.4362 485.282Z" fill="#2F2E41"/>
<path d="M98.0677 145.842C112.194 145.842 123.646 133.983 123.646 119.354C123.646 104.725 112.194 92.8659 98.0677 92.8659C83.941 92.8659 72.489 104.725 72.489 119.354C72.489 133.983 83.941 145.842 98.0677 145.842Z" fill="#FFB8B8"/>
<path d="M80.5416 129.655C80.5416 129.655 82.4363 163.01 76.7521 164.972C71.068 166.934 106.12 164.972 106.12 164.972C106.12 164.972 101.383 144.37 106.12 138.484C110.857 132.598 80.5416 129.655 80.5416 129.655Z" fill="#FFB8B8"/>
<path d="M106.594 159.577C106.594 159.577 81.9624 157.614 77.2257 159.577C72.4889 161.539 59.2258 171.349 59.2258 171.349L65.8573 233.155L119.857 244.927L128.383 232.173L136.909 213.534L133.12 189.989L132.172 176.254L106.594 159.577Z" fill="#1F4386"/>
<path d="M54.4891 175.273C54.4891 175.273 42.1734 178.216 41.226 188.027C40.2787 197.837 40.2787 222.363 41.226 226.287C42.1734 230.211 41.226 232.173 40.2787 233.155C39.3313 234.136 37.4366 232.173 39.3313 235.117C41.226 238.06 41.226 238.06 40.2787 241.003C39.3313 243.946 36.4892 240.022 38.384 244.927C40.2787 249.832 41.226 250.813 40.2787 251.794C39.3313 252.775 36.4893 275.339 36.4893 275.339L52.5943 278.282L68.6995 220.401L54.4891 175.273Z" fill="#1F4386"/>
<path d="M128.383 175.273C130.182 175.377 131.922 175.978 133.421 177.013C134.92 178.048 136.125 179.48 136.909 181.159C139.751 187.046 147.33 225.306 146.383 228.249C145.436 231.192 143.541 227.268 145.436 233.155C147.33 239.041 145.436 238.06 146.383 241.984C147.33 245.908 142.594 241.984 146.383 245.908C150.172 249.832 152.067 250.813 150.172 252.775C148.278 254.737 145.436 250.813 148.278 254.737C151.12 258.662 151.12 264.548 151.12 264.548L128.383 269.453L121.752 214.515L128.383 175.273Z" fill="#1F4386"/>
<path d="M51.5234 173.713L56.1774 171.304C56.648 171.06 57.1605 170.915 57.6854 170.878C58.2103 170.84 58.7371 170.911 59.2355 171.085C59.7339 171.26 60.1939 171.535 60.5891 171.895C60.9843 172.255 61.3067 172.692 61.5379 173.181L82.9098 218.439L106.594 234.136L123.646 226.287C123.646 226.287 135.962 206.666 132.172 196.856C129.603 190.205 126.593 179.971 124.921 174.07C124.823 173.722 124.831 173.352 124.943 173.01C125.056 172.667 125.267 172.368 125.549 172.154C125.831 171.94 126.169 171.822 126.519 171.814C126.868 171.806 127.211 171.91 127.502 172.111L130.731 174.341C131.764 175.054 132.485 176.161 132.736 177.42L139.751 212.553L130.278 233.155V252.775L136.909 358.728C136.909 358.728 112.278 354.803 87.6465 349.898C63.0152 344.993 31.7524 341.069 31.7524 341.069C31.7524 341.069 47.8575 254.737 61.1205 240.022C61.1205 240.022 61.1205 229.23 63.0152 228.249C64.9099 227.268 66.8047 220.401 66.8047 220.401L49.6446 179.031C49.2433 178.064 49.2144 176.975 49.5637 175.986C49.913 174.997 50.6141 174.184 51.5234 173.713Z" fill="#2F2E41"/>
<path d="M123.408 95.4228L101.704 83.6496L71.7298 88.4664L65.5286 116.83L80.9659 116.214L85.2779 105.794V116.043L92.4017 115.759L96.5358 99.1693L99.1192 116.83L124.441 116.294L123.408 95.4228Z" fill="#2F2E41"/>
<path d="M72.0152 124.504C73.5848 124.504 74.8572 122.198 74.8572 119.354C74.8572 116.509 73.5848 114.203 72.0152 114.203C70.4455 114.203 69.1731 116.509 69.1731 119.354C69.1731 122.198 70.4455 124.504 72.0152 124.504Z" fill="#FFB8B8"/>
<path d="M833.399 0H193.735V339.729H833.399V0Z" fill="#3F3D56"/>
<path d="M467.951 187.153H335.329C335.132 187.153 334.936 187.113 334.754 187.035C334.572 186.956 334.406 186.842 334.267 186.697C334.127 186.553 334.017 186.381 333.941 186.193C333.866 186.004 333.827 185.802 333.827 185.597V130.663C333.827 130.459 333.866 130.257 333.941 130.068C334.017 129.879 334.127 129.708 334.267 129.563C334.406 129.419 334.572 129.304 334.754 129.226C334.936 129.148 335.132 129.108 335.329 129.108H467.951C468.149 129.108 468.344 129.148 468.526 129.226C468.708 129.304 468.874 129.419 469.014 129.563C469.153 129.707 469.264 129.879 469.339 130.068C469.415 130.256 469.453 130.459 469.453 130.663V185.597C469.453 185.802 469.415 186.004 469.339 186.193C469.264 186.382 469.153 186.553 469.014 186.698C468.874 186.842 468.708 186.957 468.526 187.035C468.344 187.113 468.149 187.153 467.951 187.153ZM336.831 184.042H466.449V132.218H336.831V184.042Z" fill="white"/>
<path d="M391.693 223.205H335.329C335.132 223.205 334.936 223.165 334.754 223.086C334.572 223.008 334.406 222.894 334.267 222.749C334.127 222.605 334.017 222.433 333.941 222.245C333.866 222.056 333.827 221.854 333.827 221.649V198.301C333.827 198.097 333.866 197.895 333.941 197.706C334.017 197.517 334.127 197.346 334.267 197.201C334.406 197.057 334.572 196.942 334.754 196.864C334.936 196.786 335.132 196.746 335.329 196.746H391.693C391.891 196.746 392.086 196.786 392.268 196.864C392.451 196.942 392.616 197.057 392.756 197.201C392.895 197.346 393.006 197.517 393.081 197.706C393.157 197.895 393.196 198.097 393.195 198.301V221.649C393.196 221.854 393.157 222.056 393.081 222.245C393.006 222.433 392.895 222.605 392.756 222.749C392.616 222.894 392.451 223.008 392.268 223.087C392.086 223.165 391.891 223.205 391.693 223.205ZM336.831 220.094H390.192V199.857H336.831V220.094Z" fill="white"/>
<path d="M467.951 223.205H411.587C411.389 223.205 411.194 223.165 411.012 223.087C410.829 223.008 410.664 222.894 410.524 222.749C410.385 222.605 410.274 222.433 410.199 222.245C410.123 222.056 410.085 221.854 410.085 221.649V198.301C410.085 198.097 410.123 197.895 410.199 197.706C410.274 197.517 410.385 197.346 410.524 197.201C410.664 197.057 410.829 196.942 411.012 196.864C411.194 196.786 411.389 196.746 411.587 196.746H467.951C468.149 196.746 468.344 196.786 468.526 196.864C468.708 196.942 468.874 197.057 469.014 197.201C469.153 197.346 469.264 197.517 469.339 197.706C469.415 197.895 469.453 198.097 469.453 198.301V221.649C469.453 221.854 469.415 222.056 469.339 222.245C469.264 222.433 469.153 222.605 469.014 222.749C468.874 222.894 468.708 223.008 468.526 223.087C468.344 223.165 468.149 223.205 467.951 223.205ZM413.089 220.094H466.449V199.857H413.089V220.094Z" fill="white"/>
<path d="M466.294 185.436C466.106 185.436 465.92 185.4 465.745 185.329L334.78 132.111C334.597 132.036 334.429 131.925 334.287 131.783C334.145 131.641 334.032 131.472 333.953 131.285C333.874 131.098 333.831 130.896 333.828 130.692C333.824 130.488 333.859 130.285 333.931 130.095C334.003 129.905 334.111 129.731 334.248 129.584C334.384 129.437 334.548 129.32 334.728 129.238C334.909 129.156 335.104 129.112 335.301 129.108C335.498 129.105 335.694 129.141 335.878 129.216L466.843 182.434C467.168 182.566 467.439 182.812 467.608 183.129C467.777 183.446 467.834 183.814 467.769 184.17C467.704 184.526 467.521 184.848 467.252 185.079C466.983 185.31 466.644 185.436 466.294 185.436Z" fill="white"/>
<path d="M335.33 187.153C334.98 187.153 334.642 187.027 334.373 186.797C334.103 186.567 333.92 186.247 333.854 185.892C333.788 185.537 333.843 185.169 334.01 184.852C334.178 184.534 334.447 184.287 334.771 184.153L467.394 129.219C467.764 129.067 468.177 129.073 468.542 129.236C468.907 129.398 469.195 129.705 469.343 130.087C469.491 130.47 469.486 130.897 469.329 131.276C469.173 131.655 468.878 131.954 468.509 132.108L335.887 187.042C335.71 187.115 335.521 187.153 335.33 187.153Z" fill="white"/>
<path d="M390.865 222.347C390.677 222.346 390.49 222.31 390.315 222.239L335.607 199.92C335.237 199.769 334.94 199.471 334.782 199.093C334.623 198.715 334.616 198.287 334.762 197.904C334.908 197.52 335.195 197.212 335.56 197.048C335.925 196.883 336.338 196.875 336.708 197.025L391.415 219.344C391.74 219.476 392.011 219.722 392.18 220.04C392.349 220.357 392.406 220.725 392.341 221.081C392.275 221.437 392.092 221.758 391.823 221.989C391.553 222.22 391.215 222.347 390.865 222.347Z" fill="white"/>
<path d="M336.158 222.347C335.804 222.347 335.463 222.218 335.192 221.983C334.921 221.748 334.74 221.422 334.678 221.061C334.617 220.701 334.68 220.33 334.857 220.014C335.034 219.697 335.312 219.455 335.644 219.33L390.352 198.73C390.537 198.659 390.734 198.627 390.932 198.635C391.129 198.643 391.323 198.692 391.503 198.778C391.682 198.864 391.843 198.986 391.977 199.137C392.111 199.288 392.214 199.464 392.282 199.657C392.35 199.849 392.38 200.054 392.371 200.258C392.362 200.463 392.314 200.663 392.23 200.849C392.146 201.034 392.028 201.201 391.882 201.338C391.735 201.476 391.564 201.583 391.378 201.652L336.671 222.252C336.506 222.314 336.333 222.346 336.158 222.347Z" fill="white"/>
<path d="M467.123 222.347C466.942 222.346 466.764 222.313 466.595 222.248L413.546 201.647C413.173 201.502 412.871 201.21 412.706 200.834C412.541 200.458 412.528 200.03 412.668 199.644C412.808 199.258 413.09 198.945 413.453 198.774C413.816 198.604 414.229 198.589 414.602 198.734L467.651 219.335C467.98 219.463 468.256 219.706 468.429 220.023C468.603 220.34 468.664 220.71 468.601 221.069C468.538 221.427 468.356 221.752 468.086 221.985C467.815 222.219 467.475 222.347 467.123 222.347Z" fill="white"/>
<path d="M414.074 220.63C413.719 220.63 413.375 220.5 413.104 220.262C412.833 220.024 412.652 219.694 412.594 219.331C412.535 218.969 412.603 218.596 412.784 218.28C412.966 217.964 413.25 217.724 413.586 217.605L466.634 198.721C466.821 198.653 467.019 198.624 467.216 198.636C467.413 198.648 467.607 198.7 467.785 198.79C467.962 198.879 468.122 199.004 468.253 199.157C468.384 199.311 468.484 199.489 468.549 199.683C468.613 199.876 468.64 200.081 468.627 200.286C468.615 200.49 468.564 200.69 468.477 200.874C468.39 201.057 468.268 201.222 468.12 201.357C467.971 201.492 467.798 201.595 467.611 201.661L414.563 220.545C414.406 220.601 414.24 220.63 414.074 220.63Z" fill="white"/>
<path d="M253.474 99.5231C249.018 99.5231 244.663 98.1548 240.958 95.5913C237.253 93.0278 234.365 89.3842 232.66 85.1212C230.955 80.8582 230.509 76.1674 231.378 71.6418C232.247 67.1163 234.393 62.9593 237.544 59.6966C240.695 56.4339 244.709 54.2119 249.079 53.3117C253.449 52.4115 257.979 52.8735 262.096 54.6393C266.212 56.4051 269.731 59.3954 272.206 63.2319C274.682 67.0685 276.003 71.5791 276.003 76.1933C275.996 82.3786 273.621 88.3087 269.397 92.6824C265.174 97.0561 259.447 99.5162 253.474 99.5231ZM253.474 55.9741C249.612 55.9741 245.838 57.1599 242.627 59.3816C239.416 61.6034 236.913 64.7612 235.435 68.4557C233.958 72.1503 233.571 76.2157 234.324 80.1378C235.078 84.06 236.937 87.6627 239.668 90.4904C242.399 93.3181 245.878 95.2438 249.665 96.0239C253.452 96.8041 257.378 96.4037 260.946 94.8734C264.514 93.343 267.563 90.7515 269.709 87.4265C271.854 84.1014 272.999 80.1923 272.999 76.1933C272.993 70.8327 270.934 65.6934 267.274 61.9029C263.614 58.1124 258.651 55.9802 253.474 55.9741Z" fill="white"/>
<path d="M402.165 99.5231C397.709 99.5231 393.353 98.1548 389.648 95.5913C385.943 93.0278 383.056 89.3842 381.351 85.1212C379.646 80.8582 379.199 76.1674 380.069 71.6418C380.938 67.1163 383.084 62.9593 386.234 59.6966C389.385 56.4339 393.399 54.2119 397.769 53.3117C402.14 52.4115 406.669 52.8735 410.786 54.6393C414.903 56.4051 418.421 59.3954 420.897 63.2319C423.372 67.0685 424.694 71.5791 424.694 76.1933C424.687 82.3787 422.311 88.3088 418.088 92.6825C413.864 97.0562 408.138 99.5163 402.165 99.5231ZM402.165 55.9741C398.303 55.9741 394.528 57.1599 391.317 59.3816C388.106 61.6033 385.604 64.7611 384.126 68.4557C382.648 72.1503 382.261 76.2157 383.015 80.1378C383.768 84.06 385.628 87.6627 388.358 90.4904C391.089 93.3181 394.568 95.2438 398.355 96.0239C402.143 96.8041 406.069 96.4037 409.636 94.8734C413.204 93.343 416.254 90.7515 418.399 87.4265C420.544 84.1014 421.69 80.1923 421.69 76.1933C421.684 70.8327 419.625 65.6935 415.964 61.903C412.304 58.1125 407.341 55.9803 402.165 55.9741Z" fill="white"/>
<path d="M586.901 99.5231C582.445 99.5231 578.089 98.1548 574.385 95.5913C570.68 93.0278 567.792 89.3842 566.087 85.1212C564.382 80.8582 563.936 76.1674 564.805 71.6418C565.674 67.1163 567.82 62.9593 570.971 59.6966C574.121 56.4339 578.136 54.2119 582.506 53.3117C586.876 52.4115 591.406 52.8735 595.522 54.6393C599.639 56.4051 603.158 59.3954 605.633 63.2319C608.109 67.0685 609.43 71.5791 609.43 76.1933C609.423 82.3787 607.048 88.3088 602.824 92.6825C598.6 97.0562 592.874 99.5164 586.901 99.5231ZM586.901 55.9741C583.039 55.9741 579.264 57.1599 576.053 59.3816C572.843 61.6033 570.34 64.7611 568.862 68.4557C567.384 72.1503 566.998 76.2157 567.751 80.1378C568.504 84.06 570.364 87.6627 573.095 90.4904C575.825 93.3181 579.304 95.2438 583.092 96.0239C586.879 96.8041 590.805 96.4037 594.373 94.8734C597.94 93.343 600.99 90.7515 603.135 87.4265C605.281 84.1014 606.426 80.1923 606.426 76.1933C606.42 70.8327 604.361 65.6935 600.701 61.903C597.04 58.1125 592.077 55.9803 586.901 55.9741Z" fill="white"/>
<path d="M780.448 99.5231C775.992 99.5231 771.637 98.1548 767.932 95.5913C764.227 93.0278 761.339 89.3842 759.634 85.1212C757.929 80.8582 757.483 76.1674 758.352 71.6418C759.221 67.1163 761.367 62.9593 764.518 59.6966C767.668 56.4339 771.683 54.2119 776.053 53.3117C780.423 52.4115 784.953 52.8735 789.07 54.6393C793.186 56.4051 796.705 59.3954 799.18 63.2319C801.656 67.0685 802.977 71.5791 802.977 76.1933C802.97 82.3787 800.595 88.3088 796.371 92.6825C792.148 97.0562 786.421 99.5164 780.448 99.5231ZM780.448 55.9741C776.586 55.9741 772.811 57.1599 769.601 59.3816C766.39 61.6034 763.887 64.7612 762.409 68.4557C760.932 72.1503 760.545 76.2157 761.298 80.1378C762.052 84.06 763.911 87.6627 766.642 90.4904C769.372 93.3181 772.851 95.2438 776.639 96.0239C780.426 96.8041 784.352 96.4037 787.92 94.8734C791.488 93.343 794.537 90.7515 796.683 87.4265C798.828 84.1014 799.973 80.1923 799.973 76.1933C799.967 70.8327 797.908 65.6935 794.248 61.903C790.587 58.1125 785.625 55.9803 780.448 55.9741Z" fill="white"/>
<path d="M398.179 83.3942V82.2171L399.63 80.7575C403.124 77.3157 404.702 75.484 404.722 73.35C404.76 72.9734 404.715 72.5929 404.591 72.2367C404.467 71.8805 404.268 71.5576 404.007 71.2921C403.747 71.0265 403.432 70.825 403.086 70.7024C402.74 70.5799 402.372 70.5395 402.009 70.5841C400.937 70.6249 399.911 71.0477 399.105 71.781L398.515 70.4307C399.602 69.4941 400.973 68.9847 402.387 68.9923C402.931 68.9423 403.479 69.0127 403.995 69.1989C404.511 69.3851 404.982 69.6829 405.378 70.0724C405.774 70.4619 406.086 70.9342 406.292 71.4579C406.498 71.9817 406.594 72.5448 406.574 73.11C406.574 75.724 404.743 77.8382 401.861 80.7134L400.767 81.7599V81.8025H406.911V83.3942H398.179Z" fill="white"/>
<path d="M252.975 70.8985H252.934L250.556 72.2275L250.199 70.7679L253.186 69.1123H254.764V83.2742H252.975V70.8985Z" fill="white"/>
<path d="M781.795 83.2735V79.4186H775.441V78.1549L781.542 69.1131H783.541V77.9149H785.456V79.4186H783.541V83.2735H781.795ZM781.795 77.9149V73.1882C781.795 72.447 781.816 71.7058 781.859 70.9646H781.795C781.375 71.7939 781.038 72.4029 780.659 73.0576L777.314 77.8708V77.9149L781.795 77.9149Z" fill="white"/>
<path d="M584.588 81.0734C585.507 81.6361 586.55 81.9437 587.617 81.9665C589.996 81.9665 590.732 80.3975 590.71 79.2219C590.69 77.2383 588.963 76.3892 587.177 76.3892H586.144V74.9508H587.177C588.523 74.9508 590.228 74.2324 590.228 72.5541C590.228 71.421 589.532 70.4185 587.828 70.4185C586.848 70.4471 585.897 70.7735 585.094 71.3572L584.61 69.9629C585.673 69.2451 586.917 68.866 588.186 68.8724C590.879 68.8724 592.099 70.5279 592.099 72.2503C592.085 73.0145 591.831 73.7532 591.375 74.3544C590.919 74.9557 590.287 75.3869 589.573 75.5827V75.6268C590.419 75.7535 591.192 76.1905 591.752 76.8583C592.312 77.5261 592.622 78.38 592.624 79.2645C592.624 81.5306 590.92 83.5143 587.639 83.5143C586.392 83.5309 585.164 83.1993 584.083 82.5543L584.588 81.0734Z" fill="white"/>
<path d="M657.194 221.649H524.571C524.374 221.649 524.179 221.609 523.996 221.531C523.814 221.453 523.649 221.338 523.509 221.194C523.37 221.05 523.259 220.878 523.183 220.689C523.108 220.501 523.069 220.298 523.069 220.094V132.218C523.069 132.014 523.108 131.812 523.183 131.623C523.259 131.434 523.37 131.263 523.509 131.118C523.649 130.974 523.814 130.859 523.996 130.781C524.179 130.703 524.374 130.663 524.571 130.663H657.194C657.391 130.663 657.586 130.703 657.769 130.781C657.951 130.859 658.116 130.974 658.256 131.118C658.395 131.263 658.506 131.434 658.581 131.623C658.657 131.812 658.696 132.014 658.696 132.218V220.094C658.696 220.298 658.657 220.501 658.581 220.689C658.506 220.878 658.395 221.05 658.256 221.194C658.116 221.338 657.951 221.453 657.769 221.531C657.586 221.609 657.391 221.649 657.194 221.649ZM526.073 218.539H655.692V133.774H526.073V218.539Z" fill="white"/>
<path d="M633.461 150.104H552.357C551.959 150.104 551.577 149.941 551.295 149.649C551.013 149.357 550.855 148.962 550.855 148.549C550.855 148.137 551.013 147.741 551.295 147.449C551.577 147.158 551.959 146.994 552.357 146.994H633.461C633.859 146.994 634.241 147.158 634.523 147.449C634.804 147.741 634.963 148.137 634.963 148.549C634.963 148.962 634.804 149.357 634.523 149.649C634.241 149.941 633.859 150.104 633.461 150.104Z" fill="white"/>
<path d="M633.461 164.102H552.357C552.159 164.103 551.964 164.063 551.781 163.985C551.598 163.907 551.432 163.793 551.292 163.648C551.153 163.504 551.042 163.332 550.966 163.143C550.89 162.954 550.851 162.752 550.851 162.547C550.851 162.342 550.89 162.14 550.966 161.951C551.042 161.762 551.153 161.59 551.292 161.446C551.432 161.301 551.598 161.187 551.781 161.109C551.964 161.031 552.159 160.991 552.357 160.992H633.461C633.859 160.992 634.241 161.156 634.523 161.447C634.804 161.739 634.963 162.135 634.963 162.547C634.963 162.96 634.804 163.355 634.523 163.647C634.241 163.939 633.859 164.102 633.461 164.102Z" fill="white"/>
<path d="M633.461 178.1H552.357C551.959 178.1 551.577 177.936 551.295 177.645C551.013 177.353 550.855 176.957 550.855 176.545C550.855 176.132 551.013 175.737 551.295 175.445C551.577 175.153 551.959 174.99 552.357 174.99H633.461C633.859 174.99 634.241 175.153 634.523 175.445C634.804 175.737 634.963 176.132 634.963 176.545C634.963 176.957 634.804 177.353 634.523 177.645C634.241 177.936 633.859 178.1 633.461 178.1Z" fill="white"/>
<path d="M633.461 192.098H552.357C552.159 192.099 551.964 192.059 551.781 191.981C551.598 191.903 551.432 191.789 551.292 191.644C551.153 191.5 551.042 191.328 550.966 191.139C550.89 190.95 550.851 190.747 550.851 190.543C550.851 190.338 550.89 190.136 550.966 189.947C551.042 189.758 551.153 189.586 551.292 189.442C551.432 189.297 551.598 189.183 551.781 189.105C551.964 189.027 552.159 188.987 552.357 188.987H633.461C633.859 188.987 634.241 189.151 634.523 189.443C634.804 189.735 634.963 190.13 634.963 190.543C634.963 190.955 634.804 191.351 634.523 191.643C634.241 191.934 633.859 192.098 633.461 192.098Z" fill="white"/>
<path d="M633.461 206.096H552.357C551.959 206.096 551.577 205.932 551.295 205.641C551.013 205.349 550.855 204.953 550.855 204.541C550.855 204.128 551.013 203.733 551.295 203.441C551.577 203.149 551.959 202.985 552.357 202.985H633.461C633.658 202.985 633.854 203.025 634.037 203.103C634.219 203.181 634.385 203.295 634.525 203.44C634.665 203.584 634.776 203.756 634.852 203.945C634.928 204.134 634.967 204.336 634.967 204.541C634.967 204.745 634.928 204.948 634.852 205.137C634.776 205.326 634.665 205.497 634.525 205.642C634.385 205.786 634.219 205.901 634.037 205.979C633.854 206.057 633.658 206.097 633.461 206.096Z" fill="white"/>
<path d="M222.454 134.982C222.854 134.968 223.233 134.794 223.511 134.496C223.789 134.198 223.944 133.799 223.944 133.385C223.944 132.971 223.789 132.573 223.511 132.275C223.233 131.977 222.854 131.802 222.454 131.788C222.054 131.802 221.675 131.977 221.397 132.275C221.119 132.573 220.964 132.971 220.964 133.385C220.964 133.799 221.119 134.198 221.397 134.496C221.675 134.794 222.054 134.968 222.454 134.982Z" fill="white"/>
<path d="M222.454 152.091C222.854 152.077 223.233 151.902 223.511 151.604C223.789 151.306 223.944 150.908 223.944 150.494C223.944 150.079 223.789 149.681 223.511 149.383C223.233 149.085 222.854 148.91 222.454 148.896C222.054 148.91 221.675 149.085 221.397 149.383C221.119 149.681 220.964 150.079 220.964 150.494C220.964 150.908 221.119 151.306 221.397 151.604C221.675 151.902 222.054 152.077 222.454 152.091Z" fill="white"/>
<path d="M222.454 169.2C222.854 169.185 223.233 169.011 223.511 168.713C223.789 168.415 223.944 168.016 223.944 167.602C223.944 167.188 223.789 166.79 223.511 166.492C223.233 166.194 222.854 166.019 222.454 166.005C222.054 166.019 221.675 166.194 221.397 166.492C221.119 166.79 220.964 167.188 220.964 167.602C220.964 168.016 221.119 168.415 221.397 168.713C221.675 169.011 222.054 169.185 222.454 169.2Z" fill="white"/>
<path d="M222.454 186.308C222.854 186.294 223.233 186.119 223.511 185.821C223.789 185.523 223.944 185.125 223.944 184.711C223.944 184.296 223.789 183.898 223.511 183.6C223.233 183.302 222.854 183.128 222.454 183.113C222.054 183.128 221.675 183.302 221.397 183.6C221.119 183.898 220.964 184.296 220.964 184.711C220.964 185.125 221.119 185.523 221.397 185.821C221.675 186.119 222.054 186.294 222.454 186.308Z" fill="white"/>
<path d="M222.454 203.417C222.854 203.402 223.233 203.228 223.511 202.93C223.789 202.632 223.944 202.234 223.944 201.819C223.944 201.405 223.789 201.007 223.511 200.709C223.233 200.411 222.854 200.236 222.454 200.222C222.054 200.236 221.675 200.411 221.397 200.709C221.119 201.007 220.964 201.405 220.964 201.819C220.964 202.234 221.119 202.632 221.397 202.93C221.675 203.228 222.054 203.402 222.454 203.417Z" fill="white"/>
<path d="M222.454 220.525C222.854 220.511 223.233 220.336 223.511 220.038C223.789 219.74 223.944 219.342 223.944 218.928C223.944 218.513 223.789 218.115 223.511 217.817C223.233 217.519 222.854 217.345 222.454 217.33C222.054 217.345 221.675 217.519 221.397 217.817C221.119 218.115 220.964 218.513 220.964 218.928C220.964 219.342 221.119 219.74 221.397 220.038C221.675 220.336 222.054 220.511 222.454 220.525Z" fill="white"/>
<path d="M285.014 134.94H236.953C236.555 134.94 236.172 134.776 235.891 134.485C235.609 134.193 235.451 133.797 235.451 133.385C235.451 132.972 235.609 132.577 235.891 132.285C236.172 131.993 236.555 131.829 236.953 131.829H285.014C285.413 131.829 285.795 131.993 286.076 132.285C286.358 132.577 286.516 132.972 286.516 133.385C286.516 133.797 286.358 134.193 286.076 134.485C285.795 134.776 285.413 134.94 285.014 134.94H285.014Z" fill="white"/>
<path d="M285.014 152.049H236.953C236.755 152.049 236.56 152.009 236.377 151.931C236.194 151.853 236.028 151.739 235.888 151.595C235.748 151.45 235.637 151.278 235.562 151.089C235.486 150.9 235.447 150.698 235.447 150.493C235.447 150.289 235.486 150.086 235.562 149.897C235.637 149.708 235.748 149.537 235.888 149.392C236.028 149.248 236.194 149.133 236.377 149.055C236.56 148.977 236.755 148.937 236.953 148.938H285.014C285.212 148.937 285.408 148.977 285.59 149.055C285.773 149.133 285.939 149.248 286.079 149.392C286.219 149.537 286.33 149.708 286.406 149.897C286.481 150.086 286.52 150.289 286.52 150.493C286.52 150.698 286.481 150.9 286.406 151.089C286.33 151.278 286.219 151.45 286.079 151.595C285.939 151.739 285.773 151.853 285.59 151.931C285.408 152.009 285.212 152.049 285.014 152.049H285.014Z" fill="white"/>
<path d="M285.014 169.157H236.953C236.555 169.157 236.172 168.993 235.891 168.702C235.609 168.41 235.451 168.014 235.451 167.602C235.451 167.189 235.609 166.794 235.891 166.502C236.172 166.21 236.555 166.047 236.953 166.047H285.014C285.212 166.046 285.408 166.086 285.59 166.164C285.773 166.242 285.939 166.356 286.079 166.501C286.219 166.645 286.33 166.817 286.406 167.006C286.481 167.195 286.52 167.397 286.52 167.602C286.52 167.806 286.481 168.009 286.406 168.198C286.33 168.387 286.219 168.559 286.079 168.703C285.939 168.848 285.773 168.962 285.59 169.04C285.408 169.118 285.212 169.158 285.014 169.157H285.014Z" fill="white"/>
<path d="M285.014 186.266H236.953C236.555 186.266 236.172 186.102 235.891 185.81C235.609 185.519 235.451 185.123 235.451 184.71C235.451 184.298 235.609 183.902 235.891 183.611C236.172 183.319 236.555 183.155 236.953 183.155H285.014C285.212 183.155 285.408 183.194 285.59 183.272C285.773 183.35 285.939 183.465 286.079 183.609C286.219 183.754 286.33 183.925 286.406 184.114C286.481 184.303 286.52 184.506 286.52 184.71C286.52 184.915 286.481 185.118 286.406 185.307C286.33 185.496 286.219 185.667 286.079 185.812C285.939 185.956 285.773 186.071 285.59 186.149C285.408 186.226 285.212 186.266 285.014 186.266H285.014Z" fill="white"/>
<path d="M285.014 203.374H236.953C236.555 203.374 236.172 203.21 235.891 202.919C235.609 202.627 235.451 202.231 235.451 201.819C235.451 201.406 235.609 201.011 235.891 200.719C236.172 200.427 236.555 200.264 236.953 200.264H285.014C285.212 200.263 285.408 200.303 285.59 200.381C285.773 200.459 285.939 200.573 286.079 200.718C286.219 200.862 286.33 201.034 286.406 201.223C286.481 201.412 286.52 201.614 286.52 201.819C286.52 202.024 286.481 202.226 286.406 202.415C286.33 202.604 286.219 202.776 286.079 202.92C285.939 203.065 285.773 203.179 285.59 203.257C285.408 203.335 285.212 203.375 285.014 203.374H285.014Z" fill="white"/>
<path d="M285.014 220.483H236.953C236.755 220.483 236.56 220.443 236.377 220.366C236.194 220.288 236.028 220.173 235.888 220.029C235.748 219.884 235.637 219.713 235.562 219.524C235.486 219.335 235.447 219.132 235.447 218.927C235.447 218.723 235.486 218.52 235.562 218.331C235.637 218.142 235.748 217.971 235.888 217.826C236.028 217.682 236.194 217.567 236.377 217.489C236.56 217.411 236.755 217.372 236.953 217.372H285.014C285.212 217.372 285.408 217.411 285.59 217.489C285.773 217.567 285.939 217.682 286.079 217.826C286.219 217.971 286.33 218.142 286.406 218.331C286.481 218.52 286.52 218.723 286.52 218.927C286.52 219.132 286.481 219.335 286.406 219.524C286.33 219.713 286.219 219.884 286.079 220.029C285.939 220.173 285.773 220.288 285.59 220.366C285.408 220.443 285.212 220.483 285.014 220.483H285.014Z" fill="white"/>
<path d="M796.614 227.585H764.283C762.145 227.583 760.095 226.702 758.582 225.136C757.07 223.57 756.219 221.447 756.217 219.233V133.078C756.219 130.863 757.07 128.741 758.582 127.175C760.095 125.609 762.145 124.729 764.283 124.727H768.206C768.451 124.727 768.693 124.79 768.911 124.909C769.128 125.028 769.313 125.201 769.451 125.412C769.588 125.623 769.674 125.866 769.7 126.119C769.725 126.372 769.691 126.628 769.599 126.864C769.499 127.119 769.46 127.395 769.487 127.668C769.514 127.941 769.605 128.203 769.752 128.432C769.9 128.66 770.1 128.847 770.333 128.977C770.567 129.107 770.828 129.175 771.094 129.176H789.526C789.791 129.175 790.052 129.108 790.285 128.978C790.519 128.849 790.719 128.662 790.867 128.435C791.015 128.207 791.106 127.945 791.133 127.672C791.161 127.399 791.123 127.123 791.023 126.869C790.93 126.633 790.895 126.377 790.92 126.123C790.945 125.869 791.03 125.626 791.168 125.414C791.305 125.203 791.49 125.029 791.708 124.91C791.925 124.79 792.168 124.727 792.414 124.727H796.614C798.753 124.729 800.803 125.61 802.315 127.175C803.827 128.741 804.677 130.864 804.68 133.078V219.233C804.677 221.447 803.827 223.57 802.315 225.136C800.803 226.702 798.753 227.582 796.614 227.585ZM764.283 127.838C762.942 127.839 761.655 128.392 760.706 129.374C759.757 130.356 759.223 131.688 759.22 133.078V219.233C759.222 220.623 759.756 221.955 760.705 222.938C761.655 223.92 762.941 224.473 764.283 224.474H796.614C797.956 224.473 799.243 223.92 800.192 222.937C801.141 221.955 801.675 220.622 801.676 219.233V133.078C801.674 131.688 801.14 130.356 800.192 129.374C799.243 128.392 797.956 127.839 796.614 127.838H794.134C794.051 129.045 793.529 130.175 792.674 131C791.819 131.825 790.695 132.285 789.526 132.287H771.094C769.925 132.285 768.8 131.825 767.946 131C767.091 130.175 766.57 129.045 766.487 127.838H764.283Z" fill="white"/>
<path d="M732.587 178.1H690.534C690.135 178.1 689.753 177.936 689.472 177.645C689.19 177.353 689.032 176.957 689.032 176.545C689.032 176.132 689.19 175.737 689.472 175.445C689.753 175.153 690.135 174.99 690.534 174.99H728.962L720.261 165.98C719.98 165.688 719.821 165.292 719.821 164.88C719.821 164.468 719.98 164.072 720.261 163.78C720.543 163.489 720.925 163.325 721.323 163.325C721.721 163.325 722.103 163.489 722.385 163.78L733.649 175.445C733.859 175.663 734.003 175.94 734.06 176.242C734.118 176.543 734.089 176.856 733.975 177.14C733.861 177.424 733.669 177.667 733.422 177.838C733.175 178.009 732.885 178.1 732.587 178.1V178.1Z" fill="white"/>
<path d="M722.074 188.988C721.777 188.987 721.487 188.896 721.24 188.725C720.993 188.554 720.8 188.312 720.687 188.027C720.573 187.743 720.543 187.431 720.601 187.129C720.659 186.827 720.802 186.55 721.012 186.333L731.526 175.445C731.807 175.154 732.189 174.99 732.588 174.99C732.986 174.99 733.368 175.154 733.649 175.445C733.931 175.737 734.089 176.132 734.089 176.545C734.089 176.957 733.931 177.353 733.649 177.645L723.136 188.532C722.997 188.677 722.831 188.791 722.649 188.869C722.467 188.948 722.271 188.988 722.074 188.988Z" fill="white"/>
<path d="M806.628 309.008H757.521C754.17 288.946 754.17 268.437 757.521 248.375H806.628C801.096 268.18 801.096 289.203 806.628 309.008Z" fill="#FF6584"/>
<path d="M533.974 298.583H583.081C586.432 278.521 586.432 258.013 583.081 237.951H533.974C539.506 257.756 539.506 278.778 533.974 298.583Z" fill="#1F4386"/>
<path d="M608.707 315.635H657.814C661.165 295.573 661.165 275.065 657.814 255.003H608.707C614.239 274.808 614.239 295.83 608.707 315.635Z" fill="#1F4386"/>
<path d="M575.333 255.616H545.45C544.935 255.616 544.517 254.921 544.517 254.061C544.517 253.201 544.935 252.506 545.45 252.506H575.333C575.849 252.506 576.267 253.201 576.267 254.061C576.267 254.921 575.849 255.616 575.333 255.616Z" fill="white"/>
<path d="M575.333 270.045H545.45C544.935 270.045 544.517 269.349 544.517 268.489C544.517 267.63 544.935 266.934 545.45 266.934H575.333C575.849 266.934 576.267 267.63 576.267 268.489C576.267 269.349 575.849 270.045 575.333 270.045Z" fill="white"/>
<path d="M650.066 279.227H620.184C619.668 279.227 619.25 278.531 619.25 277.671C619.25 276.812 619.668 276.116 620.184 276.116H650.066C650.582 276.116 651 276.812 651 277.671C651 278.531 650.582 279.227 650.066 279.227Z" fill="white"/>
<path d="M650.066 293.655H620.184C619.668 293.655 619.25 292.96 619.25 292.1C619.25 291.24 619.668 290.545 620.184 290.545H650.066C650.582 290.545 651 291.24 651 292.1C651 292.96 650.582 293.655 650.066 293.655Z" fill="white"/>
<path d="M795.732 264.798H765.85C765.334 264.798 764.916 264.102 764.916 263.243C764.916 262.383 765.334 261.687 765.85 261.687H795.732C796.248 261.687 796.666 262.383 796.666 263.243C796.666 264.102 796.248 264.798 795.732 264.798Z" fill="white"/>
<path d="M795.732 279.227H765.85C765.334 279.227 764.916 278.531 764.916 277.671C764.916 276.812 765.334 276.116 765.85 276.116H795.732C796.248 276.116 796.666 276.812 796.666 277.671C796.666 278.531 796.248 279.227 795.732 279.227Z" fill="white"/>
<path d="M575.333 284.473H545.45C544.935 284.473 544.517 283.778 544.517 282.918C544.517 282.058 544.935 281.363 545.45 281.363H575.333C575.849 281.363 576.267 282.058 576.267 282.918C576.267 283.778 575.849 284.473 575.333 284.473Z" fill="white"/>
<path d="M286.975 299.895H336.082C339.433 279.833 339.433 259.324 336.082 239.263H286.975C292.507 259.067 292.507 280.09 286.975 299.895Z" fill="#1F4386"/>
<path d="M328.334 256.928H298.451C297.936 256.928 297.518 256.232 297.518 255.373C297.518 254.513 297.936 253.817 298.451 253.817H328.334C328.85 253.817 329.268 254.513 329.268 255.373C329.268 256.232 328.85 256.928 328.334 256.928Z" fill="white"/>
<path d="M328.334 271.357H298.451C297.936 271.357 297.518 270.661 297.518 269.801C297.518 268.942 297.936 268.246 298.451 268.246H328.334C328.85 268.246 329.268 268.942 329.268 269.801C329.268 270.661 328.85 271.357 328.334 271.357Z" fill="white"/>
<path d="M328.334 285.785H298.451C297.936 285.785 297.518 285.09 297.518 284.23C297.518 283.37 297.936 282.675 298.451 282.675H328.334C328.85 282.675 329.268 283.37 329.268 284.23C329.268 285.09 328.85 285.785 328.334 285.785Z" fill="white"/>
<path d="M146.084 395.741H195.191C198.542 375.68 198.542 355.171 195.191 335.109H146.084C151.617 354.914 151.617 375.937 146.084 395.741Z" fill="#1F4386"/>
<path d="M187.443 352.774H157.56C157.045 352.774 156.627 352.079 156.627 351.219C156.627 350.359 157.045 349.664 157.56 349.664H187.443C187.959 349.664 188.377 350.359 188.377 351.219C188.377 352.079 187.959 352.774 187.443 352.774Z" fill="white"/>
<path d="M187.443 367.203H157.56C157.045 367.203 156.627 366.508 156.627 365.648C156.627 364.788 157.045 364.092 157.56 364.092H187.443C187.959 364.092 188.377 364.788 188.377 365.648C188.377 366.508 187.959 367.203 187.443 367.203Z" fill="white"/>
<path d="M187.443 381.632H157.56C157.045 381.632 156.627 380.936 156.627 380.076C156.627 379.217 157.045 378.521 157.56 378.521H187.443C187.959 378.521 188.377 379.217 188.377 380.076C188.377 380.936 187.959 381.632 187.443 381.632Z" fill="white"/>
<path d="M825.437 282.945C825.437 282.945 795.265 307.494 810.351 313.074C825.437 318.653 835.135 292.988 835.135 292.988L825.437 282.945Z" fill="#FFB8B8"/>
<path d="M826.514 274.019L820.049 285.177C820.049 285.177 830.825 285.177 832.98 301.915L841.6 290.756L826.514 274.019Z" fill="#CFCCE0"/>
<path d="M969.829 528.435L970.906 561.91L957.976 569.722L952.588 566.375L953.666 528.435H969.829Z" fill="#FFB8B8"/>
<path d="M893.322 519.508L895.478 555.216L865.306 568.606L867.461 549.636C867.461 549.636 876.082 535.13 873.927 519.508H893.322Z" fill="#FFB8B8"/>
<path d="M939.657 250.585C939.657 250.585 956.898 297.452 960.131 326.464C963.363 355.476 968.751 432.471 968.751 432.471L979.526 531.783L949.355 536.246L936.425 435.818L907.331 336.507L900.865 435.818L895.478 526.203L867.461 527.319L865.306 433.587L853.453 314.19L859.918 257.281L939.657 250.585Z" fill="#2F2E41"/>
<path d="M955.82 564.143C955.82 564.143 957.588 545.402 970.712 555.888L973.061 554.1L983.837 578.649C983.837 578.649 996.767 597.618 974.139 599.85C951.51 602.082 953.665 578.649 953.665 578.649L951.51 568.606L952.588 562.03L955.82 564.143Z" fill="#2F2E41"/>
<path d="M893.322 541.825C895.975 543.396 898.173 545.673 899.689 548.42C901.205 551.167 901.983 554.284 901.943 557.447C901.943 568.606 900.865 569.722 900.865 569.722L884.702 574.185C884.702 574.185 873.927 573.069 867.461 579.765C860.996 586.46 828.669 590.923 828.669 581.996C828.669 573.069 855.608 558.563 855.608 558.563C855.608 558.563 863.608 544.573 869.306 545.989C875.004 547.405 877.159 549.636 877.159 550.752C877.159 551.868 873.927 559.679 873.927 559.679C873.927 559.679 892.245 555.216 893.322 541.825Z" fill="#2F2E41"/>
<path d="M891.167 113.334C906.045 113.334 918.106 100.845 918.106 85.4379C918.106 70.0311 906.045 57.5414 891.167 57.5414C876.289 57.5414 864.229 70.0311 864.229 85.4379C864.229 100.845 876.289 113.334 891.167 113.334Z" fill="#FFB8B8"/>
<path d="M911.102 92.691L922.955 120.588L890.629 168.57C890.629 168.57 888.473 116.124 882.008 107.197C875.543 98.2703 911.102 92.691 911.102 92.691Z" fill="#FFB8B8"/>
<path d="M896.017 150.716L901.405 136.21L905.715 137.326L911.102 132.862L918.645 108.313L929.42 116.125L943.429 262.302L856.147 264.534L868 162.99L878.776 133.978L886.553 123.33L891.706 139.557L896.017 150.716Z" fill="#CFCCE0"/>
<path d="M920.8 213.204L924.097 112.265C924.097 112.265 930.498 112.777 932.653 116.124C934.808 119.472 970.367 126.167 970.367 126.167L963.902 229.942C963.902 229.942 990.841 312.516 981.143 316.979C971.445 321.443 954.204 320.327 954.204 320.327L920.8 213.204Z" fill="#575A89"/>
<path d="M868.539 200.372L879.97 132.343L854.531 150.158L860.996 199.256L855.608 232.732C855.608 232.732 835.135 325.348 841.6 328.696C848.065 332.043 855.608 328.696 855.608 328.696L868.539 234.963V200.372Z" fill="#575A89"/>
<path d="M862.073 147.926L854.531 150.158L851.298 194.792L845.91 233.848L820.049 281.83C820.049 281.83 832.98 272.903 838.367 298.568L866.848 247.219L862.073 147.926Z" fill="#575A89"/>
<path d="M946.123 274.019C946.123 274.019 915.951 298.568 931.037 304.147C946.122 309.726 955.82 284.061 955.82 284.061L946.123 274.019Z" fill="#FFB8B8"/>
<path d="M964.441 286.293L954.743 298.568L941.812 275.134L947.2 265.092L964.441 286.293Z" fill="#CFCCE0"/>
<path d="M962.286 130.072L970.906 125.609C970.906 125.609 977.371 134.536 978.449 142.347C979.526 150.158 984.914 160.201 984.914 165.78C984.914 171.359 1000 223.805 1000 223.805L965.518 296.336C965.518 296.336 957.976 269.555 941.812 267.323L968.751 228.268L953.665 200.372L962.286 130.072Z" fill="#575A89"/>
<path d="M913.719 58.8585L918.799 56.7525C918.799 56.7525 908.177 44.6429 893.399 45.696L897.556 40.9574C897.556 40.9574 887.396 36.7454 878.16 47.8019C873.304 53.614 867.687 60.446 864.185 68.142H858.745L861.015 73.3193L853.068 78.4965L861.225 77.5666C860.739 80.4017 860.664 83.2961 861.004 86.154C861.353 89.0129 862.762 91.6191 864.933 93.4227C864.933 93.4227 871.233 79.9186 871.233 77.8126V83.0776C871.233 83.0776 876.313 78.3391 876.313 75.1801L879.083 78.8657L880.469 73.0741L897.556 78.8657L894.785 74.1271L905.407 75.7066L901.25 69.9151C901.25 69.9151 913.257 76.7596 913.719 82.5512C914.181 88.3427 917.695 93.8305 917.695 93.8305C917.695 93.8305 927.112 66.756 913.719 58.8585Z" fill="#2F2E41"/>
<path d="M913.257 84.88C914.923 84.88 916.274 83.1314 916.274 80.9745C916.274 78.8175 914.923 77.069 913.257 77.069C911.591 77.069 910.24 78.8175 910.24 80.9745C910.24 83.1314 911.591 84.88 913.257 84.88Z" fill="#FFB8B8"/>
</g>
<defs>
<clipPath id="clip0">
<rect width="1000" height="600" fill="white"/>
</clipPath>
</defs>
</svg>
