<svg width="993" height="742" viewBox="0 0 993 742" fill="none" xmlns="http://www.w3.org/2000/svg">
<path d="M993 696.5C993 700.6 989.25 704.58 982.23 708.36C946.22 727.74 824.11 742 679 742C673.29 742 667.62 741.977 661.99 741.93C496.48 740.65 365 720.8 365 696.5C365 671.37 505.58 651 679 651C726.49 651 771.51 652.53 811.86 655.26C822 655.95 831.833 656.713 841.36 657.55C845.32 657.89 849.223 658.25 853.07 658.63C871.2 660.38 888 662.4 903.2 664.65C910.58 665.74 917.57 666.88 924.17 668.07C941.36 671.18 955.78 674.62 966.92 678.31C983.69 683.89 993 690.04 993 696.5Z" fill="#CECECE"/>
<path d="M628 466C628 482.57 487.42 496 314 496C285.34 496 257.58 495.63 231.2 494.94C129.46 492.3 48.29 484.88 15.6001 475.36C5.48 472.42 0 469.27 0 466C0 462.26 7.17993 458.67 20.29 455.37C27.9399 453.44 37.6098 451.61 49.05 449.89C49.1401 449.88 49.2399 449.87 49.34 449.85C75.54 445.94 110.99 442.64 152.74 440.26C199.87 437.55 255.04 436 314 436C487.42 436 628 449.43 628 466Z" fill="#CECECE"/>
<path d="M613.734 318.706L590.806 312.322C590.806 312.322 581.825 310.529 587.313 292.99C592.8 275.45 603.683 280.359 603.683 280.359L624.023 286.268L632.053 288.748L620.754 304.599L619.807 315.164L613.734 318.706Z" fill="#3F3D56"/>
<path d="M658.036 272.364L665.23 301.097L628.372 336.819L625.203 337.613L616.75 335.238L609.556 306.505L616.843 298.843L609.394 296.891L625.289 281.461L633.583 283.201L640.236 276.596L635.745 274.801L635.322 273.111L640.762 268.83L658.036 272.364Z" fill="#3F3D56"/>
<path d="M623.504 312.892L628.265 331.906L650.232 311.139L644.732 291.86L623.504 312.892Z" fill="#0A1E3B"/>
<path d="M658.036 272.364L659.045 276.393L622.394 312.047L619.225 312.84L611.037 310.625L610.585 310.614L609.556 306.505L616.843 298.843L609.394 296.891L625.289 281.461L633.583 283.201L640.236 276.596L635.745 274.801L635.322 273.111L640.762 268.83L658.036 272.364Z" stroke="#3F3D56" stroke-miterlimit="10"/>
<path d="M641.608 274.007C643.242 273.598 644.341 272.368 644.064 271.259C643.786 270.151 642.237 269.584 640.603 269.993C638.97 270.402 637.87 271.632 638.148 272.74C638.426 273.849 639.975 274.416 641.608 274.007Z" fill="#0A1E3B"/>
<path d="M618.324 304.759C619.958 304.35 621.057 303.119 620.78 302.011C620.502 300.902 618.953 300.335 617.319 300.744C615.686 301.153 614.586 302.384 614.864 303.492C615.141 304.601 616.691 305.168 618.324 304.759Z" fill="#0A1E3B"/>
<path d="M598.5 354.5L603.5 337.5C603.5 337.5 590.5 306.5 605.5 303.5C620.5 300.5 621.5 332.5 621.5 332.5L615.5 351.5L598.5 354.5Z" fill="#FFB6B6"/>
<path d="M691.332 321.446C713.27 321.446 731.054 303.661 731.054 281.723C731.054 259.784 713.27 242 691.332 242C669.393 242 651.609 259.784 651.609 281.723C651.609 303.661 669.393 321.446 691.332 321.446Z" fill="#FFB6B6"/>
<path d="M678.48 309.762C678.48 309.762 676.144 338.97 670.302 341.307C664.46 343.644 733.391 360 733.391 360L715.866 340.139C715.866 340.139 712.361 309.762 720.54 302.752L678.48 309.762Z" fill="#FFB6B6"/>
<path d="M622.5 345.5L606.5 343.5C606.5 343.5 587.5 353.5 587.5 366.5C587.5 379.5 576.5 400.5 576.5 400.5C576.5 400.5 568.5 428.5 586.5 430.5C604.5 432.5 620.5 400.5 620.5 400.5L622.5 345.5Z" fill="#1F4386"/>
<path d="M613.5 504.5C613.5 504.5 578.5 471.5 568.5 473.5C558.5 475.5 538.5 478.5 538.5 493.5C538.5 508.5 571.5 543.5 571.5 543.5C571.5 543.5 596.5 598.5 620.5 600.5C636.288 601.932 651.98 604.269 667.5 607.5C667.5 607.5 656.5 647.5 662.5 658.5C668.5 669.5 691.5 682.5 693.5 681.5C695.5 680.5 723.5 654.5 735.5 617.5C747.5 580.5 755.5 552.5 744.5 550.5C733.5 548.5 613.5 504.5 613.5 504.5Z" fill="#2F2E41"/>
<path d="M541.5 490.5C541.5 490.5 534.5 489.5 535.5 506.5C536.5 523.5 539.5 584.5 544.5 596.5C549.5 608.5 550.5 622.5 548.5 627.5C546.5 632.5 542.5 640.5 549.5 641.5C556.5 642.5 585.5 638.5 588.5 637.5C591.5 636.5 594.5 619.5 592.5 619.5C590.5 619.5 585.5 618.5 587.5 611.5C589.5 604.5 590.5 604.5 587.5 602.5C584.5 600.5 576.5 597.5 578.5 595.5C580.5 593.5 582.5 546.5 582.5 546.5L541.5 490.5Z" fill="#2F2E41"/>
<path d="M551.5 638.5C551.5 638.5 534.5 633.5 532.5 644.5C532.5 644.5 529.5 661.5 542.5 667.5C550.889 671.465 558.919 676.149 566.5 681.5C566.5 681.5 587.5 689.5 588.5 679.5C589.5 669.5 584.5 633.5 584.5 633.5L551.5 638.5Z" fill="#2F2E41"/>
<path d="M664.5 650.5L696.5 624.5C696.5 624.5 690.5 656.5 698.5 662.5L702.154 673.184L691.921 681.554C691.921 681.554 660.5 676.5 664.5 650.5Z" fill="#2F2E41"/>
<path d="M709.5 606.5C709.5 606.5 688.5 612.5 691.5 633.5C694.5 654.5 698.346 677.315 698.346 677.315C698.346 677.315 699.5 733.5 714.5 737.5C729.5 741.5 733.5 733.5 733.5 733.5C733.5 733.5 750.551 689.595 745.5 676.5C739.386 660.649 730.577 642.851 733.5 637.5C736.376 632.234 731.5 603.5 709.5 606.5Z" fill="#2F2E41"/>
<path d="M721.5 330.5C721.5 330.5 713.5 331.5 700.5 333.5C687.5 335.5 678.5 325.5 671.5 327.5C664.5 329.5 606.5 343.5 606.5 343.5L615.5 412.5C615.5 412.5 604.5 492.5 606.5 506.5C608.5 520.5 582.5 518.5 597.5 535.5C612.5 552.5 638.5 567.5 691.5 562.5C744.5 557.5 751.5 558.5 751.5 550.5C751.5 542.5 739.5 474.5 743.5 468.5C747.5 462.5 755.5 455.5 751.5 448.5C747.5 441.5 743.5 437.5 749.5 431.5C755.5 425.5 758.5 419.5 758.5 416.5C758.5 413.5 772.5 364.5 772.5 364.5C772.5 364.5 766.5 340.5 759.5 339.5C752.5 338.5 746.5 333.5 741.5 333.5C736.5 333.5 733.5 334.5 730.5 333.5L721.5 330.5Z" fill="#1F4386"/>
<path d="M634.244 274.584C638.853 273.978 643.605 271.216 646.156 269.525C649.058 272.33 666.931 288.507 697.644 293.202C697.644 293.202 697.713 292.594 697.889 291.564L708.414 293.361L727.881 291.466C727.783 291.796 727.723 291.978 727.723 291.978C727.723 291.978 730.507 291.227 731.473 284.936C731.658 283.73 731.882 282.531 732.144 281.338C733.71 274.196 737.508 248.453 715.955 231.249C700.264 218.724 682.178 222.676 670.743 227.456C666.097 229.38 661.887 232.221 658.365 235.811C654.844 239.401 652.083 243.665 650.249 248.347C649.314 250.688 648.69 253.142 648.393 255.646L647.945 256.918C644.473 257.401 637.503 254.487 633.757 255.866C628.637 257.751 626.119 265.479 625.604 267.79C625.09 270.102 627.495 275.472 634.244 274.584ZM700.549 281.849C703.321 274.714 708.553 266.921 718.138 267.31C728.079 267.712 729.823 275.606 729.472 282.357L704.74 283.257L700.549 281.849Z" fill="#2F2E41"/>
<path d="M702.868 224.637C703.022 223.736 701.216 222.675 698.834 222.269C696.452 221.862 694.396 222.264 694.243 223.165C694.089 224.066 695.895 225.126 698.277 225.533C700.659 225.939 702.715 225.538 702.868 224.637Z" fill="#2F2E41"/>
<path d="M371 52C385.359 52 397 40.3594 397 26C397 11.6406 385.359 0 371 0C356.641 0 345 11.6406 345 26C345 40.3594 356.641 52 371 52Z" fill="#0A1E3B"/>
<path d="M328.03 191.243C327.942 190.892 319.237 155.714 317.751 118.665C316.875 96.851 318.636 78.6494 322.982 64.5645C328.475 46.7666 338.133 35.4902 351.688 31.0498L352.311 32.9502C322.944 42.5708 318.394 84.8286 319.749 118.585C321.228 155.431 329.883 190.409 329.97 190.757L328.03 191.243Z" fill="#2F2E41"/>
<path d="M438.424 387.913C424.605 406.043 440.444 441.351 440.444 441.351C440.444 441.351 478.687 447.263 492.506 429.133C506.325 411.003 490.486 375.695 490.486 375.695C490.486 375.695 452.243 369.782 438.424 387.913Z" fill="#3F3D56"/>
<path d="M175.571 417.587C187.012 430.926 216.181 424.674 216.181 424.674C216.181 424.674 226.801 396.797 215.359 383.458C203.918 370.12 174.749 376.371 174.749 376.371C174.749 376.371 164.129 404.249 175.571 417.587Z" fill="#3F3D56"/>
<path d="M488.522 465.879C376.709 405.077 288.593 408.305 234.365 421.721C175.664 436.242 142.995 465.447 142.672 465.74L141.328 464.26C141.654 463.963 174.699 434.421 233.885 419.779C268.624 411.186 305.454 409.318 343.363 414.227C390.712 420.36 439.872 437.148 489.478 464.121L488.522 465.879Z" fill="#2F2E41"/>
<path d="M316.5 287H314.5V412.556H316.5V287Z" fill="#2F2E41"/>
<path d="M316 395C355.765 395 388 362.765 388 323C388 283.235 355.765 251 316 251C276.235 251 244 283.235 244 323C244 362.765 276.235 395 316 395Z" fill="#3F3D56"/>
<path d="M316 256C345.823 256 370 231.823 370 202C370 172.177 345.823 148 316 148C286.177 148 262 172.177 262 202C262 231.823 286.177 256 316 256Z" fill="#3F3D56"/>
<path d="M316 154C339.196 154 358 135.196 358 112C358 88.804 339.196 70 316 70C292.804 70 274 88.804 274 112C274 135.196 292.804 154 316 154Z" fill="#3F3D56"/>
</svg>
