<svg width="942" height="600" viewBox="0 0 942 600" fill="none" xmlns="http://www.w3.org/2000/svg">
<path opacity="0.5" d="M469.159 597.539C598.649 597.539 703.621 582.189 703.621 563.254C703.621 544.319 598.649 528.969 469.159 528.969C339.669 528.969 234.696 544.319 234.696 563.254C234.696 582.189 339.669 597.539 469.159 597.539Z" fill="#DEE3F3"/>
<g opacity="0.45">
<path opacity="0.45" d="M412.845 206.48C412.847 206.863 412.878 207.246 412.937 207.626C412.878 207.246 412.847 206.863 412.845 206.48Z" fill="#1F4386"/>
<path opacity="0.45" d="M530.915 181.853C530.932 181.955 530.954 182.056 530.968 182.16C530.954 182.056 530.932 181.955 530.915 181.853Z" fill="#1F4386"/>
<path opacity="0.45" d="M530.669 180.838C530.702 180.944 530.734 181.051 530.763 181.159C530.734 181.051 530.702 180.944 530.669 180.838Z" fill="#1F4386"/>
<path opacity="0.45" d="M530.792 208.407C530.747 208.583 530.695 208.756 530.638 208.928C530.695 208.756 530.747 208.583 530.792 208.407Z" fill="#1F4386"/>
<path opacity="0.45" d="M530.956 207.566C530.93 207.753 530.899 207.939 530.859 208.122C530.899 207.939 530.93 207.753 530.956 207.566Z" fill="#1F4386"/>
<path opacity="0.45" d="M418.304 214.307C417.518 213.948 416.789 213.502 416.135 212.979C416.788 213.502 417.518 213.949 418.304 214.307V214.307Z" fill="#1F4386"/>
<path opacity="0.45" d="M416.056 212.916C415.749 212.665 415.46 212.399 415.19 212.117C415.46 212.399 415.749 212.665 416.056 212.916Z" fill="#1F4386"/>
<path opacity="0.45" d="M590.29 381.466C590.171 381.116 590.027 380.774 589.859 380.44C590.027 380.774 590.171 381.116 590.29 381.466V381.466Z" fill="#1F4386"/>
<path opacity="0.45" d="M585.247 376.149C585.647 376.331 586.033 376.536 586.402 376.763C586.033 376.536 585.647 376.331 585.247 376.149V376.149Z" fill="#1F4386"/>
<path opacity="0.45" d="M587.516 377.557C588.135 378.065 588.679 378.638 589.134 379.263C588.679 378.638 588.135 378.065 587.516 377.557Z" fill="#1F4386"/>
<path opacity="0.45" d="M586.438 376.786C586.774 376.995 587.095 377.222 587.399 377.465C587.095 377.222 586.774 376.995 586.438 376.786V376.786Z" fill="#1F4386"/>
<path opacity="0.45" d="M589.772 380.282C589.62 379.997 589.45 379.718 589.264 379.449C589.45 379.718 589.62 379.997 589.772 380.282V380.282Z" fill="#1F4386"/>
<path opacity="0.45" d="M590.569 382.554C590.515 382.26 590.443 381.969 590.354 381.682C590.443 381.969 590.515 382.26 590.569 382.554V382.554Z" fill="#1F4386"/>
<path opacity="0.45" d="M896.144 334.191H837.847C839.193 333.38 840.293 332.296 841.053 331.033C841.812 329.771 842.209 328.366 842.208 326.941V303.641C842.208 302.482 841.946 301.334 841.436 300.263C840.927 299.191 840.18 298.218 839.238 297.398C838.296 296.578 837.178 295.928 835.947 295.484C834.717 295.04 833.398 294.812 832.066 294.812H764.965C767.014 294.242 768.802 293.121 770.071 291.609C771.34 290.097 772.024 288.273 772.025 286.4V263.101C772.025 261.675 771.629 260.271 770.869 259.008C770.109 257.746 769.009 256.662 767.663 255.851H832.066C833.398 255.851 834.717 255.622 835.947 255.178C837.178 254.735 838.296 254.084 839.238 253.264C840.18 252.444 840.927 251.471 841.436 250.4C841.946 249.328 842.208 248.18 842.208 247.021V223.721C842.208 222.562 841.946 221.413 841.436 220.342C840.927 219.271 840.18 218.298 839.238 217.478C838.296 216.658 837.178 216.007 835.947 215.564C834.717 215.12 833.398 214.891 832.066 214.891H760.375C762.424 214.322 764.212 213.2 765.481 211.688C766.75 210.176 767.434 208.352 767.434 206.48V183.18C767.435 181.755 767.038 180.351 766.279 179.088C765.519 177.825 764.419 176.742 763.073 175.93H832.066C833.398 175.93 834.717 175.702 835.947 175.258C837.178 174.814 838.296 174.164 839.238 173.344C840.18 172.524 840.927 171.551 841.436 170.479C841.946 169.408 842.208 168.26 842.208 167.1V143.801C842.208 142.641 841.946 141.493 841.436 140.422C840.927 139.351 840.18 138.377 839.238 137.557C838.296 136.737 837.178 136.087 835.947 135.643C834.717 135.2 833.398 134.971 832.066 134.971H795.948C797.998 134.402 799.786 133.28 801.055 131.768C802.324 130.256 803.008 128.432 803.008 126.56V103.26C803.008 102.1 802.746 100.952 802.236 99.881C801.726 98.8097 800.979 97.8363 800.038 97.0164C799.096 96.1965 797.978 95.5461 796.747 95.1023C795.516 94.6586 794.197 94.4302 792.866 94.4302H694.954C693.622 94.4302 692.303 94.6586 691.073 95.1023C689.842 95.5461 688.724 96.1965 687.782 97.0164C686.84 97.8363 686.093 98.8097 685.584 99.881C685.074 100.952 684.812 102.1 684.812 103.26C684.812 102.1 684.549 100.952 684.039 99.881C683.53 98.8097 682.783 97.8363 681.841 97.0164C680.899 96.1965 679.781 95.5461 678.55 95.1023C677.32 94.6586 676.001 94.4302 674.669 94.4302H576.758C574.825 94.431 572.933 94.9127 571.305 95.8185C569.676 96.7244 568.379 98.0166 567.567 99.5429C567.696 100.109 567.762 100.685 567.762 101.262V124.562C567.761 125.844 567.437 127.111 566.814 128.273C567.27 130.284 568.518 132.094 570.343 133.391H595.489C597.831 133.389 600.102 134.095 601.912 135.389H612.875C610.826 135.959 609.038 137.081 607.769 138.592C606.5 140.104 605.816 141.928 605.815 143.801C605.813 143.239 605.75 142.679 605.626 142.128C605.626 142.159 605.631 142.19 605.631 142.221V165.521C605.628 166.264 605.517 167.004 605.3 167.722C605.463 167.872 605.609 168.036 605.736 168.21C605.789 167.842 605.815 167.471 605.815 167.1C605.821 167.612 605.878 168.123 605.985 168.626C606.12 168.907 606.196 169.206 606.212 169.51C606.853 171.474 608.253 173.184 610.177 174.35H601.453C601.532 174.303 601.601 174.246 601.678 174.197C600.867 174.215 600.052 174.138 599.241 174.129C598.951 174.126 598.665 174.075 598.398 173.977C597.454 174.224 596.474 174.35 595.489 174.35L535.403 175.93C534.056 176.742 532.956 177.825 532.197 179.088C531.437 180.351 531.041 181.755 531.041 183.18V206.48C531.041 208.352 531.726 210.176 532.995 211.688C534.263 213.2 536.052 214.322 538.101 214.891L595.489 215.31C596.497 215.309 597.501 215.44 598.465 215.698C599.106 215.746 599.74 215.843 600.361 215.988C600.409 215.979 600.457 215.975 600.505 215.966C599.947 215.7 599.361 215.48 598.755 215.31H612.875C610.826 215.879 609.038 217.001 607.769 218.513C606.5 220.025 605.816 221.849 605.815 223.721C605.814 223.209 605.763 222.698 605.66 222.194C605.593 222.278 605.519 222.357 605.438 222.431C605.565 222.994 605.63 223.566 605.631 224.139V247.439C605.631 248.52 605.815 248.26 605.815 247.021C605.815 248.446 606.211 249.85 606.971 251.113C607.731 252.376 608.831 253.459 610.177 254.271L645.98 255.27C647.208 255.272 648.426 255.468 649.573 255.851H658.189C656.647 256.789 655.434 258.081 654.684 259.583C655.625 260.947 656.123 262.509 656.123 264.1V287.399C656.123 288.616 655.834 289.819 655.273 290.933C656.541 292.776 658.537 294.155 660.888 294.812H651.48C649.843 295.737 647.932 296.23 645.98 296.229H610.463C609.037 297.027 607.865 298.124 607.053 299.419C606.241 300.714 605.815 302.166 605.815 303.641C605.815 300.53 604.484 331.194 604.484 331.194C604.484 333.948 659.751 335.19 659.751 335.19C661.155 335.19 662.544 335.445 663.829 335.939C664.406 335.831 664.996 335.787 665.585 335.807C665.566 335.796 665.55 335.782 665.532 335.771H674.255C672.909 336.582 671.809 337.666 671.049 338.929C670.29 340.191 669.893 341.596 669.894 343.021C669.891 342.599 669.853 342.179 669.782 341.762C669.733 341.858 669.684 341.952 669.629 342.043C669.803 342.691 669.891 343.354 669.894 344.02V366.321C669.893 367.48 670.156 368.628 670.666 369.7C671.175 370.771 671.922 371.744 672.864 372.564C673.806 373.384 674.924 374.034 676.155 374.478C677.385 374.922 678.704 375.15 680.036 375.15H664.426C662.983 375.807 661.379 376.15 659.751 376.149H596.18C594.533 376.894 593.152 378.018 592.187 379.398C591.223 380.779 590.713 382.364 590.713 383.98V407.28C590.713 408.439 590.976 409.587 591.485 410.659C591.995 411.73 592.742 412.703 593.684 413.523C594.626 414.343 595.744 414.994 596.974 415.437C598.205 415.881 599.524 416.109 600.856 416.109H698.767C700.099 416.11 701.418 415.881 702.649 415.437C703.879 414.994 704.997 414.343 705.939 413.523C706.881 412.703 707.628 411.73 708.138 410.659C708.648 409.587 708.91 408.439 708.91 407.28C708.91 408.439 709.172 409.587 709.682 410.659C710.192 411.73 710.939 412.703 711.881 413.523C712.822 414.343 713.941 414.994 715.171 415.437C716.402 415.881 717.721 416.11 719.053 416.109H816.964C818.296 416.11 819.615 415.881 820.845 415.437C822.076 414.994 823.194 414.343 824.136 413.523C825.078 412.703 825.825 411.73 826.335 410.659C826.844 409.587 827.107 408.439 827.107 407.28V383.98C827.107 382.821 826.844 381.672 826.335 380.601C825.825 379.53 825.078 378.556 824.136 377.736C823.194 376.917 822.076 376.266 820.845 375.822C819.615 375.379 818.296 375.15 816.964 375.15H896.144C897.476 375.15 898.795 374.922 900.026 374.478C901.256 374.034 902.374 373.384 903.316 372.564C904.258 371.744 905.005 370.771 905.515 369.7C906.025 368.628 906.287 367.48 906.287 366.321V343.021C906.287 341.861 906.025 340.713 905.515 339.642C905.005 338.571 904.258 337.597 903.316 336.777C902.374 335.957 901.256 335.307 900.026 334.863C898.795 334.42 897.476 334.191 896.144 334.191V334.191ZM653.599 175.93C652.253 176.742 651.153 177.825 650.394 179.088C649.634 180.351 649.237 181.755 649.238 183.18C649.238 181.755 648.842 180.351 648.082 179.088C647.322 177.825 646.222 176.742 644.876 175.93H653.599ZM642.178 214.891C644.227 214.322 646.015 213.2 647.284 211.688C648.553 210.176 649.237 208.352 649.238 206.48C649.238 208.352 649.922 210.176 651.191 211.688C652.46 213.2 654.248 214.322 656.298 214.891H642.178ZM677.752 134.971C679.801 134.402 681.589 133.28 682.858 131.768C684.127 130.256 684.811 128.432 684.812 126.56C684.812 128.432 685.496 130.256 686.765 131.768C688.034 133.28 689.822 134.402 691.871 134.971H677.752ZM708.91 383.98C708.91 382.821 708.648 381.672 708.138 380.601C707.628 379.53 706.881 378.556 705.939 377.736C704.997 376.917 703.879 376.266 702.649 375.822C701.418 375.379 700.099 375.15 698.767 375.15H719.053C717.721 375.15 716.402 375.379 715.171 375.822C713.941 376.266 712.822 376.917 711.881 377.736C710.939 378.556 710.192 379.53 709.682 380.601C709.172 381.672 708.91 382.821 708.91 383.98V383.98ZM719.65 334.191C720.996 333.38 722.096 332.296 722.856 331.033C723.616 329.771 724.012 328.366 724.012 326.941C724.011 328.366 724.408 329.771 725.168 331.033C725.927 332.296 727.027 333.38 728.373 334.191H719.65ZM724.012 303.641C724.011 301.769 723.327 299.945 722.058 298.433C720.789 296.921 719.001 295.799 716.952 295.23H731.072C729.022 295.799 727.234 296.921 725.965 298.433C724.696 299.945 724.012 301.769 724.012 303.641V303.641ZM719.65 254.271C720.996 253.459 722.096 252.376 722.856 251.113C723.616 249.85 724.012 248.446 724.012 247.021C724.011 248.446 724.408 249.85 725.168 251.113C725.927 252.376 727.027 253.459 728.373 254.271H719.65ZM724.012 223.721C724.011 221.849 723.327 220.025 722.058 218.513C720.789 217.001 719.001 215.879 716.952 215.31H731.072C729.022 215.879 727.234 217.001 725.965 218.513C724.696 220.025 724.012 221.849 724.012 223.721V223.721ZM719.65 174.351C720.996 173.539 722.096 172.456 722.856 171.193C723.616 169.93 724.012 168.526 724.012 167.1C724.011 168.526 724.408 169.93 725.168 171.193C725.927 172.456 727.027 173.539 728.373 174.351H719.65ZM724.012 143.801C724.011 141.928 723.327 140.104 722.058 138.592C720.789 137.081 719.001 135.959 716.952 135.389H731.072C729.022 135.959 727.234 137.081 725.965 138.592C724.696 140.104 724.012 141.928 724.012 143.801V143.801ZM792.452 335.771C791.106 336.582 790.006 337.666 789.246 338.929C788.486 340.191 788.09 341.596 788.09 343.021C788.091 341.596 787.694 340.191 786.934 338.929C786.175 337.666 785.075 336.582 783.729 335.771H792.452ZM777.948 375.15C779.279 375.15 780.598 374.922 781.829 374.478C783.06 374.034 784.178 373.384 785.12 372.564C786.061 371.744 786.808 370.771 787.318 369.7C787.828 368.628 788.09 367.48 788.09 366.321C788.09 367.48 788.353 368.628 788.862 369.7C789.372 370.771 790.119 371.744 791.061 372.564C792.003 373.384 793.121 374.034 794.351 374.478C795.582 374.922 796.901 375.15 798.233 375.15H777.948Z" fill="#1F4386"/>
<path opacity="0.45" d="M590.713 383.98C590.71 383.604 590.68 383.229 590.622 382.856C590.68 383.229 590.71 383.604 590.713 383.98Z" fill="#1F4386"/>
<path opacity="0.45" d="M531.041 206.48C531.041 206.76 531.022 207.035 530.993 207.309C531.023 207.035 531.041 206.76 531.041 206.48Z" fill="#1F4386"/>
<path opacity="0.45" d="M412.962 207.797C413.024 208.151 413.11 208.502 413.221 208.847C413.11 208.502 413.024 208.151 412.962 207.797V207.797Z" fill="#1F4386"/>
<path opacity="0.45" d="M299.456 259.858C299.288 259.728 299.142 259.577 299.024 259.411C298.877 259.183 298.78 258.933 298.736 258.674C298.711 259.279 298.721 259.885 298.767 260.49C299.075 261.334 299.234 262.215 299.238 263.101C299.243 262.24 299.392 261.384 299.683 260.561C299.591 260.361 299.519 260.154 299.469 259.943C299.462 259.914 299.462 259.887 299.456 259.858Z" fill="#1F4386"/>
<path opacity="0.45" d="M438.276 94.4302H340.364C339.032 94.4302 337.713 94.6586 336.483 95.1024C335.252 95.5461 334.134 96.1965 333.192 97.0164C332.25 97.8363 331.503 98.8097 330.994 99.881C330.484 100.952 330.222 102.1 330.222 103.26C330.222 102.1 329.959 100.952 329.45 99.881C328.94 98.8097 328.193 97.8363 327.251 97.0164C326.309 96.1965 325.191 95.5461 323.96 95.1024C322.73 94.6586 321.411 94.4302 320.079 94.4302H222.168C220.836 94.4302 219.517 94.6586 218.286 95.1024C217.056 95.5461 215.937 96.1965 214.996 97.0164C214.054 97.8363 213.307 98.8097 212.797 99.881C212.287 100.952 212.025 102.1 212.025 103.26V126.56C212.025 128.432 212.709 130.256 213.978 131.768C215.247 133.28 217.036 134.402 219.085 134.971H143.171C141.839 134.971 140.52 135.2 139.29 135.643C138.059 136.087 136.941 136.737 135.999 137.557C135.057 138.377 134.31 139.351 133.801 140.422C133.291 141.493 133.028 142.641 133.028 143.801V167.1C133.028 168.526 133.425 169.93 134.184 171.193C134.944 172.456 136.044 173.539 137.39 174.351H68.3971C67.0651 174.351 65.7462 174.579 64.5156 175.023C63.2851 175.466 62.1669 176.117 61.2251 176.937C60.2833 177.757 59.5362 178.73 59.0264 179.801C58.5167 180.873 58.2544 182.021 58.2544 183.18V206.48C58.2544 207.639 58.5167 208.788 59.0264 209.859C59.5362 210.93 60.2833 211.904 61.2251 212.724C62.1669 213.543 63.2851 214.194 64.5156 214.638C65.7462 215.081 67.0651 215.31 68.3971 215.31H140.088C138.039 215.879 136.251 217.001 134.982 218.513C133.713 220.025 133.029 221.849 133.029 223.721V247.021C133.028 248.446 133.425 249.85 134.184 251.113C134.944 252.376 136.044 253.459 137.39 254.271H72.9872C71.6553 254.271 70.3364 254.499 69.1058 254.943C67.8752 255.387 66.7571 256.037 65.8153 256.857C64.8734 257.677 64.1263 258.65 63.6166 259.722C63.1069 260.793 62.8445 261.941 62.8446 263.101V286.4C62.8446 287.56 63.1069 288.708 63.6166 289.779C64.1263 290.85 64.8734 291.824 65.8153 292.644C66.7571 293.464 67.8752 294.114 69.1058 294.558C70.3364 295.002 71.6553 295.23 72.9872 295.23H140.088C138.039 295.799 136.251 296.921 134.982 298.433C133.713 299.945 133.029 301.769 133.029 303.642V326.941C133.029 328.101 133.291 329.249 133.801 330.32C134.31 331.391 135.057 332.365 135.999 333.185C136.941 334.005 138.059 334.655 139.29 335.099C140.52 335.542 141.839 335.771 143.171 335.771H201.468C200.122 336.582 199.022 337.666 198.263 338.929C197.503 340.191 197.106 341.596 197.107 343.021V366.321C197.107 368.662 198.175 370.908 200.078 372.564C201.98 374.22 204.56 375.15 207.25 375.15H128.069C126.737 375.15 125.418 375.379 124.188 375.822C122.957 376.266 121.839 376.917 120.897 377.737C119.955 378.556 119.208 379.53 118.699 380.601C118.189 381.672 117.927 382.821 117.927 383.98V407.28C117.927 408.439 118.189 409.587 118.699 410.659C119.208 411.73 119.955 412.703 120.897 413.523C121.839 414.343 122.957 414.994 124.188 415.437C125.418 415.881 126.737 416.109 128.069 416.109H225.981C227.313 416.109 228.631 415.881 229.862 415.437C231.093 414.994 232.211 414.343 233.153 413.523C234.094 412.703 234.841 411.73 235.351 410.659C235.861 409.587 236.123 408.439 236.123 407.28C236.123 408.439 236.386 409.587 236.895 410.659C237.405 411.73 238.152 412.703 239.094 413.523C240.036 414.343 241.154 414.994 242.384 415.437C243.615 415.881 244.934 416.109 246.266 416.109H344.177C345.509 416.109 346.828 415.881 348.059 415.437C349.289 414.994 350.407 414.343 351.349 413.523C352.291 412.703 353.038 411.73 353.548 410.659C354.058 409.587 354.32 408.439 354.32 407.28V383.98C354.32 382.364 353.81 380.779 352.846 379.398C351.882 378.018 350.5 376.894 348.853 376.149H327.741C326.113 376.15 324.509 375.807 323.066 375.15H305.161C307.851 375.15 310.431 374.22 312.333 372.564C314.235 370.908 315.304 368.662 315.304 366.321C315.304 370.163 317.599 344.02 317.599 344.02C317.599 342.86 317.861 341.712 318.371 340.641C318.88 339.57 319.628 338.596 320.569 337.776C321.511 336.956 322.629 336.306 323.86 335.862C325.09 335.419 326.409 335.19 327.741 335.19L365.06 334.191C366.124 333.542 367.037 332.723 367.748 331.776C367.219 330.695 366.946 329.533 366.943 328.358V305.059C366.941 303.331 367.525 301.641 368.621 300.2C367.823 298.571 366.484 297.188 364.774 296.229H311.676C309.724 296.23 307.813 295.737 306.176 294.812H292.178C294.227 294.242 296.015 293.121 297.284 291.609C298.553 290.097 299.238 288.273 299.238 286.4L298.878 263.271C298.878 262.228 298.815 261.306 298.767 260.49C298.099 258.61 296.73 256.977 294.876 255.851H303.6C303.534 255.89 303.476 255.938 303.411 255.98C308.356 255.733 364.843 252.848 369.435 249.631C369.318 249.02 369.295 248.398 369.367 247.782C369.285 247.338 369.242 246.89 369.238 246.44V223.141C369.238 222.851 369.256 222.566 369.288 222.284C368.982 220.679 368.174 219.179 366.952 217.949C365.73 216.718 364.142 215.805 362.362 215.31H374.705C376.148 214.653 377.752 214.31 379.381 214.311H407.377C409.025 213.567 410.406 212.443 411.37 211.062C412.334 209.681 412.844 208.096 412.845 206.48V183.18C412.845 181.755 412.448 180.351 411.689 179.088C410.929 177.825 409.829 176.742 408.483 175.93L379.381 174.351C374.449 174.351 371.186 172.778 373.784 174.351H365.06C366.397 173.544 367.492 172.469 368.25 171.216C369.009 169.963 369.409 168.569 369.418 167.153C369.3 166.615 369.24 166.068 369.238 165.521V142.221C369.238 142.202 369.241 142.184 369.241 142.165C368.902 140.601 368.083 139.146 366.872 137.953C365.662 136.761 364.103 135.875 362.362 135.389H372.957C374.767 134.095 377.038 133.389 379.381 133.391H444.69C445.856 132.565 446.795 131.524 447.44 130.342C448.085 129.16 448.419 127.868 448.418 126.56V103.26C448.418 102.1 448.156 100.952 447.646 99.881C447.137 98.8097 446.389 97.8364 445.448 97.0164C444.506 96.1965 443.388 95.5461 442.157 95.1024C440.927 94.6586 439.608 94.4302 438.276 94.4302V94.4302ZM180.813 175.93C179.467 176.742 178.367 177.825 177.607 179.088C176.847 180.351 176.451 181.755 176.451 183.18C176.452 181.755 176.055 180.351 175.295 179.088C174.536 177.825 173.436 176.742 172.09 175.93H180.813ZM176.451 206.48C176.452 208.352 177.136 210.176 178.405 211.688C179.674 213.2 181.462 214.322 183.511 214.891H169.391C171.44 214.322 173.229 213.2 174.498 211.688C175.767 210.176 176.451 208.352 176.451 206.48V206.48ZM185.403 255.851C184.057 256.662 182.957 257.746 182.197 259.008C181.437 260.271 181.041 261.675 181.041 263.101C181.042 261.675 180.645 260.271 179.886 259.008C179.126 257.746 178.026 256.662 176.68 255.851H185.403ZM173.981 294.812C176.031 294.242 177.819 293.121 179.088 291.609C180.357 290.097 181.041 288.273 181.041 286.4C181.042 288.273 181.726 290.097 182.995 291.609C184.264 293.121 186.052 294.242 188.101 294.812H173.981ZM299.009 175.93C297.663 176.742 296.563 177.825 295.804 179.088C295.044 180.351 294.647 181.755 294.648 183.18C294.648 181.755 294.252 180.351 293.492 179.088C292.732 177.825 291.632 176.742 290.286 175.93H299.009ZM236.123 383.98C236.123 382.821 235.861 381.672 235.351 380.601C234.841 379.53 234.094 378.556 233.153 377.737C232.211 376.917 231.093 376.266 229.862 375.822C228.631 375.379 227.313 375.15 225.981 375.15H246.266C244.934 375.15 243.615 375.379 242.384 375.822C241.154 376.266 240.036 376.917 239.094 377.737C238.152 378.556 237.405 379.53 236.895 380.601C236.386 381.672 236.123 382.821 236.123 383.98V383.98ZM246.864 334.191C248.21 333.38 249.31 332.296 250.069 331.033C250.829 329.771 251.226 328.366 251.225 326.941C251.225 328.366 251.621 329.771 252.381 331.033C253.141 332.296 254.241 333.38 255.587 334.191H246.864ZM251.225 303.642C251.225 301.769 250.541 299.945 249.272 298.433C248.003 296.921 246.215 295.799 244.166 295.23H258.285C256.236 295.799 254.448 296.921 253.179 298.433C251.91 299.945 251.226 301.769 251.225 303.642V303.642ZM246.864 254.271C248.21 253.459 249.31 252.376 250.069 251.113C250.829 249.85 251.226 248.446 251.225 247.021C251.225 248.446 251.621 249.85 252.381 251.113C253.141 252.376 254.241 253.459 255.587 254.271H246.864ZM251.225 223.721C251.225 221.849 250.541 220.025 249.272 218.513C248.003 217.001 246.215 215.879 244.166 215.31H258.285C256.236 215.879 254.448 217.001 253.179 218.513C251.91 220.025 251.226 221.849 251.225 223.721V223.721ZM246.864 174.351C248.21 173.539 249.31 172.456 250.069 171.193C250.829 169.93 251.226 168.526 251.225 167.1C251.225 168.526 251.621 169.93 252.381 171.193C253.141 172.456 254.241 173.539 255.587 174.351H246.864ZM251.225 143.801C251.225 141.928 250.541 140.104 249.272 138.592C248.003 137.081 246.215 135.959 244.166 135.389H258.285C256.236 135.959 254.448 137.081 253.179 138.592C251.91 140.104 251.226 141.928 251.225 143.801V143.801ZM287.588 214.891C289.637 214.322 291.425 213.2 292.694 211.688C293.963 210.176 294.647 208.352 294.648 206.48C294.648 208.352 295.332 210.176 296.601 211.688C297.87 213.2 299.659 214.322 301.708 214.891H287.588ZM323.162 134.971C325.211 134.402 326.999 133.28 328.268 131.768C329.537 130.256 330.221 128.432 330.222 126.56C330.222 128.432 330.906 130.256 332.175 131.768C333.444 133.28 335.232 134.402 337.281 134.971H323.162Z" fill="#1F4386"/>
<path opacity="0.45" d="M416.179 176.649C416.227 176.611 416.273 176.572 416.322 176.535C416.273 176.572 416.227 176.611 416.179 176.649Z" fill="#1F4386"/>
<path opacity="0.45" d="M415.504 177.234C415.454 177.282 415.404 177.328 415.355 177.377C415.404 177.328 415.454 177.282 415.504 177.234Z" fill="#1F4386"/>
<path opacity="0.45" d="M414.654 178.154C414.677 178.125 414.703 178.098 414.726 178.069C414.703 178.098 414.677 178.125 414.654 178.154Z" fill="#1F4386"/>
<path opacity="0.45" d="M413.281 209.026C413.399 209.37 413.54 209.707 413.705 210.036C413.54 209.707 413.399 209.37 413.281 209.026V209.026Z" fill="#1F4386"/>
<path opacity="0.45" d="M414.362 211.123C414.59 211.44 414.84 211.743 415.112 212.032C414.84 211.743 414.59 211.44 414.362 211.123Z" fill="#1F4386"/>
<path opacity="0.45" d="M413.756 210.129C413.932 210.468 414.133 210.797 414.357 211.114C414.133 210.797 413.932 210.468 413.756 210.129V210.129Z" fill="#1F4386"/>
<path opacity="0.45" d="M413.122 181.159C413.151 181.051 413.183 180.944 413.216 180.838C413.183 180.944 413.151 181.051 413.122 181.159Z" fill="#1F4386"/>
<path opacity="0.45" d="M413.465 180.164C413.501 180.076 413.535 179.987 413.575 179.9C413.535 179.987 413.502 180.076 413.465 180.164Z" fill="#1F4386"/>
<path opacity="0.45" d="M412.917 182.16C412.931 182.056 412.953 181.955 412.971 181.853C412.953 181.955 412.931 182.056 412.917 182.16Z" fill="#1F4386"/>
<path opacity="0.45" d="M414.023 179.053C414.03 179.043 414.035 179.032 414.041 179.022C414.035 179.032 414.03 179.043 414.023 179.053Z" fill="#1F4386"/>
<path opacity="0.1" d="M221.267 135.389H323.274C327.745 135.389 331.369 132.234 331.369 128.342V101.477C331.369 97.5854 327.745 94.4303 323.274 94.4303L221.267 94.4303C216.797 94.4303 213.172 97.5854 213.172 101.477V128.342C213.172 132.234 216.797 135.389 221.267 135.389Z" fill="black"/>
<path opacity="0.1" d="M574.71 135.389H676.717C681.187 135.389 684.812 132.234 684.812 128.342V101.477C684.812 97.5854 681.187 94.4303 676.717 94.4303L574.71 94.4303C570.239 94.4303 566.615 97.5854 566.615 101.477V128.342C566.615 132.234 570.239 135.389 574.71 135.389Z" fill="black"/>
<path opacity="0.1" d="M731.923 175.35H833.93C838.401 175.35 842.025 172.194 842.025 168.302V141.438C842.025 137.546 838.401 134.39 833.93 134.39H731.923C727.452 134.39 723.828 137.546 723.828 141.438V168.302C723.828 172.194 727.452 175.35 731.923 175.35Z" fill="black"/>
<path opacity="0.1" d="M539.136 215.31H641.143C645.614 215.31 649.238 212.155 649.238 208.263V181.398C649.238 177.506 645.614 174.351 641.143 174.351H539.136C534.665 174.351 531.041 177.506 531.041 181.398V208.263C531.041 212.155 534.665 215.31 539.136 215.31Z" fill="black"/>
<path opacity="0.1" d="M731.923 256.269H833.93C838.401 256.269 842.025 253.114 842.025 249.222V222.357C842.025 218.465 838.401 215.31 833.93 215.31H731.923C727.452 215.31 723.828 218.465 723.828 222.357V249.222C723.828 253.114 727.452 256.269 731.923 256.269Z" fill="black"/>
<path opacity="0.1" d="M731.923 336.189H833.93C838.401 336.189 842.025 333.034 842.025 329.142V302.277C842.025 298.385 838.401 295.23 833.93 295.23H731.923C727.452 295.23 723.828 298.385 723.828 302.277V329.142C723.828 333.034 727.452 336.189 731.923 336.189Z" fill="black"/>
<path opacity="0.1" d="M780.706 335.19H677.278C675.682 335.191 674.128 335.642 672.851 336.476C671.573 337.31 670.641 338.482 670.193 339.817C670.221 340.18 670.193 340.544 670.11 340.901C670.056 341.11 669.986 341.316 669.9 341.516C669.899 341.551 669.894 341.584 669.894 341.619V369.721C669.894 371.426 670.672 373.061 672.057 374.266C673.442 375.472 675.32 376.149 677.278 376.149H780.706C782.664 376.149 784.543 375.472 785.928 374.266C787.312 373.061 788.09 371.426 788.09 369.721V341.619C788.09 340.775 787.899 339.939 787.528 339.159C787.157 338.379 786.613 337.67 785.928 337.073C785.242 336.476 784.428 336.003 783.532 335.679C782.636 335.356 781.676 335.19 780.706 335.19V335.19Z" fill="black"/>
<path opacity="0.1" d="M598.808 416.109H700.815C705.286 416.109 708.91 412.954 708.91 409.062V382.198C708.91 378.305 705.286 375.15 700.815 375.15H598.808C594.338 375.15 590.713 378.305 590.713 382.198V409.062C590.713 412.954 594.338 416.109 598.808 416.109Z" fill="black"/>
<path opacity="0.1" d="M259.137 175.35H361.143C365.614 175.35 369.238 172.194 369.238 168.302V141.438C369.238 137.546 365.614 134.39 361.143 134.39H259.137C254.666 134.39 251.042 137.546 251.042 141.438V168.302C251.042 172.194 254.666 175.35 259.137 175.35Z" fill="black"/>
<path opacity="0.1" d="M185.694 215.31H287.7C292.171 215.31 295.795 212.155 295.795 208.263V181.398C295.795 177.506 292.171 174.351 287.7 174.351H185.694C181.223 174.351 177.599 177.506 177.599 181.398V208.263C177.599 212.155 181.223 215.31 185.694 215.31Z" fill="black"/>
<path opacity="0.1" d="M140.939 256.269H242.946C247.417 256.269 251.041 253.114 251.041 249.222V222.357C251.041 218.465 247.417 215.31 242.946 215.31H140.939C136.469 215.31 132.844 218.465 132.844 222.357V249.222C132.844 253.114 136.469 256.269 140.939 256.269Z" fill="black"/>
<path opacity="0.1" d="M189.136 296.229H291.143C295.614 296.229 299.238 293.074 299.238 289.182V262.317C299.238 258.425 295.614 255.27 291.143 255.27H189.136C184.665 255.27 181.041 258.425 181.041 262.317V289.182C181.041 293.074 184.665 296.229 189.136 296.229Z" fill="black"/>
<path opacity="0.1" d="M140.939 336.189H242.946C247.417 336.189 251.041 333.034 251.041 329.142V302.277C251.041 298.385 247.417 295.23 242.946 295.23H140.939C136.469 295.23 132.844 298.385 132.844 302.277V329.142C132.844 333.034 136.469 336.189 140.939 336.189Z" fill="black"/>
<path opacity="0.45" d="M87.4676 376.194H189.474C193.945 376.194 197.569 373.038 197.569 369.146V342.282C197.569 338.39 193.945 335.234 189.474 335.234H87.4676C82.9969 335.234 79.3726 338.39 79.3726 342.282V369.146C79.3726 373.038 82.9969 376.194 87.4676 376.194Z" fill="#1F4386"/>
<path opacity="0.45" d="M777.591 296.185H879.597C884.068 296.185 887.692 293.03 887.692 289.138V262.273C887.692 258.381 884.068 255.226 879.597 255.226H777.591C773.12 255.226 769.496 258.381 769.496 262.273V289.138C769.496 293.03 773.12 296.185 777.591 296.185Z" fill="#1F4386"/>
<path opacity="0.45" d="M772.578 215.448H874.584C879.055 215.448 882.679 212.293 882.679 208.401V181.537C882.679 177.644 879.055 174.489 874.584 174.489H772.578C768.107 174.489 764.483 177.644 764.483 181.537V208.401C764.483 212.293 768.107 215.448 772.578 215.448Z" fill="#1F4386"/>
<path opacity="0.45" d="M831.898 415.471H933.905C938.376 415.471 942 412.316 942 408.424V381.559C942 377.667 938.376 374.512 933.905 374.512H831.898C827.428 374.512 823.803 377.667 823.803 381.559V408.424C823.803 412.316 827.428 415.471 831.898 415.471Z" fill="#1F4386"/>
<path opacity="0.45" d="M8.09508 416.198H110.102C114.573 416.198 118.197 413.043 118.197 409.151V382.286C118.197 378.394 114.573 375.239 110.102 375.239H8.09508C3.62433 375.239 7.62939e-05 378.394 7.62939e-05 382.286V409.151C7.62939e-05 413.043 3.62433 416.198 8.09508 416.198Z" fill="#1F4386"/>
<path opacity="0.45" d="M23.9696 335.462H125.976C130.447 335.462 134.071 332.307 134.071 328.415V301.55C134.071 297.658 130.447 294.503 125.976 294.503H23.9696C19.4988 294.503 15.8746 297.658 15.8746 301.55V328.415C15.8746 332.307 19.4988 335.462 23.9696 335.462Z" fill="#1F4386"/>
<path opacity="0.45" d="M23.9696 256.18H125.976C130.447 256.18 134.071 253.025 134.071 249.133V222.268C134.071 218.376 130.447 215.221 125.976 215.221H23.9696C19.4988 215.221 15.8746 218.376 15.8746 222.268V249.133C15.8746 253.025 19.4988 256.18 23.9696 256.18Z" fill="#1F4386"/>
<path opacity="0.45" d="M28.1468 175.444H130.154C134.624 175.444 138.249 172.289 138.249 168.397V141.532C138.249 137.64 134.624 134.485 130.154 134.485H28.1468C23.6761 134.485 20.0518 137.64 20.0518 141.532V168.397C20.0518 172.289 23.6761 175.444 28.1468 175.444Z" fill="#1F4386"/>
<path opacity="0.1" d="M28.1468 175.444H130.154C134.624 175.444 138.249 172.289 138.249 168.397V141.532C138.249 137.64 134.624 134.485 130.154 134.485H28.1468C23.6761 134.485 20.0518 137.64 20.0518 141.532V168.397C20.0518 172.289 23.6761 175.444 28.1468 175.444Z" fill="black"/>
<path opacity="0.45" d="M103.342 135.44H205.349C209.82 135.44 213.444 132.284 213.444 128.392V101.528C213.444 97.6356 209.82 94.4805 205.349 94.4805L103.342 94.4805C98.8714 94.4805 95.2471 97.6356 95.2471 101.528V128.392C95.2471 132.284 98.8714 135.44 103.342 135.44Z" fill="#1F4386"/>
<path opacity="0.1" d="M206.35 376.149H308.356C312.827 376.149 316.451 372.994 316.451 369.102V342.237C316.451 338.345 312.827 335.19 308.356 335.19H206.35C201.879 335.19 198.254 338.345 198.254 342.237V369.102C198.254 372.994 201.879 376.149 206.35 376.149Z" fill="black"/>
<path opacity="0.1" d="M126.021 416.109H228.028C232.499 416.109 236.123 412.954 236.123 409.062V382.198C236.123 378.305 232.499 375.15 228.028 375.15H126.021C121.551 375.15 117.926 378.305 117.926 382.198V409.062C117.926 412.954 121.551 416.109 126.021 416.109Z" fill="black"/>
</g>
<path opacity="0.5" d="M742.161 46.1175C756.789 46.1175 768.648 35.7937 768.648 23.0587C768.648 10.3238 756.789 0 742.161 0C727.532 0 715.674 10.3238 715.674 23.0587C715.674 35.7937 727.532 46.1175 742.161 46.1175Z" fill="#1F4386"/>
<path opacity="0.5" d="M230.743 64.865H224.441C225.022 64.8664 225.597 64.7682 226.133 64.5758C226.67 64.3835 227.158 64.1009 227.569 63.7441C227.98 63.3874 228.306 62.9635 228.528 62.4969C228.751 62.0302 228.865 61.53 228.865 61.0247C228.865 60.5195 228.751 60.0192 228.528 59.5525C228.306 59.0859 227.98 58.662 227.569 58.3053C227.158 57.9485 226.67 57.6659 226.133 57.4736C225.597 57.2812 225.022 57.183 224.441 57.1844H173.396C172.816 57.183 172.241 57.2812 171.704 57.4736C171.168 57.6659 170.68 57.9485 170.269 58.3053C169.858 58.662 169.532 59.0859 169.309 59.5525C169.087 60.0192 168.972 60.5195 168.972 61.0247C168.972 61.53 169.087 62.0302 169.309 62.4969C169.532 62.9635 169.858 63.3874 170.269 63.7441C170.68 64.1009 171.168 64.3835 171.704 64.5758C172.241 64.7682 172.816 64.8664 173.396 64.865H179.698C179.118 64.864 178.544 64.9625 178.007 65.1551C177.471 65.3476 176.984 65.6303 176.573 65.987C176.163 66.3437 175.837 66.7674 175.615 67.2339C175.392 67.7003 175.278 68.2003 175.278 68.7053C175.278 69.2102 175.392 69.7103 175.615 70.1767C175.837 70.6431 176.163 71.0668 176.573 71.4235C176.984 71.7802 177.471 72.0629 178.007 72.2555C178.544 72.448 179.118 72.5466 179.698 72.5456H170.876C169.708 72.5485 168.589 72.9544 167.765 73.6743C166.94 74.3941 166.477 75.3692 166.477 76.3858C166.477 77.4024 166.94 78.3776 167.765 79.0974C168.589 79.8173 169.708 80.2232 170.876 80.2261H221.921C223.088 80.2232 224.207 79.8173 225.032 79.0974C225.856 78.3776 226.319 77.4024 226.319 76.3858C226.319 75.3692 225.856 74.3941 225.032 73.6743C224.207 72.9544 223.088 72.5485 221.921 72.5456H230.743C231.912 72.5435 233.031 72.138 233.857 71.418C234.682 70.698 235.145 69.7224 235.145 68.7053C235.145 67.6881 234.682 66.7125 233.857 65.9925C233.031 65.2726 231.912 64.8671 230.743 64.865V64.865Z" fill="#DEE3F3"/>
<path opacity="0.5" d="M738.803 20.2877H734.007C734.898 20.2877 735.752 19.9798 736.381 19.4317C737.011 18.8836 737.365 18.1402 737.365 17.365C737.365 16.5899 737.011 15.8465 736.381 15.2984C735.752 14.7503 734.898 14.4423 734.007 14.4423H695.159C694.269 14.4423 693.415 14.7503 692.785 15.2984C692.155 15.8465 691.802 16.5899 691.802 17.365C691.802 18.1402 692.155 18.8836 692.785 19.4317C693.415 19.9798 694.269 20.2877 695.159 20.2877H699.955C699.065 20.2877 698.211 20.5957 697.581 21.1438C696.952 21.6919 696.598 22.4353 696.598 23.2104C696.598 23.9856 696.952 24.729 697.581 25.2771C698.211 25.8252 699.065 26.1332 699.955 26.1332H693.241C692.8 26.1332 692.363 26.2088 691.956 26.3556C691.548 26.5025 691.178 26.7178 690.867 26.9892C690.555 27.2606 690.308 27.5828 690.139 27.9374C689.97 28.292 689.883 28.672 689.883 29.0559C689.883 29.4397 689.97 29.8197 690.139 30.1743C690.308 30.5289 690.555 30.8511 690.867 31.1225C691.178 31.3939 691.548 31.6092 691.956 31.7561C692.363 31.903 692.8 31.9786 693.241 31.9786H732.089C732.53 31.9786 732.966 31.903 733.374 31.7561C733.781 31.6092 734.151 31.3939 734.463 31.1225C734.775 30.8511 735.022 30.5289 735.191 30.1743C735.359 29.8197 735.446 29.4397 735.446 29.0559C735.446 28.672 735.359 28.292 735.191 27.9374C735.022 27.5828 734.775 27.2606 734.463 26.9892C734.151 26.7178 733.781 26.5025 733.374 26.3556C732.966 26.2088 732.53 26.1332 732.089 26.1332H738.804C739.694 26.1332 740.548 25.8252 741.177 25.2771C741.807 24.729 742.161 23.9856 742.161 23.2104C742.161 22.4353 741.807 21.6919 741.177 21.1438C740.548 20.5957 739.694 20.2877 738.804 20.2877H738.803Z" fill="#DEE3F3"/>
<path opacity="0.5" d="M351.638 10.6473H345.336C345.916 10.6487 346.491 10.5505 347.028 10.3581C347.565 10.1658 348.052 9.88316 348.463 9.52641C348.874 9.16966 349.2 8.74582 349.423 8.27917C349.645 7.81252 349.76 7.31224 349.76 6.80699C349.76 6.30174 349.645 5.80147 349.423 5.33482C349.2 4.86817 348.874 4.44433 348.463 4.08758C348.052 3.73083 347.565 3.44819 347.028 3.25585C346.491 3.06351 345.916 2.96525 345.336 2.96671H294.291C293.711 2.96525 293.136 3.06351 292.599 3.25585C292.062 3.44819 291.574 3.73083 291.163 4.08758C290.752 4.44433 290.426 4.86817 290.204 5.33482C289.981 5.80147 289.867 6.30174 289.867 6.80699C289.867 7.31224 289.981 7.81252 290.204 8.27917C290.426 8.74582 290.752 9.16966 291.163 9.52641C291.574 9.88316 292.062 10.1658 292.599 10.3581C293.136 10.5505 293.711 10.6487 294.291 10.6473H300.593C300.013 10.6463 299.438 10.7448 298.902 10.9374C298.366 11.1299 297.878 11.4126 297.468 11.7693C297.057 12.126 296.731 12.5497 296.509 13.0161C296.287 13.4826 296.172 13.9826 296.172 14.4876C296.172 14.9925 296.287 15.4926 296.509 15.959C296.731 16.4254 297.057 16.8491 297.468 17.2058C297.878 17.5625 298.366 17.8453 298.902 18.0378C299.438 18.2303 300.013 18.3289 300.593 18.3279H291.77C290.602 18.3308 289.484 18.7367 288.659 19.4566C287.835 20.1764 287.372 21.1516 287.372 22.1681C287.372 23.1847 287.835 24.1599 288.659 24.8797C289.484 25.5996 290.602 26.0055 291.77 26.0084H342.815C343.983 26.0055 345.102 25.5996 345.926 24.8797C346.751 24.1599 347.214 23.1847 347.214 22.1681C347.214 21.1516 346.751 20.1764 345.926 19.4566C345.102 18.7367 343.983 18.3308 342.815 18.3279H351.638C352.806 18.3258 353.926 17.9203 354.751 17.2003C355.577 16.4803 356.04 15.5047 356.04 14.4876C356.04 13.4704 355.577 12.4948 354.751 11.7748C353.926 11.0549 352.806 10.6494 351.638 10.6473V10.6473Z" fill="#DEE3F3"/>
<path d="M546.723 211.083H357.99C351.43 211.083 346.111 215.713 346.111 221.424V286.533C346.111 292.244 351.43 296.874 357.99 296.874H546.723C553.283 296.874 558.602 292.244 558.602 286.533V221.424C558.602 215.713 553.283 211.083 546.723 211.083Z" fill="#1F4386"/>
<path opacity="0.1" d="M541.664 283.707H363.049V285.316H541.664V283.707Z" fill="black"/>
<path opacity="0.3" d="M541.664 224.488H363.049V283.469H541.664V224.488Z" fill="black"/>
<path opacity="0.1" d="M404.623 276.657C418.23 276.657 429.26 267.055 429.26 255.21C429.26 243.364 418.23 233.762 404.623 233.762C391.017 233.762 379.987 243.364 379.987 255.21C379.987 267.055 391.017 276.657 404.623 276.657Z" fill="black"/>
<path opacity="0.1" d="M500.09 276.657C513.696 276.657 524.726 267.055 524.726 255.21C524.726 243.364 513.696 233.762 500.09 233.762C486.483 233.762 475.453 243.364 475.453 255.21C475.453 267.055 486.483 276.657 500.09 276.657Z" fill="black"/>
<path d="M470.831 296.872H433.878V315.643H470.831V296.872Z" fill="#1F4386"/>
<path d="M529.346 310.279H375.367V417.517H529.346V310.279Z" fill="#1F4386"/>
<path d="M532.425 438.964H372.288V452.369H532.425V438.964Z" fill="#1F4386"/>
<path d="M398.464 484.54V500.626V524.755V538.159V546.202H426.18V538.159V524.755V500.626V484.54V465.774H398.464V484.54Z" fill="#1F4386"/>
<path d="M481.612 465.774V484.54V500.626V524.755V538.159V546.202H509.328V538.159V524.755V500.626V484.54V465.774H481.612Z" fill="#1F4386"/>
<path d="M354.394 334.408V359.205C346.787 360.361 339.699 363.336 333.921 367.796C328.563 372.116 324.396 377.435 321.733 383.355C318.17 390.87 316.438 399.215 315.731 407.105C314.859 417.747 315.431 428.442 317.434 438.967H286.639C285.331 424.147 285.748 411.432 287.445 400.514C289.347 388.205 292.867 378.185 297.328 370.037C306.25 353.746 318.94 344.908 330.089 340.107C343.33 334.408 354.394 334.408 354.394 334.408Z" fill="#1F4386"/>
<path opacity="0.3" d="M426.18 465.774H398.464V484.54H426.18V465.774Z" fill="black"/>
<path opacity="0.3" d="M426.18 500.626H398.464V524.755H426.18V500.626Z" fill="black"/>
<path opacity="0.3" d="M426.18 538.159H398.464V546.202H426.18V538.159Z" fill="black"/>
<path opacity="0.3" d="M509.328 465.774H481.612V484.54H509.328V465.774Z" fill="black"/>
<path opacity="0.3" d="M509.328 500.626H481.612V524.755H509.328V500.626Z" fill="black"/>
<path opacity="0.3" d="M509.328 538.159H481.612V546.202H509.328V538.159Z" fill="black"/>
<path opacity="0.3" d="M354.394 334.408V359.205C346.787 360.361 339.699 363.336 333.921 367.796L330.089 340.107C343.33 334.408 354.394 334.408 354.394 334.408Z" fill="black"/>
<path opacity="0.3" d="M321.732 383.355C318.169 390.87 316.437 399.215 315.73 407.105L287.445 400.514C289.347 388.205 292.867 378.185 297.328 370.037L321.732 383.355Z" fill="black"/>
<path d="M550.319 334.408V359.205C557.926 360.361 565.014 363.336 570.792 367.796C576.151 372.116 580.317 377.435 582.98 383.355C586.544 390.87 588.276 399.215 588.983 407.105C589.854 417.747 589.282 428.442 587.279 438.967H618.074C619.382 424.147 618.965 411.432 617.268 400.514C615.366 388.205 611.846 378.185 607.385 370.037C598.463 353.746 585.773 344.908 574.624 340.107C561.383 334.408 550.319 334.408 550.319 334.408Z" fill="#1F4386"/>
<path opacity="0.3" d="M550.319 334.408V359.205C557.926 360.361 565.014 363.336 570.792 367.796L574.624 340.107C561.383 334.408 550.319 334.408 550.319 334.408Z" fill="black"/>
<path opacity="0.3" d="M582.98 383.355C586.544 390.87 588.276 399.215 588.983 407.105L617.268 400.514C615.366 388.205 611.846 378.185 607.385 370.037L582.98 383.355Z" fill="black"/>
<path opacity="0.1" d="M470.831 296.872H433.878V299.093H470.831V296.872Z" fill="black"/>
<path opacity="0.1" d="M532.082 329.386V374.283C530.24 372.552 529.217 370.279 529.219 367.919V335.743C529.217 333.386 530.24 331.114 532.082 329.386V329.386Z" fill="black"/>
<path opacity="0.1" d="M375.914 332.346V365.956C375.73 368.081 374.718 370.088 373.044 371.643V326.659C374.718 328.215 375.73 330.221 375.914 332.346V332.346Z" fill="black"/>
<path opacity="0.1" d="M521.647 417.519H383.068V419.107H521.647V417.519Z" fill="black"/>
<path opacity="0.1" d="M447.734 452.372H379.986V453.603H447.734V452.372Z" fill="black"/>
<path opacity="0.1" d="M521.647 452.372H453.899V453.603H521.647V452.372Z" fill="black"/>
<path d="M398.148 131.69H387.544V211.083H398.148V131.69Z" fill="#1F4386"/>
<path d="M519.745 131.69H509.141V211.083H519.745V131.69Z" fill="#1F4386"/>
<path opacity="0.1" d="M392.492 142.768C399.13 142.768 404.511 138.084 404.511 132.306C404.511 126.527 399.13 121.843 392.492 121.843C385.855 121.843 380.474 126.527 380.474 132.306C380.474 138.084 385.855 142.768 392.492 142.768Z" fill="black"/>
<path d="M392.492 142.153C399.13 142.153 404.511 137.468 404.511 131.69C404.511 125.912 399.13 121.227 392.492 121.227C385.855 121.227 380.474 125.912 380.474 131.69C380.474 137.468 385.855 142.153 392.492 142.153Z" fill="#1F4386"/>
<path opacity="0.1" d="M514.797 142.768C521.434 142.768 526.815 138.084 526.815 132.306C526.815 126.527 521.434 121.843 514.797 121.843C508.159 121.843 502.778 126.527 502.778 132.306C502.778 138.084 508.159 142.768 514.797 142.768Z" fill="black"/>
<path d="M514.797 142.153C521.434 142.153 526.815 137.468 526.815 131.69C526.815 125.912 521.434 121.227 514.797 121.227C508.159 121.227 502.778 125.912 502.778 131.69C502.778 137.468 508.159 142.153 514.797 142.153Z" fill="#1F4386"/>
<path d="M138.775 374.909C138.775 374.909 173.944 435.01 145.288 467.895C116.631 500.78 147.893 590.363 147.893 590.363" stroke="#FC6681" stroke-width="2" stroke-miterlimit="10"/>
<path d="M149.195 356.199C149.195 367.785 139.426 377.177 139.426 377.177C139.426 377.177 129.657 367.785 129.657 356.199C129.657 344.613 139.426 335.221 139.426 335.221C139.426 335.221 149.195 344.613 149.195 356.199Z" fill="#FC6681"/>
<path d="M157.011 374.909C157.011 374.909 121.841 435.01 150.498 467.895C179.154 500.78 147.893 590.363 147.893 590.363" stroke="#FFD037" stroke-width="2" stroke-miterlimit="10"/>
<path d="M146.59 356.199C146.59 367.785 156.359 377.177 156.359 377.177C156.359 377.177 166.128 367.785 166.128 356.199C166.128 344.613 156.359 335.221 156.359 335.221C156.359 335.221 146.59 344.613 146.59 356.199Z" fill="#FFD037"/>
<path d="M171.339 374.909C171.339 374.909 206.508 435.01 177.852 467.895C149.195 500.78 180.457 590.363 180.457 590.363" stroke="#FC6681" stroke-width="2" stroke-miterlimit="10"/>
<path d="M181.759 356.199C181.759 367.785 171.99 377.177 171.99 377.177C171.99 377.177 162.221 367.785 162.221 356.199C162.221 344.613 171.99 335.221 171.99 335.221C171.99 335.221 181.759 344.613 181.759 356.199Z" fill="#FC6681"/>
<path d="M176.283 404.353C167.056 412.703 152.536 413.575 152.536 413.575C152.536 413.575 152.975 400.91 162.202 392.561C171.429 384.211 185.949 383.339 185.949 383.339C185.949 383.339 185.51 396.004 176.283 404.353Z" fill="#FC6681"/>
<path d="M177.199 445.814C167.972 454.163 153.452 455.036 153.452 455.036C153.452 455.036 153.891 442.371 163.118 434.021C172.345 425.672 186.865 424.8 186.865 424.8C186.865 424.8 186.426 437.464 177.199 445.814Z" fill="#FC6681"/>
<path d="M127.163 468.627C135.888 477.375 135.584 490.043 135.584 490.043C135.584 490.043 121.134 488.527 112.409 479.778C103.684 471.029 103.988 458.361 103.988 458.361C103.988 458.361 118.438 459.878 127.163 468.627Z" fill="#FC6681"/>
<path d="M135.257 380.205C146.351 386.606 149.947 398.884 149.947 398.884C149.947 398.884 135.557 400.784 124.463 394.384C113.37 387.983 109.773 375.705 109.773 375.705C109.773 375.705 124.163 373.805 135.257 380.205Z" fill="#FC6681"/>
<path d="M189.574 374.909C189.574 374.909 154.405 435.01 183.062 467.895C211.718 500.78 180.457 590.363 180.457 590.363" stroke="#FFD037" stroke-width="2" stroke-miterlimit="10"/>
<path d="M179.154 356.199C179.154 367.785 188.924 377.177 188.924 377.177C188.924 377.177 198.693 367.785 198.693 356.199C198.693 344.613 188.924 335.221 188.924 335.221C188.924 335.221 179.154 344.613 179.154 356.199Z" fill="#FFD037"/>
<path d="M181.965 405.245C172.624 413.497 172.01 426.157 172.01 426.157C172.01 426.157 186.541 425.436 195.882 417.183C205.223 408.931 205.837 396.272 205.837 396.272C205.837 396.272 191.306 396.992 181.965 405.245Z" fill="#FFD037"/>
<path d="M200.282 462.652C190.941 470.904 190.327 483.563 190.327 483.563C190.327 483.563 204.858 482.843 214.199 474.59C223.541 466.338 224.155 453.678 224.155 453.678C224.155 453.678 209.624 454.399 200.282 462.652Z" fill="#FFD037"/>
<path d="M173.333 450.035C173.333 450.035 194.504 420.984 224.217 420.36" stroke="#FFD037" stroke-width="2" stroke-miterlimit="10"/>
<path d="M156.848 432.494C156.848 432.494 135.677 403.443 105.964 402.819" stroke="#FC6681" stroke-width="2" stroke-miterlimit="10"/>
<path d="M154.1 473.954C154.1 473.954 175.271 444.904 204.984 444.28" stroke="#FFD037" stroke-width="2" stroke-miterlimit="10"/>
<path d="M223.248 424.919C226.283 424.919 228.743 422.777 228.743 420.135C228.743 417.493 226.283 415.351 223.248 415.351C220.213 415.351 217.753 417.493 217.753 420.135C217.753 422.777 220.213 424.919 223.248 424.919Z" fill="#FFD037"/>
<path d="M106.475 407.777C109.51 407.777 111.97 405.635 111.97 402.993C111.97 400.351 109.51 398.209 106.475 398.209C103.44 398.209 100.979 400.351 100.979 402.993C100.979 405.635 103.44 407.777 106.475 407.777Z" fill="#FC6681"/>
<path d="M169.67 483.522C169.67 483.522 148.499 454.471 118.786 453.848" stroke="#FC6681" stroke-width="2" stroke-miterlimit="10"/>
<path d="M119.297 458.805C122.332 458.805 124.792 456.663 124.792 454.021C124.792 451.379 122.332 449.237 119.297 449.237C116.262 449.237 113.802 451.379 113.802 454.021C113.802 456.663 116.262 458.805 119.297 458.805Z" fill="#FC6681"/>
<path d="M205.389 449.237C208.424 449.237 210.884 447.095 210.884 444.453C210.884 441.811 208.424 439.669 205.389 439.669C202.354 439.669 199.894 441.811 199.894 444.453C199.894 447.095 202.354 449.237 205.389 449.237Z" fill="#FFD037"/>
<path d="M286.691 555.467C286.691 555.467 235.674 546.584 222.07 534.741C208.465 522.897 147.245 502.171 140.443 516.975C133.641 531.78 48.6126 582.115 106.432 590.997C164.251 599.88 242.476 602.841 259.482 596.919C276.488 590.997 286.691 555.467 286.691 555.467Z" fill="#A8A8A8"/>
<path opacity="0.2" d="M106.432 585.497C164.251 594.38 242.476 597.341 259.482 591.419C272.433 586.909 281.432 565.242 284.99 555.158C286.067 555.357 286.691 555.467 286.691 555.467C286.691 555.467 276.487 590.997 259.482 596.919C242.476 602.841 164.251 599.88 106.432 590.997C89.7414 588.433 84.9685 582.412 86.7665 574.791C88.1935 579.763 94.0089 583.589 106.432 585.497Z" fill="black"/>
<path d="M837.699 385.52C837.699 385.52 849.923 399.436 832.057 420.447C814.192 441.457 799.46 459.194 805.415 472.291C805.415 472.291 832.371 433.271 854.311 432.726C876.252 432.18 861.834 408.987 837.699 385.52Z" fill="#FC6681"/>
<path opacity="0.1" d="M837.699 385.52C838.765 386.865 839.606 388.334 840.197 389.885C861.603 411.78 873.008 432.214 852.43 432.726C833.263 433.202 810.27 463.04 804.763 470.576C804.944 471.158 805.161 471.73 805.415 472.291C805.415 472.291 832.371 433.271 854.311 432.726C876.251 432.18 861.833 408.987 837.699 385.52Z" fill="black"/>
<path d="M860.423 403.256C860.423 408.154 859.791 412.125 859.012 412.125C858.234 412.125 857.602 408.154 857.602 403.256C857.602 398.359 858.39 400.664 859.169 400.664C859.948 400.664 860.423 398.359 860.423 403.256Z" fill="#FFD037"/>
<path d="M868.221 409.104C863.281 411.448 858.974 412.865 858.602 412.27C858.229 411.674 861.931 409.291 866.871 406.947C871.811 404.604 869.863 406.309 870.235 406.905C870.608 407.5 873.161 406.76 868.221 409.104Z" fill="#FFD037"/>
<path d="M773.131 385.52C773.131 385.52 760.907 399.436 778.773 420.447C796.639 441.457 811.37 459.194 805.415 472.291C805.415 472.291 778.46 433.271 756.519 432.726C734.579 432.18 748.997 408.987 773.131 385.52Z" fill="#FC6681"/>
<path opacity="0.1" d="M773.131 385.52C772.066 386.865 771.225 388.334 770.634 389.885C749.227 411.78 737.822 432.214 758.4 432.726C777.567 433.202 800.561 463.04 806.067 470.576C805.887 471.158 805.669 471.73 805.415 472.291C805.415 472.291 778.46 433.271 756.519 432.726C734.579 432.18 748.997 408.987 773.131 385.52Z" fill="black"/>
<path d="M750.407 403.256C750.407 408.154 751.039 412.125 751.818 412.125C752.597 412.125 753.228 408.154 753.228 403.256C753.228 398.359 752.44 400.664 751.661 400.664C750.882 400.664 750.407 398.359 750.407 403.256Z" fill="#FFD037"/>
<path d="M742.609 409.104C747.549 411.448 751.856 412.865 752.229 412.27C752.602 411.674 748.899 409.291 743.959 406.947C739.02 404.604 740.968 406.309 740.595 406.905C740.222 407.5 737.67 406.76 742.609 409.104Z" fill="#FFD037"/>
<path d="M754.3 470.47C754.3 470.47 788.477 469.554 798.777 463.169C809.077 456.783 851.349 449.159 853.904 459.4C856.46 469.64 905.266 510.33 866.68 510.601C828.095 510.872 777.025 505.369 766.745 499.917C756.465 494.466 754.3 470.47 754.3 470.47Z" fill="#A8A8A8"/>
<path opacity="0.2" d="M867.369 507.036C828.784 507.308 777.714 501.804 767.434 496.353C759.605 492.201 756.485 477.304 755.441 470.431C754.718 470.458 754.3 470.47 754.3 470.47C754.3 470.47 756.465 494.466 766.745 499.917C777.025 505.369 828.095 510.872 866.68 510.601C877.818 510.523 881.665 507.073 881.454 501.964C879.907 505.051 875.659 506.978 867.369 507.036Z" fill="black"/>
</svg>
