<svg width="1000" height="600" viewBox="0 0 1000 600" fill="none" xmlns="http://www.w3.org/2000/svg">
<path opacity="0.2" d="M146.14 0.0687407C138.36 -0.15675 130.387 0.068733 123.09 2.34324C103.235 8.53932 93.8235 28.8138 96.8833 46.3334C99.9432 63.853 112.53 79.1177 125.59 93.0687C138.65 107.02 152.8 120.814 159.962 137.49C163.534 145.814 165.204 155.137 161.574 163.451C155.976 176.265 139.094 183.422 122.887 184.912C106.681 186.402 90.4065 183.5 74.142 182.53C67.3177 182.128 60.3003 182.079 53.8718 183.951C46.8158 185.99 40.9374 190.157 35.532 194.5C14.4413 211.539 -2.4409 234.784 0.29076 259.206C3.37956 286.882 30.9278 308.755 61.1015 320.49C71.0918 324.412 81.6613 327.53 90.4548 333.079C113.621 347.716 118.823 375.167 116.517 399.392C114.21 423.618 106.352 447.873 110.725 471.882C115.87 499.814 138.64 525.049 169.354 536.833C196.719 547.333 230.966 546.637 255.262 531.824C267.105 524.588 276.063 514.539 283.852 504.147C295.418 488.8 304.974 471.993 312.279 454.147C315.667 445.824 318.852 436.873 326.758 431.088C331.584 427.53 337.839 425.539 344.026 423.99C362.675 419.324 382.317 418.049 401.14 413.892C419.962 409.735 438.9 401.961 449.132 388.137C463.611 368.53 456.854 343.412 456.922 320.353C457.037 267.745 494.673 220.657 508.562 169.373C513.099 152.618 514.788 134.079 504.653 119.128C497.771 108.981 486.159 101.657 473.958 96.0001C447.115 83.5589 416.603 78.0197 386.593 72.6276C344.885 65.1374 294.238 64.1668 261.912 39.9315C230.889 16.6668 188.447 0.0687407 146.14 0.0687407Z" fill="#1F4386"/>
<path d="M551.159 600C799.047 600 1000 545.344 1000 477.922C1000 410.499 799.047 355.843 551.159 355.843C303.27 355.843 102.317 410.499 102.317 477.922C102.317 545.344 303.27 600 551.159 600Z" fill="#F5F5F5"/>
<path d="M894.18 411.686H832.173C833.6 408.771 834.34 405.559 834.335 402.304V115.481C834.335 109.888 832.148 104.524 828.254 100.569C824.36 96.6141 819.079 94.3923 813.572 94.3923H333.515C330.788 94.391 328.087 94.9356 325.566 95.9948C323.046 97.054 320.756 98.6071 318.827 100.565C316.898 102.524 315.368 104.849 314.324 107.408C313.28 109.967 312.743 112.71 312.743 115.481V402.314C312.738 405.569 313.478 408.781 314.905 411.696H250.706C249.25 411.696 247.853 412.284 246.823 413.33C245.793 414.376 245.214 415.795 245.214 417.275V421.775C245.222 430.043 248.461 437.971 254.22 443.815C259.979 449.659 267.787 452.941 275.928 452.941H868.958C877.104 452.941 884.917 449.655 890.677 443.804C896.437 437.954 899.673 430.019 899.673 421.745V417.245C899.668 415.769 899.087 414.355 898.057 413.313C897.028 412.271 895.634 411.686 894.18 411.686ZM512.048 429.53L506.758 423.402H638.727L632.839 429.539L512.048 429.53Z" fill="url(#paint0_linear)"/>
<path d="M805.956 98.4511H341.091C328.692 98.4511 318.64 108.661 318.64 121.255V397.206C318.64 409.8 328.692 420.01 341.091 420.01H805.956C818.355 420.01 828.407 409.8 828.407 397.206V121.255C828.407 108.661 818.355 98.4511 805.956 98.4511Z" fill="#535461"/>
<path d="M816.593 145.323H329.363V408.02H816.593V145.323Z" fill="white"/>
<path d="M572.984 126.794C575.356 126.794 577.279 124.841 577.279 122.432C577.279 120.022 575.356 118.069 572.984 118.069C570.612 118.069 568.688 120.022 568.688 122.432C568.688 124.841 570.612 126.794 572.984 126.794Z" fill="white"/>
<path d="M648.214 408.559L631.467 426H513.417L498.291 408.559H258.002C256.579 408.559 255.214 409.133 254.207 410.155C253.201 411.178 252.635 412.564 252.635 414.01V418.402C252.635 426.488 255.798 434.244 261.428 439.962C267.057 445.68 274.693 448.892 282.655 448.892H862.239C870.201 448.892 877.836 445.68 883.466 439.962C889.095 434.244 892.258 426.488 892.258 418.402V414.01C892.258 412.564 891.693 411.178 890.686 410.155C889.68 409.133 888.315 408.559 886.891 408.559H648.214Z" fill="#535461"/>
<path d="M481.091 154.559H275.56C270.567 154.554 265.777 156.563 262.242 160.144C258.707 163.725 256.717 168.586 256.709 173.657V462.873C256.717 467.944 258.707 472.805 262.242 476.386C265.777 479.967 270.567 481.976 275.56 481.971H481.091C486.084 481.976 490.874 479.967 494.41 476.386C497.945 472.805 499.935 467.944 499.942 462.873V173.657C499.935 168.586 497.945 163.725 494.41 160.144C490.874 156.563 486.084 154.554 481.091 154.559Z" fill="url(#paint1_linear)"/>
<path d="M477.742 158.481H278.901C268.239 158.481 259.596 167.259 259.596 178.088V459.461C259.596 470.29 268.239 479.069 278.901 479.069H477.742C488.404 479.069 497.047 470.29 497.047 459.461V178.088C497.047 167.259 488.404 158.481 477.742 158.481Z" fill="#535461"/>
<path d="M484.981 188.804H271.661V448.745H484.981V188.804Z" fill="white"/>
<path d="M377.356 176.128C378.955 176.128 380.251 174.811 380.251 173.186C380.251 171.562 378.955 170.245 377.356 170.245C375.756 170.245 374.46 171.562 374.46 173.186C374.46 174.811 375.756 176.128 377.356 176.128Z" fill="white"/>
<path d="M377.356 472.206C382.154 472.206 386.043 468.256 386.043 463.382C386.043 458.509 382.154 454.559 377.356 454.559C372.558 454.559 368.669 458.509 368.669 463.382C368.669 468.256 372.558 472.206 377.356 472.206Z" fill="white"/>
<path d="M324.432 252.598H218.901C217.531 252.595 216.173 252.867 214.906 253.397C213.639 253.927 212.488 254.706 211.517 255.688C210.546 256.671 209.776 257.837 209.249 259.122C208.722 260.407 208.45 261.785 208.447 263.176V497.902C208.45 499.294 208.722 500.671 209.249 501.956C209.776 503.241 210.546 504.408 211.517 505.39C212.488 506.372 213.639 507.151 214.906 507.681C216.173 508.211 217.531 508.483 218.901 508.48H324.432C325.802 508.483 327.159 508.211 328.426 507.681C329.693 507.151 330.845 506.372 331.816 505.39C332.786 504.408 333.557 503.241 334.084 501.956C334.61 500.671 334.883 499.294 334.885 497.902V263.176C334.883 261.785 334.61 260.407 334.084 259.122C333.557 257.837 332.786 256.671 331.816 255.688C330.845 254.706 329.693 253.927 328.426 253.397C327.159 252.867 325.802 252.595 324.432 252.598V252.598Z" fill="url(#paint2_linear)"/>
<path d="M323.302 254.559H220.02C214.156 254.559 209.402 259.387 209.402 265.343V496.716C209.402 502.672 214.156 507.5 220.02 507.5H323.302C329.166 507.5 333.92 502.672 333.92 496.716V265.343C333.92 259.387 329.166 254.559 323.302 254.559Z" fill="#535461"/>
<path d="M324.75 278.088H218.572V483.971H324.75V278.088Z" fill="white"/>
<path d="M259.113 267.304C259.646 267.304 260.078 266.865 260.078 266.324C260.078 265.782 259.646 265.343 259.113 265.343C258.58 265.343 258.148 265.782 258.148 266.324C258.148 266.865 258.58 267.304 259.113 267.304Z" fill="white"/>
<path d="M284.209 265.343H264.904C264.371 265.343 263.938 265.782 263.938 266.324C263.938 266.865 264.371 267.304 264.904 267.304H284.209C284.742 267.304 285.174 266.865 285.174 266.324C285.174 265.782 284.742 265.343 284.209 265.343Z" fill="white"/>
<path d="M656.838 446.184H684.967L754.285 418.634C754.285 418.634 803.51 398.226 799.492 437C795.474 475.774 788.441 527.813 788.441 527.813C788.441 527.813 766.34 517.609 754.285 520.67C742.229 523.731 750.266 458.428 750.266 458.428C750.266 458.428 651.815 506.385 642.774 500.263C633.732 494.141 631.723 451.285 631.723 451.285L656.838 446.184Z" fill="#2F2E41"/>
<path opacity="0.1" d="M656.838 446.184H684.967L754.285 418.634C754.285 418.634 803.51 398.226 799.492 437C795.474 475.774 788.441 527.813 788.441 527.813C788.441 527.813 766.34 517.609 754.285 520.67C742.229 523.731 750.266 458.428 750.266 458.428C750.266 458.428 651.815 506.385 642.774 500.263C633.732 494.141 631.723 451.285 631.723 451.285L656.838 446.184Z" fill="black"/>
<path d="M701.155 356.712L735.197 406.39L814.561 473.734C814.561 473.734 887.897 491.08 877.851 503.324C867.805 515.569 806.524 491.08 806.524 491.08C806.524 491.08 715.105 423.736 712.091 418.634C709.077 413.532 675.925 365.575 675.925 365.575L701.155 356.712Z" fill="#FFB8B8"/>
<path opacity="0.1" d="M701.23 357L735.272 406.677L814.635 474.021C814.635 474.021 887.972 491.368 877.926 503.612C867.88 515.856 806.599 491.368 806.599 491.368C806.599 491.368 715.18 424.024 712.166 418.922C709.152 413.82 676 365.863 676 365.863L701.23 357Z" fill="black"/>
<path d="M680.949 316.598L703.05 360.473C703.05 360.473 698.027 381.901 689.99 383.942C681.953 385.982 647.797 357.412 647.797 357.412L680.949 316.598Z" fill="#D0CDE1"/>
<path opacity="0.1" d="M680.949 316.598L703.05 360.473C703.05 360.473 698.027 381.901 689.99 383.942C681.953 385.982 647.797 357.412 647.797 357.412L680.949 316.598Z" fill="black"/>
<path d="M950.575 423.466L957.104 450.819C957.177 451.124 957.166 451.444 957.071 451.742L927.456 545.741C927.339 546.113 927.1 546.433 926.778 546.648C926.457 546.862 926.072 546.959 925.689 546.92C925.306 546.882 924.948 546.711 924.674 546.437C924.4 546.163 924.227 545.801 924.183 545.413L920.086 508.795C920.059 508.552 920.084 508.305 920.158 508.073L947.341 423.34C947.455 422.986 947.679 422.68 947.979 422.467C948.279 422.255 948.64 422.147 949.006 422.162C949.371 422.176 949.723 422.311 950.006 422.547C950.289 422.782 950.489 423.105 950.575 423.466Z" fill="#2F2E41"/>
<path d="M948.174 425.776L954.201 449.245L928.081 534.955L922.054 508.426L948.174 425.776Z" fill="#F2F2F2"/>
<path d="M816.571 553.322C817.575 556.383 921.05 552.302 922.054 551.281C922.93 550.003 923.671 548.635 924.264 547.2C925.209 545.159 926.073 543.118 926.073 543.118L922.054 510.079L819.585 506.385C819.585 506.385 817.023 534.384 816.5 547.2C816.37 550.434 816.37 552.71 816.571 553.322Z" fill="#2F2E41"/>
<path opacity="0.1" d="M908.994 514.548L911.003 543.118H865.796V514.548H908.994Z" fill="black"/>
<path opacity="0.1" d="M850.727 523.731L850.997 523.677L849.722 535.976H824.607V523.731H850.727Z" fill="black"/>
<path opacity="0.1" d="M816.571 553.322C817.575 556.383 921.05 552.302 922.054 551.281C922.93 550.004 923.671 548.635 924.264 547.2H816.5C816.37 550.434 816.37 552.71 816.571 553.322Z" fill="black"/>
<path d="M696.018 302.312C720.985 302.312 741.225 281.755 741.225 256.396C741.225 231.037 720.985 210.48 696.018 210.48C671.05 210.48 650.81 231.037 650.81 256.396C650.81 281.755 671.05 302.312 696.018 302.312Z" fill="#FFB8B8"/>
<path d="M693.004 297.21C693.004 297.21 677.935 323.74 674.921 338.025C671.907 352.31 629.714 309.455 629.714 309.455L624.188 294.66C624.188 294.66 663.87 275.783 660.856 260.477C657.843 245.172 693.004 297.21 693.004 297.21Z" fill="#FFB8B8"/>
<path d="M701.041 376.799L742.23 431.899L840.681 506.385C840.681 506.385 912.008 521.691 895.934 532.915C879.861 544.139 833.649 522.711 833.649 522.711C833.649 522.711 734.193 468.632 713.096 446.184C691.999 423.736 652.82 385.982 652.82 385.982L701.041 376.799Z" fill="#FFB8B8"/>
<path d="M645.788 462.509L657.843 481.896L729.79 458.906C745.576 453.862 762.887 455.718 776.889 464.678C789.446 472.713 797.483 485.468 779.4 504.344C743.234 542.098 719.124 521.691 719.124 521.691C719.124 521.691 597.567 579.851 577.475 551.281C557.383 522.711 556.378 508.426 556.378 508.426C556.378 508.426 633.732 459.448 645.788 462.509Z" fill="#2F2E41"/>
<path d="M796.478 529.854C796.478 529.854 828.625 551.281 790.45 561.485C752.275 571.689 724.146 557.403 724.146 557.403C724.146 557.403 690.994 557.403 690.994 540.057C690.994 522.711 702.045 520.67 702.045 520.67L736.202 525.772C736.202 525.772 777.39 514.548 796.478 529.854Z" fill="#D0CDE1"/>
<path d="M733.103 244.845C736.18 246.239 739.231 247.888 742.577 248.292C745.922 248.696 749.731 247.51 751.314 244.49C752.169 242.858 752.267 240.939 752.307 239.092C752.428 233.489 752.029 227.431 748.533 223.095C746.308 220.336 743.06 218.596 740.757 215.903C739.107 213.974 738.009 211.636 736.827 209.38C732.348 200.837 725.717 192.625 716.501 190.162C712.652 189.134 708.615 189.184 704.636 189.241L681.427 189.574C677.672 189.627 673.858 189.69 670.262 190.794C662.792 193.088 657.353 199.469 652.372 205.57C648.645 210.136 644.908 214.748 642.111 219.953C638.101 227.55 636.073 236.063 636.221 244.681C636.19 246.892 636.471 249.095 637.056 251.224C637.739 253.177 638.586 255.067 639.588 256.873C643.94 265.556 646.524 276.402 641.623 284.777C650.137 281.245 658.562 276.613 664.179 269.215C666.691 265.906 668.662 262.032 672.01 259.603C675.359 257.175 680.815 256.964 682.964 260.528C683.702 261.97 684.083 263.573 684.071 265.198C684.228 267.874 684.224 270.652 685.341 273.08C686.458 275.509 689.118 277.468 691.658 276.741C696.032 275.49 695.613 268.671 698.982 265.574C701.54 263.222 705.487 263.672 708.774 262.604C712.604 261.36 715.478 257.99 717.115 254.26C718.359 251.425 718.341 244.006 720.696 242.47C723.65 240.545 730.366 243.606 733.103 244.845Z" fill="#2F2E41"/>
<path d="M620.6 289.819C622.634 289.268 624.775 289.274 626.806 289.835C633.254 291.594 647.711 296.249 650.81 303.333C654.829 312.516 668.893 326.801 668.893 326.801C668.893 326.801 687.981 346.188 683.962 359.453C679.944 372.717 664.875 388.023 664.875 388.023C664.875 388.023 668.893 451.285 648.801 467.611C628.709 483.937 620.672 472.713 620.672 488.019C620.672 503.324 558.387 551.281 546.332 521.691C546.332 521.691 552.359 466.591 550.35 447.204C548.37 428.097 551.269 308.884 620.6 289.819Z" fill="#D0CDE1"/>
<path d="M652.819 315.577C652.819 315.577 714.1 361.493 703.05 380.88C703.05 380.88 665.879 399.247 657.842 398.227C649.806 397.206 618.663 361.493 610.626 358.432C602.589 355.371 598.571 300.272 652.819 315.577Z" fill="#D0CDE1"/>
<path d="M174.527 521.569C174.527 521.569 152.922 446.033 178.584 390.405C189.508 367.153 192.813 340.877 188.002 315.525C185.624 303.515 182.182 291.755 177.721 280.392" stroke="#535461" stroke-width="2" stroke-miterlimit="10"/>
<path d="M194.015 245.233C194.015 254.507 177.606 281.373 177.606 281.373C177.606 281.373 161.197 254.49 161.197 245.233C161.197 240.777 162.926 236.503 166.003 233.352C169.08 230.202 173.254 228.431 177.606 228.431C181.958 228.431 186.132 230.202 189.209 233.352C192.286 236.503 194.015 240.777 194.015 245.233Z" fill="#1F4386"/>
<path d="M220.908 296.75C216.025 304.41 188.225 317.647 188.225 317.647C188.225 317.647 188.729 286.442 193.612 278.781C194.723 276.851 196.207 275.17 197.974 273.838C199.742 272.507 201.757 271.554 203.897 271.037C206.037 270.52 208.258 270.449 210.426 270.828C212.594 271.208 214.663 272.031 216.51 273.246C218.356 274.461 219.941 276.045 221.169 277.9C222.396 279.756 223.241 281.845 223.652 284.042C224.063 286.239 224.032 288.497 223.56 290.682C223.089 292.866 222.186 294.93 220.908 296.75V296.75Z" fill="#1F4386"/>
<path d="M220.197 384.04C211.944 388.161 180.502 385.32 180.502 385.32C180.502 385.32 196.893 358.536 205.13 354.415C209.063 352.651 213.53 352.463 217.6 353.89C221.669 355.317 225.027 358.248 226.971 362.073C228.915 365.897 229.295 370.319 228.033 374.415C226.771 378.511 223.964 381.966 220.197 384.057V384.04Z" fill="#1F4386"/>
<path d="M204.369 449.962C197.043 455.393 166.023 457.843 166.023 457.843C166.023 457.843 177.441 428.803 184.767 423.372C188.292 421.012 192.587 420.104 196.761 420.835C200.935 421.566 204.669 423.88 207.19 427.299C209.71 430.717 210.822 434.977 210.297 439.197C209.772 443.416 207.649 447.271 204.369 449.962V449.962Z" fill="#1F4386"/>
<path d="M153.25 319.313C159.843 325.708 190.154 332.353 190.154 332.353C190.154 332.353 182.72 301.859 176.193 295.463C174.669 293.819 172.83 292.505 170.788 291.6C168.746 290.694 166.544 290.217 164.314 290.197C162.084 290.176 159.874 290.614 157.816 291.481C155.758 292.349 153.896 293.63 152.343 295.246C150.789 296.862 149.576 298.78 148.777 300.884C147.978 302.987 147.61 305.233 147.695 307.484C147.78 309.735 148.316 311.946 149.271 313.982C150.225 316.018 151.579 317.837 153.25 319.329V319.313Z" fill="#1F4386"/>
<path d="M136.233 396.763C144.434 400.925 175.675 398.055 175.675 398.055C175.675 398.055 159.389 371.004 151.205 366.842C149.246 365.737 147.085 365.042 144.854 364.801C142.622 364.56 140.365 364.777 138.218 365.439C136.072 366.101 134.08 367.195 132.364 368.654C130.647 370.113 129.241 371.907 128.23 373.929C127.219 375.95 126.624 378.157 126.481 380.417C126.338 382.677 126.65 384.942 127.397 387.077C128.145 389.212 129.313 391.172 130.832 392.84C132.35 394.507 134.188 395.848 136.233 396.78V396.763Z" fill="#1F4386"/>
<path d="M129.608 474.472C136.934 479.903 167.954 482.353 167.954 482.353C167.954 482.353 156.536 453.313 149.21 447.882C145.685 445.522 141.39 444.614 137.216 445.345C133.041 446.076 129.307 448.39 126.787 451.809C124.267 455.227 123.154 459.487 123.679 463.706C124.205 467.926 126.327 471.78 129.608 474.472Z" fill="#1F4386"/>
<defs>
<linearGradient id="paint0_linear" x1="572.443" y1="452.961" x2="572.443" y2="94.3825" gradientUnits="userSpaceOnUse">
<stop stop-color="#808080" stop-opacity="0.25"/>
<stop offset="0.54" stop-color="#808080" stop-opacity="0.12"/>
<stop offset="1" stop-color="#808080" stop-opacity="0.1"/>
</linearGradient>
<linearGradient id="paint1_linear" x1="115535" y1="208274" x2="115535" y2="98918.3" gradientUnits="userSpaceOnUse">
<stop stop-color="#808080" stop-opacity="0.25"/>
<stop offset="0.54" stop-color="#808080" stop-opacity="0.12"/>
<stop offset="1" stop-color="#808080" stop-opacity="0.1"/>
</linearGradient>
<linearGradient id="paint2_linear" x1="46161.1" y1="169813" x2="46161.1" y2="103028" gradientUnits="userSpaceOnUse">
<stop stop-color="#808080" stop-opacity="0.25"/>
<stop offset="0.54" stop-color="#808080" stop-opacity="0.12"/>
<stop offset="1" stop-color="#808080" stop-opacity="0.1"/>
</linearGradient>
</defs>
</svg>
