<svg width="1000" height="600" viewBox="0 0 1000 600" fill="none" xmlns="http://www.w3.org/2000/svg">
<path opacity="0.1" d="M999.999 380.797C1000.01 396.916 997.996 412.958 994.012 428.47C990.16 443.424 984.495 457.739 977.167 471.03C977.167 519.183 947.604 560.801 904.693 580.6C886.763 588.791 867.528 592.973 848.111 592.903H189.834C154.651 592.903 122.046 582.465 95.3063 564.684C87.6536 559.618 80.3941 553.867 73.6017 547.489C43.8815 519.404 25.4549 480.593 25.4549 437.726C8.775 409.484 -0.0694715 376.515 0.000410938 342.841C0.000410938 272.332 37.9287 211.702 92.2643 184.934C99.4795 181.382 106.935 178.451 114.563 176.169C117.261 175.361 119.989 174.637 122.745 173.997C130.093 172.276 137.546 171.152 145.044 170.633C147.754 170.447 150.478 170.341 153.217 170.315H154.721C157.745 170.315 160.743 170.431 163.724 170.623L164.703 168.797C165.903 166.592 167.133 164.411 168.392 162.251C170.665 158.317 173.048 154.44 175.542 150.621C178.153 146.591 180.877 142.625 183.715 138.722L184.441 137.761C186.049 135.557 187.693 133.378 189.371 131.225C194.616 124.504 200.152 117.984 205.979 111.666C269.012 43.7322 367.762 0 478.776 0C565.157 0 644.117 26.4796 704.598 70.231C727.51 55.9739 753.393 48.4931 779.72 48.5187C865.157 48.5187 934.44 125.766 934.44 221.054C934.427 227.083 934.136 233.108 933.566 239.105C954.161 255.135 970.947 276.376 982.509 301.036C994.071 325.696 1000.07 353.053 999.999 380.797V380.797Z" fill="#1F4386"/>
<path d="M566.127 227.863C590.715 227.863 610.647 205.939 610.647 178.894C610.647 151.849 590.715 129.925 566.127 129.925C541.539 129.925 521.606 151.849 521.606 178.894C521.606 205.939 541.539 227.863 566.127 227.863Z" fill="#F2F2F2"/>
<path d="M933.843 115.297H684.357V57.8749H933.843V115.297ZM685.456 114.088H932.744V59.0838H685.456V114.088Z" fill="#3F3D56"/>
<path d="M915.709 69.3593H667.322V125.572H915.709V69.3593Z" fill="#1F4386"/>
<path d="M510.306 15.7155C512.43 15.7155 514.152 13.8211 514.152 11.4844C514.152 9.14757 512.43 7.25323 510.306 7.25323C508.181 7.25323 506.459 9.14757 506.459 11.4844C506.459 13.8211 508.181 15.7155 510.306 15.7155Z" fill="#1F4386"/>
<path d="M523.494 15.7155C525.619 15.7155 527.341 13.8211 527.341 11.4844C527.341 9.14757 525.619 7.25323 523.494 7.25323C521.37 7.25323 519.647 9.14757 519.647 11.4844C519.647 13.8211 521.37 15.7155 523.494 15.7155Z" fill="#1F4386"/>
<path d="M536.683 15.7155C538.807 15.7155 540.53 13.8211 540.53 11.4844C540.53 9.14757 538.807 7.25323 536.683 7.25323C534.558 7.25323 532.836 9.14757 532.836 11.4844C532.836 13.8211 534.558 15.7155 536.683 15.7155Z" fill="#1F4386"/>
<path d="M962.017 331.232H499.315V0H962.017V331.232ZM500.414 330.023H960.918V1.20888H500.414V330.023Z" fill="#3F3D56"/>
<path d="M961.468 18.3356H499.865V19.5444H961.468V18.3356Z" fill="#3F3D56"/>
<path d="M511.405 14.5065C510.535 14.5065 509.685 14.2229 508.962 13.6916C508.239 13.1603 507.676 12.4051 507.343 11.5215C507.01 10.6379 506.923 9.66565 507.093 8.72766C507.263 7.78966 507.681 6.92806 508.296 6.2518C508.911 5.57554 509.694 5.115 510.547 4.92843C511.4 4.74185 512.284 4.83761 513.087 5.20359C513.89 5.56958 514.577 6.18936 515.06 6.98456C515.543 7.77975 515.801 8.71464 515.801 9.67102C515.8 10.953 515.336 12.1821 514.512 13.0886C513.688 13.9951 512.57 14.505 511.405 14.5065ZM511.405 6.04439C510.753 6.04439 510.115 6.25709 509.573 6.65559C509.031 7.05408 508.608 7.62049 508.359 8.28317C508.109 8.94585 508.044 9.67504 508.171 10.3785C508.298 11.082 508.612 11.7282 509.073 12.2354C509.534 12.7426 510.122 13.088 510.762 13.228C511.401 13.3679 512.064 13.2961 512.667 13.0216C513.269 12.7471 513.784 12.2823 514.146 11.6859C514.509 11.0895 514.702 10.3883 514.702 9.67102C514.701 8.70952 514.353 7.78772 513.735 7.10784C513.117 6.42795 512.279 6.0455 511.405 6.04439V6.04439Z" fill="#3F3D56"/>
<path d="M524.593 14.5065C523.724 14.5065 522.874 14.2229 522.151 13.6916C521.428 13.1603 520.864 12.4051 520.532 11.5215C520.199 10.6379 520.112 9.66565 520.281 8.72766C520.451 7.78966 520.87 6.92806 521.485 6.2518C522.099 5.57554 522.883 5.115 523.736 4.92843C524.588 4.74185 525.472 4.83761 526.276 5.20359C527.079 5.56958 527.765 6.18936 528.249 6.98456C528.732 7.77975 528.989 8.71464 528.989 9.67102C528.988 10.953 528.525 12.1821 527.7 13.0886C526.876 13.9951 525.759 14.505 524.593 14.5065V14.5065ZM524.593 6.04439C523.941 6.04439 523.304 6.25709 522.761 6.65559C522.219 7.05408 521.797 7.62049 521.547 8.28317C521.298 8.94585 521.232 9.67504 521.359 10.3785C521.487 11.082 521.801 11.7282 522.262 12.2354C522.723 12.7426 523.31 13.088 523.95 13.228C524.59 13.3679 525.253 13.2961 525.855 13.0216C526.457 12.7471 526.972 12.2823 527.335 11.6859C527.697 11.0895 527.89 10.3883 527.89 9.67102C527.889 8.70952 527.542 7.78772 526.924 7.10784C526.305 6.42795 525.467 6.0455 524.593 6.04439V6.04439Z" fill="#3F3D56"/>
<path d="M537.782 14.5065C536.912 14.5065 536.063 14.2229 535.34 13.6916C534.617 13.1603 534.053 12.4051 533.72 11.5215C533.388 10.6379 533.301 9.66566 533.47 8.72766C533.64 7.78966 534.059 6.92806 534.673 6.2518C535.288 5.57554 536.072 5.11501 536.924 4.92843C537.777 4.74185 538.661 4.8376 539.464 5.20359C540.268 5.56958 540.954 6.18935 541.437 6.98454C541.92 7.77974 542.178 8.71463 542.178 9.67101C542.177 10.953 541.713 12.1821 540.889 13.0886C540.065 13.9951 538.948 14.505 537.782 14.5065V14.5065ZM537.782 6.04439C537.13 6.04438 536.492 6.25708 535.95 6.65558C535.408 7.05408 534.985 7.62048 534.736 8.28316C534.486 8.94584 534.421 9.67503 534.548 10.3785C534.675 11.082 534.989 11.7282 535.451 12.2354C535.912 12.7426 536.499 13.088 537.139 13.228C537.778 13.3679 538.441 13.2961 539.044 13.0216C539.646 12.7471 540.161 12.2823 540.523 11.6859C540.886 11.0895 541.079 10.3883 541.079 9.67101C541.078 8.70952 540.73 7.78772 540.112 7.10784C539.494 6.42796 538.656 6.0455 537.782 6.04439V6.04439Z" fill="#3F3D56"/>
<path d="M645.339 18.9401H644.24V331.097H645.339V18.9401Z" fill="#3F3D56"/>
<path d="M777.502 172.416H696.722V184.505H777.502V172.416Z" fill="#F2F2F2"/>
<path d="M904.443 172.416H823.663V184.505H904.443V172.416Z" fill="#F2F2F2"/>
<path d="M782.448 179.065H700.569V165.767H782.448V179.065ZM701.668 177.856H781.349V166.976H701.668V177.856Z" fill="#3F3D56"/>
<path d="M777.502 266.104H696.722V278.193H777.502V266.104Z" fill="#F2F2F2"/>
<path d="M782.448 272.753H700.569V259.455H782.448V272.753ZM701.668 271.544H781.349V260.664H701.668V271.544Z" fill="#3F3D56"/>
<path d="M904.718 218.051H696.997V230.14H904.718V218.051Z" fill="#F2F2F2"/>
<path d="M909.664 225.909H700.844V212.611H909.664V225.909ZM701.943 224.7H908.565V213.82H701.943V224.7Z" fill="#3F3D56"/>
<path d="M909.389 179.065H827.51V165.767H909.389V179.065ZM828.609 177.856H908.29V166.976H828.609V177.856Z" fill="#3F3D56"/>
<path d="M573.661 215.056C564.72 215.056 555.98 212.14 548.546 206.676C541.112 201.213 535.318 193.447 531.896 184.361C528.475 175.276 527.58 165.278 529.324 155.633C531.068 145.988 535.374 137.128 541.696 130.174C548.018 123.221 556.073 118.485 564.842 116.566C573.611 114.648 582.7 115.632 590.96 119.396C599.22 123.159 606.281 129.532 611.248 137.709C616.215 145.886 618.866 155.499 618.866 165.333C618.853 178.516 614.086 191.155 605.611 200.476C597.136 209.798 585.646 215.041 573.661 215.056ZM573.661 117.118C564.991 117.118 556.516 119.945 549.307 125.243C542.098 130.542 536.48 138.072 533.162 146.882C529.844 155.692 528.976 165.387 530.667 174.74C532.359 184.093 536.534 192.684 542.664 199.427C548.795 206.17 556.606 210.762 565.109 212.623C573.612 214.483 582.426 213.528 590.436 209.879C598.446 206.23 605.292 200.05 610.109 192.121C614.926 184.192 617.496 174.87 617.496 165.333C617.483 152.55 612.861 140.295 604.643 131.256C596.425 122.217 585.283 117.132 573.661 117.118Z" fill="#3F3D56"/>
<path d="M552.39 435.298C565.581 435.298 576.274 423.536 576.274 409.028C576.274 394.519 565.581 382.758 552.39 382.758C539.2 382.758 528.507 394.519 528.507 409.028C528.507 423.536 539.2 435.298 552.39 435.298Z" fill="#767D9F"/>
<path d="M551.151 375.608C553.534 387.049 555.557 398.576 557.219 410.188C557.719 413.638 558.164 417.277 557.027 420.539C556.075 423.259 554.137 425.383 552.616 427.764C551.096 430.145 549.945 433.196 550.87 435.923C551.795 438.65 554.493 440.142 557.068 440.91C564.438 443.095 572.295 441.506 579.63 439.14C582.951 438.199 586.136 436.749 589.089 434.831C592.199 432.661 594.747 429.647 597.089 426.544C607.781 412.282 614.781 395.166 621.37 378.154C617.136 378.578 612.871 377.888 608.928 376.14C604.985 374.393 601.476 371.638 598.692 368.105C595.993 364.616 594.014 359.757 595.534 355.493C591.075 358.183 585.781 358.363 580.979 360.202C578.002 361.452 575.136 363.004 572.418 364.835C569.139 366.919 565.879 369.044 562.637 371.208C558.931 373.664 555.459 375.849 551.151 375.608Z" fill="#FFB8B8"/>
<path d="M601.103 395.331C596.918 404.289 591.473 412.9 583.699 418.234C575.925 423.568 565.459 425.014 557.671 419.741C553.836 417.164 550.932 413.246 547.582 409.947C544.233 406.647 540.048 403.822 535.548 404.251C530.589 404.726 526.706 408.982 523.384 413.058C518.343 419.251 513.473 425.707 509.904 433.038C503.055 447.126 501.432 463.594 501.733 479.566C502.034 495.537 504.137 511.426 504.185 527.397C504.254 547.045 501.226 566.535 498.165 585.889C526.315 582.077 554.5 590.409 582.713 593.566C600.767 595.608 618.959 595.563 637.11 595.51C640.302 595.51 643.699 595.419 646.356 593.476C647.981 592.172 649.294 590.456 650.185 588.473C652.692 583.388 653.699 577.587 654.397 571.854C656.171 557.374 656.226 542.714 656.274 528.098C656.397 492.69 656.514 457.153 652.425 422.023C651.418 413.382 650.13 404.696 647.117 396.612C644.103 388.528 639.185 381.093 632.308 376.761C627.891 373.973 617.651 369.121 612.445 371.932C606.603 375.066 603.904 389.334 601.103 395.331Z" fill="#767D9F"/>
<path d="M603.185 495.319C602.123 473.471 597.802 450.154 607 430.762C609.26 426.001 601.151 420.057 603.658 415.446C606.717 409.825 609.037 403.755 610.548 397.418C611.069 395.241 611.486 392.935 610.993 390.751C610.082 386.765 606.5 384.392 603.459 381.966C600.103 379.284 598.377 371.11 597.295 366.688C596.213 362.266 605.904 367.592 609.802 366.017C615.213 363.84 622.089 365.211 627.486 367.419C630.5 368.639 633.774 368.745 636.986 368.835C643.226 369.016 649.486 369.189 655.678 368.345C658.459 367.961 661.247 367.381 664.041 367.554C671.171 367.999 677.37 373.363 681.589 379.706C685.808 386.05 688.493 393.44 691.952 400.311C694.836 406.037 698.274 411.446 700.733 417.405C702.911 422.679 704.288 428.344 705.651 433.979L709.165 448.436C709.779 450.504 710.071 452.672 710.028 454.848C709.849 457.16 708.918 459.315 707.973 461.372C704.399 468.995 700.113 476.188 695.185 482.835C687.795 492.802 678.822 501.79 674.432 513.724C672.719 518.372 671.767 523.314 670.897 528.241C667.39 547.947 664.898 567.855 663.432 587.87C655.428 583.797 647.039 580.712 638.418 578.672C634.12 577.66 629.776 576.906 625.404 576.412C621.576 575.975 616.637 576.803 612.993 575.658C606.897 573.752 606.226 562.414 605.302 556.477C603.822 547.023 603.528 537.402 603.473 527.849C603.404 516.986 603.712 506.145 603.185 495.319Z" fill="#4C4981"/>
<path d="M469.315 454.463C472.199 472.544 475.377 490.678 481.644 507.666C481.486 507.832 481.329 507.983 481.171 508.134C480.616 508.653 480.041 509.143 479.438 509.64C478.034 510.725 476.493 511.644 475.329 513.061C474.888 513.603 474.54 514.228 474.301 514.906C474.086 515.436 473.975 516.01 473.975 516.59C473.975 517.17 474.086 517.744 474.301 518.274C471.034 519.864 467.24 519.374 463.575 519.223C460.418 519.095 457.356 519.223 454.822 521.129C451.301 523.796 450.24 528.919 449.671 533.575C449.461 535.273 449.281 536.973 449.13 538.675C448.984 540.257 448.865 541.844 448.774 543.437C448.463 548.703 448.42 553.985 448.644 559.257C448.68 560.222 448.728 561.186 448.788 562.15C437.596 561.857 427.397 555.438 417.747 549.2C415.541 547.776 413.267 546.277 411.836 543.926C410.517 541.618 409.958 538.881 410.253 536.174C410.253 535.79 410.315 535.421 410.363 535.029C410.67 532.793 411.196 530.601 411.931 528.49C414.951 519.497 419.402 511.168 425.075 503.892C427.527 500.743 430.288 497.662 431.431 493.706C431.931 491.981 432.116 490.151 432.623 488.433C434.897 480.99 443.103 477.471 445.911 470.246C446.596 468.521 446.911 466.63 447.76 464.973C448.525 463.595 449.511 462.383 450.671 461.394C451.171 460.935 451.692 460.49 452.205 460.046C457.018 455.897 461.655 451.515 466.116 446.899C466.947 446.041 467.769 445.172 468.582 444.293C468.474 447.703 468.72 451.115 469.315 454.463V454.463Z" fill="#4C4981"/>
<path d="M538.336 400.989C537.349 402.134 536.281 403.212 535.233 404.281L534.952 404.56L533.842 405.69C531.829 407.602 530.086 409.834 528.671 412.312L528.555 412.523C525.062 419.402 526.356 427.87 527.329 435.682C528.535 445.418 529.078 455.239 528.952 465.064C528.774 478.624 527.322 492.094 527.295 505.64C527.295 508.714 527.356 511.78 527.479 514.854C527.678 519.849 528.021 524.836 528.431 529.823C528.877 535.293 529.411 540.755 529.911 546.217C530.308 550.443 530.685 554.662 531 558.881C531.158 561.066 531.308 563.243 531.431 565.428C531.575 567.989 531.692 570.558 531.76 573.12C531.808 574.747 531.836 576.367 531.836 577.994C531.836 578.921 531.836 579.84 531.836 580.759C531.836 582.522 531.792 584.28 531.705 586.033C531.614 588.288 531.475 590.548 531.288 592.813C531.075 595.276 530.699 597.966 529.123 599.699C529.027 599.804 528.925 599.902 528.822 600L526.603 599.699C511.305 597.684 495.86 597.381 480.507 598.795C480.842 596.248 481.151 593.709 481.452 591.155C481.589 589.95 481.726 588.737 481.856 587.524C482.007 586.138 482.151 584.752 482.288 583.366C482.445 581.859 482.589 580.352 482.726 578.845C483.082 574.963 483.395 571.078 483.664 567.191C484.062 561.52 484.363 555.84 484.568 550.149C484.669 547.432 484.747 544.713 484.801 541.99C484.879 538.615 484.916 535.238 484.911 531.858C484.911 528.573 484.886 525.283 484.836 521.988C484.836 520.903 484.795 519.819 484.712 518.741C484.653 517.771 484.532 516.807 484.349 515.856C483.841 513.663 483.153 511.524 482.295 509.467C482.144 509.076 482 508.714 481.856 508.3C481.774 508.096 481.699 507.885 481.623 507.682C485.569 503.817 488.377 498.641 491.075 493.549C495.452 485.344 499.932 476.778 500.664 467.301C501.397 457.824 497.116 447.178 488.884 444.286C486.644 443.532 484.274 443.321 481.966 442.877C479.788 442.455 475.247 441.498 472.726 439.78C471.356 441.327 469.986 442.847 468.616 444.338C468.7 442.062 469.205 439.829 470.103 437.776L471.075 437.829C470.996 437.588 470.959 437.332 470.966 437.076C470.966 436.27 471.473 435.358 472.555 434.349C475.781 431.335 480.856 430.665 482.89 426.589C483.74 424.894 483.884 422.875 484.568 421.097C486.534 416.027 492.178 414.158 495.575 410.105C498.973 406.052 499.822 400.311 502.569 395.791C504.62 392.49 507.466 389.882 510.788 388.257C511.062 388.114 511.342 387.971 511.623 387.843C517.308 385.168 524.062 384.558 529.952 384.573C532.24 384.573 538.171 384.649 541.075 385.922C541.546 386.107 541.978 386.397 542.342 386.773C545.438 390.48 540.623 398.307 538.336 400.989Z" fill="#4C4981"/>
<path d="M470.336 437.249C475.627 435.497 481.182 434.919 486.677 435.549C492.173 436.179 497.5 438.004 502.349 440.918C507.281 443.931 511.706 448.135 514.418 453.559C518.493 461.696 518.315 471.505 518.027 480.794C517.884 485.442 517.699 490.256 515.836 494.43C513.678 499.259 509.61 502.574 505.459 505.286C502.859 507.111 500.01 508.466 497.021 509.301C492.418 510.401 487.637 509.467 483 508.548C477.959 507.524 472.548 506.288 469.048 502.159C466.993 499.764 465.87 496.652 464.76 493.609C463.167 489.214 461.569 484.824 459.966 480.44C457.192 472.823 456.253 466.487 459.918 459.067C461.582 455.684 463.616 452.52 465.26 449.115C466.082 447.382 469.027 437.693 470.336 437.249Z" fill="#4C4981"/>
<path d="M758.199 567.484V590.01C744.149 596.43 729.077 599.708 713.863 599.653H529.144C529.048 599.759 528.945 599.857 528.843 599.955L526.623 599.653H198.041C170.473 599.653 144.925 591.472 123.973 577.534V543.143L282 523.08H282.123L374.151 531.654L397.966 533.914L410.336 535.067L435.938 537.455L449.11 538.683L468.288 540.476L470.986 540.724L484.808 542.013L503.562 543.708L529.932 546.164L573.89 550.27L604.815 553.155L655.596 557.894L665.253 558.79L666.295 558.888L667.199 558.971L679.952 560.161L693.952 561.472L695.575 561.623L758.199 567.484Z" fill="#504F60"/>
<path d="M572.582 566.656L374.541 529.477L366.863 572.185L457.644 584.141L485.596 587.991L562.486 571.334L572.582 566.656Z" fill="#9C9CA1"/>
<path d="M470.069 585.852L569.288 565.337C569.784 565.233 570.295 565.25 570.785 565.389C571.274 565.527 571.73 565.783 572.119 566.138C572.508 566.493 572.82 566.939 573.034 567.442C573.248 567.946 573.358 568.495 573.356 569.051V569.051C573.358 569.933 573.079 570.788 572.567 571.467C572.055 572.145 571.343 572.605 570.555 572.765L473.658 592.722L470.069 585.852Z" fill="#9C9CA1"/>
<path d="M513.11 521.34C516.199 521.024 519.329 520.489 522.11 518.982C525.534 517.106 528.199 513.874 531.37 511.494C538.343 506.22 547.671 505.512 555.665 508.541C563.658 511.569 570.329 518.056 575 525.8C578.103 530.961 580.432 537.545 578.24 543.241C577.488 544.982 576.54 546.612 575.418 548.093L569.706 556.304C568.62 558.031 567.315 559.576 565.829 560.892C563.692 562.603 561.034 563.303 558.418 563.725C551.466 564.84 544.391 564.207 537.384 564.719C525.35 565.601 513.596 569.865 501.534 569.722C494.603 569.639 487.76 568.102 480.987 566.565L451.007 559.785C445.788 558.61 439.891 556.892 437.432 551.686C436.329 549.343 436.124 546.631 435.993 543.994C435.637 536.732 435.993 528.656 440.569 523.42C444.87 518.508 451.671 516.956 456.808 513.324C463.096 508.872 465.171 510.311 471.802 513.656C484.736 520.099 498.968 522.747 513.11 521.34V521.34Z" fill="#FFB8B8"/>
<path opacity="0.05" d="M513.219 521.589C516.308 521.273 519.438 520.738 522.219 519.231C525.644 517.355 528.308 514.123 531.479 511.742C538.452 506.469 547.781 505.761 555.774 508.789C563.767 511.818 570.438 518.304 575.11 526.049C578.212 531.21 580.541 537.794 578.349 543.49C577.597 545.231 576.649 546.861 575.527 548.341L569.815 556.553C568.73 558.279 567.424 559.824 565.938 561.141C563.801 562.851 561.144 563.552 558.527 563.974C551.575 565.089 544.5 564.456 537.493 564.968C525.459 565.85 513.705 570.114 501.644 569.971C494.712 569.888 487.87 568.351 481.096 566.814L451.116 560.034C445.897 558.858 440 557.141 437.541 551.935C436.438 549.592 436.233 546.88 436.103 544.243C435.747 536.98 436.103 528.904 440.678 523.668C444.979 518.756 451.781 517.204 456.918 513.573C463.205 509.121 465.281 510.56 471.911 513.905C484.846 520.348 499.077 522.995 513.219 521.589V521.589Z" fill="black"/>
<path d="M633.5 511.012C625.089 514.59 616.63 518.184 607.822 520.316C593.055 523.894 577.603 523.329 562.952 527.42C555.212 529.59 547.521 533.085 539.569 532.377C536.014 532.061 532.582 530.87 529.123 529.966C509.692 524.693 487.603 526.403 471.822 539.964C466.425 544.597 462.007 550.375 458 556.538C457.143 557.869 456.563 559.392 456.303 560.998C456.043 562.604 456.109 564.253 456.495 565.828C456.882 567.403 457.58 568.864 458.54 570.108C459.5 571.351 460.698 572.346 462.048 573.022C468.185 576.126 474.759 578.055 481.486 578.725C490.48 579.599 499.514 578.197 508.459 576.796C521.733 574.724 535.014 572.645 548.253 570.317C553.007 569.481 557.76 568.614 562.541 567.951C596.945 563.167 631.973 568.984 666.466 564.991C669.952 564.584 673.5 564.056 676.671 562.422C684.699 558.278 688.671 547.354 687.014 537.756C685.356 528.158 678.959 520.18 671.26 515.283C664.808 511.162 657.849 509.497 650.664 507.749C643.993 506.039 639.925 508.299 633.5 511.012Z" fill="#FFB8B8"/>
<path opacity="0.1" d="M707.288 453.635C711.082 459.104 711.891 466.442 711.48 473.29C711.069 480.138 709.589 486.911 709.37 493.789C709.069 503.222 711.137 512.624 710.788 522.026C710.541 528.603 709.124 535.052 707.445 541.365C705.466 548.816 702.603 556.824 696.35 560.403C688.048 565.156 670.637 562.482 661.904 566.204C662.699 560.757 670.315 552.869 671.11 547.422C671.658 543.655 672.213 539.783 671.624 536.008C670.87 531.194 668.302 526.923 665.254 523.367C660.404 517.709 654.076 513.452 647.124 512.066C640.172 510.68 623.151 511.818 617.589 516.647C616.904 511.659 629.644 506.853 634.124 505.776C636.356 505.226 638.918 505.535 640.706 503.975C644.13 501.022 641.644 495.138 641.808 490.414C641.939 486.648 643.939 483.197 644.343 479.43C645.028 473.403 641.452 467.263 642.856 461.349C643.377 459.164 644.534 457.243 645.336 455.164C647.774 448.798 646.706 441.536 645.404 434.77C644.596 430.521 643.808 425.73 645.959 422.106C647.952 418.723 653.61 430.77 657.233 430.212C669.199 428.367 680.028 418.61 689.692 426.596C694.617 430.664 695.261 434.883 697.226 440.692C699.137 446.222 704.089 449.054 707.288 453.635Z" fill="black"/>
<path d="M709.343 453.635C713.137 459.104 713.945 466.442 713.534 473.29C713.123 480.138 711.644 486.911 711.425 493.79C711.123 503.222 713.192 512.624 712.843 522.026C712.596 528.603 711.178 535.052 709.5 541.365C707.521 548.816 704.658 556.824 698.404 560.403C690.103 565.157 672.692 562.482 663.959 566.204C664.754 560.757 672.37 552.869 673.165 547.422C673.712 543.655 674.267 539.783 673.678 536.009C672.925 531.195 670.356 526.923 667.308 523.367C662.459 517.709 656.13 513.453 649.178 512.066C642.226 510.68 625.206 511.818 619.644 516.647C618.959 511.66 631.699 506.853 636.178 505.776C638.411 505.226 640.973 505.535 642.76 503.975C646.185 501.022 643.699 495.138 643.863 490.414C643.993 486.648 645.993 483.197 646.397 479.43C647.082 473.403 643.507 467.263 644.911 461.349C645.432 459.165 646.589 457.243 647.391 455.164C649.829 448.798 648.76 441.536 647.459 434.77C646.651 430.521 645.863 425.73 648.014 422.106C650.007 418.724 653.904 417.443 657.528 416.878C669.659 415.073 681.951 418.561 691.774 426.596C696.699 430.665 697.343 434.883 699.308 440.692C701.192 446.222 706.144 449.054 709.343 453.635Z" fill="#4C4981"/>
<path d="M256.144 417.94L293.384 569.323C293.841 571.177 294.8 572.835 296.135 574.075C297.471 575.314 299.117 576.077 300.856 576.261L468.473 593.973C469.839 594.118 471.217 593.901 472.491 593.339C473.765 592.778 474.898 591.889 475.795 590.747C476.693 589.605 477.328 588.243 477.649 586.775C477.969 585.307 477.965 583.776 477.637 582.311L436.856 399.708C436.371 397.538 435.202 395.627 433.557 394.315C431.911 393.003 429.896 392.376 427.87 392.544L263.767 406.044C262.507 406.152 261.284 406.564 260.186 407.251C259.087 407.939 258.14 408.884 257.412 410.02C256.684 411.156 256.193 412.455 255.974 413.824C255.755 415.193 255.813 416.599 256.144 417.94V417.94Z" fill="#9C9CA1"/>
<path d="M588.411 447.48C598.587 447.48 606.836 438.288 606.836 426.95C606.836 415.612 598.587 406.421 588.411 406.421C578.235 406.421 569.986 415.612 569.986 426.95C569.986 438.288 578.235 447.48 588.411 447.48Z" fill="white"/>
<path d="M603.541 389.5C603.541 389.5 607.425 402.202 595.966 407.543L594.5 410.361L601.678 418.151C601.678 418.151 610.528 400.394 609.569 394.088C609.569 394.088 608.199 387.684 603.541 389.5Z" fill="white"/>
<path d="M590.527 447.48C600.34 447.48 608.295 438.73 608.295 427.937C608.295 417.144 600.34 408.395 590.527 408.395C580.715 408.395 572.76 417.144 572.76 427.937C572.76 438.73 580.715 447.48 590.527 447.48Z" fill="#1F4386"/>
<path d="M609.658 396.974L606.836 391.851L602.726 391.21C603.603 374.342 599.623 369.317 599.623 369.317L598.699 369.219L594.671 368.79L587.096 360.141V357.685C597.74 359.079 603.623 364.639 606.801 371.155C612.418 382.592 609.658 396.974 609.658 396.974Z" fill="#1F4386"/>
<path opacity="0.1" d="M598.733 366.116V369.22L594.706 368.79L587.13 360.141C587.13 360.141 598.85 363.027 598.733 366.116Z" fill="black" stroke="#4C4981" stroke-miterlimit="10"/>
<path opacity="0.1" d="M609.657 396.974L606.835 391.851V371.186C612.418 382.592 609.657 396.974 609.657 396.974Z" fill="black" stroke="#4C4981" stroke-miterlimit="10"/>
<path d="M557.696 435.97C562.423 432.968 562.22 422.847 557.242 413.363C552.264 403.879 544.396 398.624 539.669 401.626C534.942 404.628 535.145 414.75 540.123 424.234C545.101 433.718 552.969 438.972 557.696 435.97Z" fill="white"/>
<path d="M551.35 417.141C556.329 426.626 562.439 432.962 557.713 435.976C552.987 438.989 539.219 437.482 534.24 427.99C529.261 418.497 533.781 405.389 538.507 402.375C543.233 399.362 546.363 407.634 551.35 417.141Z" fill="#1F4386"/>
<path opacity="0.1" d="M595.685 348.811C595.685 379.119 576.829 408.327 549.274 408.327C536.041 408.327 523.349 402.545 513.992 392.252C504.634 381.959 499.377 368 499.377 353.444C499.377 338.888 504.634 324.928 513.992 314.635C523.349 304.343 536.041 298.561 549.274 298.561C576.829 298.591 595.685 318.495 595.685 348.811Z" fill="black"/>
<path d="M549.274 406.85C576.832 406.85 599.171 382.278 599.171 351.967C599.171 321.656 576.832 297.084 549.274 297.084C521.717 297.084 499.377 321.656 499.377 351.967C499.377 382.278 521.717 406.85 549.274 406.85Z" fill="#FFB8B8"/>
<path d="M544.89 327.648C550.829 330.052 554.343 336.802 559.671 340.561C567.206 345.835 577.014 344.471 585.616 341.864C590.411 340.426 595.425 338.67 600.144 340.267C600.838 340.605 601.604 340.725 602.356 340.614C603.384 340.29 603.89 339.039 604.226 337.924C610.062 318.789 607.438 297.114 598.63 279.41C596.356 274.844 593.63 270.43 589.877 267.258C586.918 264.764 583.438 263.13 579.932 261.736C573.523 259.204 566.894 257.404 560.151 256.364C558.96 256.126 557.744 256.083 556.541 256.236C554.89 256.53 553.411 257.509 551.938 258.383C545.631 262.102 538.637 264.192 531.486 264.493C521.897 264.892 510.938 262.406 503.548 269.172C494.644 277.285 496.863 293.114 491.089 304.128C487.267 311.413 479.897 316.702 478.685 324.996C478.369 327.532 478.516 330.111 479.116 332.583C481.938 345.345 493.171 355.229 505.144 355.463C506.982 355.617 508.824 355.202 510.459 354.265C511.53 353.461 512.476 352.471 513.26 351.334C521.103 341.119 530.075 321.651 544.89 327.648Z" fill="#444053"/>
<path opacity="0.1" d="M604.226 332.372C603.89 333.487 603.384 334.737 602.356 335.061C601.604 335.173 600.838 335.053 600.144 334.715C595.425 333.118 590.384 334.873 585.623 336.312C577.014 338.919 567.185 340.312 559.678 335.009C554.342 331.242 550.836 324.461 544.89 322.096C530.075 316.069 521.103 335.566 513.24 345.782C512.456 346.919 511.51 347.908 510.438 348.713C508.803 349.65 506.962 350.065 505.123 349.91C493.192 349.677 481.952 339.793 479.096 327.031C478.938 326.277 478.801 325.524 478.699 324.77C478.699 324.838 478.699 324.898 478.664 324.966C478.349 327.501 478.495 330.081 479.096 332.553C481.918 345.315 493.158 355.199 505.123 355.433C506.962 355.587 508.803 355.172 510.438 354.235C511.51 353.431 512.456 352.441 513.24 351.304C521.103 341.088 530.075 321.621 544.89 327.618C550.836 330.021 554.342 336.772 559.678 340.531C567.212 345.805 577.014 344.441 585.623 341.834C590.418 340.395 595.425 338.64 600.144 340.237C600.838 340.575 601.604 340.695 602.356 340.584C603.384 340.26 603.89 339.009 604.226 337.894C606.58 330.064 607.62 321.829 607.295 313.59C607.093 319.98 606.06 326.305 604.226 332.372V332.372Z" fill="black"/>
</svg>
