<svg width="855" height="621" viewBox="0 0 855 621" fill="none" xmlns="http://www.w3.org/2000/svg">
<path d="M704.461 104.249C722.314 122.973 742.232 125.961 764.215 113.212C754.99 98.4286 752.794 82.348 755.252 65.4087H712.428C714.325 80.2943 713.815 94.1546 704.461 104.249Z" fill="#FFB8B8"/>
<path d="M775.17 594.237L798.077 582.287L808.035 455.806V389.08L755.252 388.084L770.19 454.811L775.17 594.237Z" fill="#FFB8B8"/>
<path d="M708.772 594.237L685.867 582.287L675.908 455.806V389.08L728.691 388.084L713.752 454.811L708.772 594.237Z" fill="#FFB8B8"/>
<path d="M673.588 403.023L729.359 398.043L738.322 347.252L749.277 397.047L810.027 393.064C811.355 368.865 807.983 343.96 800.068 318.37L666.616 315.383L673.588 403.023Z" fill="#2F2E41"/>
<path d="M615.62 212.273L548.533 160.614C547.837 160.078 547.072 159.638 546.257 159.307L536.507 155.34C528.675 152.153 513.758 141.555 521.033 130.642C526.899 121.843 549.351 137.605 552.113 143.444C552.986 145.282 554.418 146.796 556.204 147.771L569.837 155.242C570.168 155.424 570.51 155.586 570.861 155.728L622.766 176.767C624.205 177.35 625.762 177.581 627.308 177.442C628.855 177.302 630.345 176.796 631.656 175.964L641.067 169.997C642.406 169.148 643.931 168.639 645.512 168.512C647.092 168.385 648.68 168.645 650.137 169.27C651.594 169.895 652.877 170.865 653.875 172.097C654.872 173.33 655.555 174.786 655.863 176.341L658.973 192.038C659.421 194.298 659.055 196.644 657.939 198.66C656.823 200.676 655.03 202.232 652.877 203.052L625.048 213.66C623.489 214.254 621.804 214.438 620.153 214.196C618.503 213.953 616.942 213.291 615.62 212.273Z" fill="#FFB8B8"/>
<path d="M628.081 174.634C646.655 169.654 644.705 195.603 658.876 208.362L686.738 186.366L670.599 108.233C666.27 109.47 662.287 111.697 658.966 114.738C655.645 117.779 653.076 121.551 651.464 125.755L628.081 174.634Z" fill="#0A1E3B"/>
<path d="M662.632 320.362H803.056C780.329 259.12 782.542 196.132 801.892 131.945C802.217 130.88 802.16 129.734 801.731 128.706C801.302 127.678 800.527 126.832 799.541 126.314L759.235 105.245C743.414 115.54 726.41 112.377 708.444 98.274L664.624 110.225C676.553 181.869 676.892 252.042 662.632 320.362Z" fill="#0A1E3B"/>
<path d="M697.745 617.629L639.224 620.109C636.676 620.218 634.178 619.379 632.211 617.756C630.244 616.132 628.947 613.839 628.57 611.316C628.189 608.769 628.773 606.171 630.208 604.032C631.643 601.893 633.826 600.367 636.327 599.754L646.253 597.321L685.265 574.709C691.045 580.694 699.004 585.754 708.733 590.064L708.847 605.962C708.869 608.966 707.723 611.862 705.652 614.038C703.581 616.214 700.746 617.502 697.745 617.629Z" fill="#2F2E41"/>
<path d="M785.712 616.74L844.232 619.221C846.78 619.329 849.278 618.49 851.245 616.867C853.212 615.244 854.509 612.95 854.886 610.428C855.267 607.88 854.683 605.282 853.248 603.143C851.813 601.004 849.63 599.479 847.129 598.865L837.203 596.432L798.191 573.82C792.411 579.805 784.452 584.866 774.723 589.175L774.609 605.073C774.587 608.078 775.733 610.973 777.804 613.149C779.875 615.326 782.71 616.613 785.712 616.74Z" fill="#2F2E41"/>
<path d="M729.358 83.3352C746.959 83.3352 761.228 69.0669 761.228 51.466C761.228 33.8652 746.959 19.5969 729.358 19.5969C711.758 19.5969 697.489 33.8652 697.489 51.466C697.489 69.0669 711.758 83.3352 729.358 83.3352Z" fill="#FFB8B8"/>
<path d="M779.154 310.403L768.625 330.875C767.696 332.682 767.16 334.665 767.052 336.693C766.944 338.722 767.266 340.75 767.998 342.646C768.73 344.541 769.854 346.26 771.298 347.689C772.741 349.118 774.471 350.226 776.373 350.94C778.386 351.695 780.543 351.989 782.685 351.801C784.827 351.614 786.9 350.948 788.751 349.855C790.602 348.761 792.185 347.267 793.383 345.481C794.581 343.696 795.364 341.665 795.674 339.537L800.068 309.407L816.003 233.718L815.007 195.873H783.138C794.008 224.021 788.615 265.539 779.154 310.403Z" fill="#FFB8B8"/>
<path d="M778.158 199.857H820.982L814.766 152.892C813.923 146.522 811.498 140.466 807.713 135.274C803.928 130.083 798.903 125.922 793.097 123.172L778.158 199.857Z" fill="#0A1E3B"/>
<path d="M763.24 33.912C763.876 29.6548 763.609 25.3111 762.455 21.1641C761.301 17.0172 759.286 13.1599 756.541 9.84372C751.104 3.40953 741.99 -1.85681 726.869 0.62756C693.879 6.04813 684.366 33.5123 687.598 40.4192C690.83 47.3261 700.737 63.3369 700.737 63.3369C700.737 63.3369 693.466 47.4877 701.357 44.2617C709.249 41.0355 739.788 28.3266 750.447 34.052C753.464 35.567 756.026 37.8545 757.872 40.6817C759.718 43.5088 760.781 46.7747 760.954 50.1466L763.24 33.912Z" fill="#2F2E41"/>
<path d="M97.2642 183.041V172.449C97.2642 172.449 143.481 146.452 181.032 172.449V182.078L97.2642 183.041Z" fill="#535461"/>
<path d="M518.031 183.041V172.449C518.031 172.449 564.248 146.452 601.799 172.449V182.078L518.031 183.041Z" fill="#535461"/>
<path d="M235.915 182.077H190.661C190.661 182.077 179.107 168.597 140.593 169.56C102.079 170.523 94.3757 182.077 94.3757 182.077C94.3757 182.077 56.343 207.593 47.6774 239.367C47.6774 239.367 0.978984 379.462 0.0161356 489.228C-0.946713 598.993 41.4188 614.398 63.5644 617.287C85.7101 620.176 125.187 616.324 163.701 519.076L180.07 462.268C180.07 462.268 182.958 428.568 217.621 449.751C252.284 470.933 283.095 438.196 283.095 438.196H413.08C413.08 438.196 456.409 465.156 495.885 443.973C495.885 443.973 511.291 423.754 525.734 492.116C525.734 492.116 570.025 632.693 638.388 618.25C706.75 603.807 699.047 486.339 699.047 486.339C699.047 486.339 689.9 306.767 652.349 243.219C652.349 243.219 616.242 177.263 592.171 174.375C592.171 174.375 540.177 164.746 519.957 173.412L508.403 183.04L235.915 182.077Z" fill="#E6E6E6"/>
<path d="M130.964 360.205C177.228 360.205 214.732 322.701 214.732 276.437C214.732 230.173 177.228 192.669 130.964 192.669C84.7001 192.669 47.1958 230.173 47.1958 276.437C47.1958 322.701 84.7001 360.205 130.964 360.205Z" fill="#535461"/>
<path d="M568.099 360.205C614.363 360.205 651.867 322.701 651.867 276.437C651.867 230.173 614.363 192.669 568.099 192.669C521.835 192.669 484.331 230.173 484.331 276.437C484.331 322.701 521.835 360.205 568.099 360.205Z" fill="#535461"/>
<path d="M145.561 257.758L134.392 267.637C133.446 268.469 132.229 268.929 130.969 268.929C129.709 268.929 128.492 268.469 127.546 267.637L116.358 257.758C115.81 257.276 115.371 256.683 115.069 256.02C114.767 255.356 114.609 254.636 114.605 253.906V226.725C114.608 225.353 115.155 224.038 116.126 223.068C117.097 222.099 118.413 221.554 119.785 221.554H142.172C143.543 221.552 144.859 222.094 145.831 223.062C146.802 224.03 147.349 225.344 147.352 226.715V253.887C147.346 254.623 147.183 255.348 146.874 256.016C146.565 256.683 146.118 257.277 145.561 257.758Z" fill="#E6E6E6"/>
<path d="M145.561 295.107L134.392 285.238C133.446 284.405 132.229 283.946 130.969 283.946C129.709 283.946 128.492 284.405 127.546 285.238L116.358 295.117C115.81 295.599 115.371 296.191 115.069 296.855C114.767 297.519 114.609 298.239 114.605 298.968V326.12C114.603 327.492 115.145 328.808 116.113 329.779C117.081 330.751 118.395 331.298 119.766 331.301H142.172C143.543 331.303 144.859 330.761 145.831 329.793C146.802 328.825 147.349 327.511 147.352 326.14V298.978C147.346 298.242 147.183 297.516 146.874 296.849C146.565 296.181 146.118 295.588 145.561 295.107Z" fill="#E6E6E6"/>
<path d="M112.294 291.053L122.173 279.865C123.006 278.919 123.465 277.702 123.465 276.442C123.465 275.182 123.006 273.965 122.173 273.019L112.294 261.831C111.812 261.284 111.219 260.845 110.555 260.543C109.892 260.241 109.172 260.083 108.443 260.078H81.2902C79.918 260.081 78.6029 260.628 77.6335 261.599C76.6641 262.57 76.1196 263.886 76.1196 265.259V287.645C76.1171 289.016 76.6594 290.332 77.6273 291.304C78.5951 292.275 79.9092 292.822 81.2805 292.825H108.452C109.181 292.817 109.901 292.655 110.563 292.35C111.225 292.045 111.815 291.603 112.294 291.053Z" fill="#E6E6E6"/>
<path d="M149.643 291.053L139.784 279.855C138.949 278.91 138.489 277.693 138.489 276.432C138.489 275.172 138.949 273.954 139.784 273.009L149.663 261.821C150.145 261.274 150.737 260.835 151.401 260.533C152.065 260.231 152.785 260.073 153.514 260.069H180.666C182.038 260.066 183.354 260.608 184.325 261.576C185.297 262.544 185.844 263.858 185.847 265.229V287.635C185.849 289.006 185.307 290.323 184.339 291.294C183.371 292.265 182.057 292.813 180.686 292.815H153.524C152.789 292.814 152.063 292.656 151.393 292.353C150.724 292.049 150.128 291.606 149.643 291.053Z" fill="#E6E6E6"/>
<path d="M244.581 428.568C278.082 428.568 305.24 401.41 305.24 367.908C305.24 334.407 278.082 307.248 244.581 307.248C211.079 307.248 183.921 334.407 183.921 367.908C183.921 401.41 211.079 428.568 244.581 428.568Z" fill="#535461"/>
<path d="M454.482 428.568C487.984 428.568 515.142 401.41 515.142 367.908C515.142 334.407 487.984 307.248 454.482 307.248C420.981 307.248 393.823 334.407 393.823 367.908C393.823 401.41 420.981 428.568 454.482 428.568Z" fill="#535461"/>
<path d="M244.581 408.348C266.915 408.348 285.021 390.242 285.021 367.908C285.021 345.574 266.915 327.468 244.581 327.468C222.247 327.468 204.141 345.574 204.141 367.908C204.141 390.242 222.247 408.348 244.581 408.348Z" fill="#E6E6E6"/>
<path d="M244.581 395.831C239.058 395.831 233.66 394.193 229.068 391.125C224.476 388.057 220.897 383.696 218.784 378.593C216.67 373.491 216.117 367.877 217.195 362.46C218.272 357.044 220.932 352.069 224.837 348.163C228.742 344.258 233.717 341.599 239.134 340.522C244.55 339.444 250.164 339.997 255.267 342.111C260.369 344.224 264.73 347.803 267.798 352.395C270.866 356.987 272.504 362.385 272.504 367.908C272.495 375.311 269.551 382.408 264.316 387.643C259.081 392.878 251.984 395.822 244.581 395.831ZM244.581 341.911C239.439 341.911 234.413 343.436 230.138 346.292C225.863 349.149 222.531 353.209 220.563 357.959C218.595 362.71 218.08 367.937 219.084 372.98C220.087 378.023 222.563 382.655 226.198 386.291C229.834 389.926 234.466 392.402 239.509 393.405C244.552 394.409 249.779 393.894 254.53 391.926C259.28 389.958 263.34 386.626 266.197 382.351C269.053 378.076 270.578 373.05 270.578 367.908C270.57 361.015 267.829 354.408 262.955 349.534C258.081 344.66 251.473 341.919 244.581 341.911Z" fill="#535461"/>
<path d="M454.483 408.348C476.817 408.348 494.923 390.242 494.923 367.908C494.923 345.574 476.817 327.468 454.483 327.468C432.148 327.468 414.043 345.574 414.043 367.908C414.043 390.242 432.148 408.348 454.483 408.348Z" fill="#E6E6E6"/>
<path d="M454.483 395.831C448.96 395.831 443.562 394.193 438.97 391.125C434.378 388.057 430.799 383.696 428.686 378.593C426.572 373.491 426.019 367.877 427.097 362.46C428.174 357.044 430.833 352.069 434.738 348.163C438.644 344.258 443.619 341.599 449.035 340.522C454.452 339.444 460.066 339.997 465.168 342.111C470.271 344.224 474.632 347.803 477.7 352.395C480.768 356.987 482.406 362.385 482.406 367.908C482.397 375.311 479.452 382.408 474.218 387.643C468.983 392.878 461.886 395.822 454.483 395.831ZM454.483 341.911C449.341 341.911 444.315 343.436 440.04 346.292C435.764 349.149 432.432 353.209 430.465 357.959C428.497 362.71 427.982 367.937 428.985 372.98C429.988 378.023 432.464 382.655 436.1 386.291C439.736 389.926 444.368 392.402 449.411 393.405C454.454 394.409 459.681 393.894 464.431 391.926C469.182 389.958 473.242 386.626 476.099 382.351C478.955 378.076 480.48 373.05 480.48 367.908C480.472 361.015 477.731 354.408 472.857 349.534C467.983 344.66 461.375 341.919 454.483 341.911Z" fill="#535461"/>
<path d="M351.457 391.979C361.029 391.979 368.789 384.22 368.789 374.648C368.789 365.076 361.029 357.317 351.457 357.317C341.886 357.317 334.126 365.076 334.126 374.648C334.126 384.22 341.886 391.979 351.457 391.979Z" fill="#535461"/>
<path d="M324.97 320.584C327.059 320.584 328.754 318.89 328.754 316.8C328.754 314.71 327.059 313.016 324.97 313.016C322.88 313.016 321.186 314.71 321.186 316.8C321.186 318.89 322.88 320.584 324.97 320.584Z" fill="#535461"/>
<path d="M339.142 320.584C341.232 320.584 342.926 318.89 342.926 316.8C342.926 314.71 341.232 313.016 339.142 313.016C337.053 313.016 335.358 314.71 335.358 316.8C335.358 318.89 337.053 320.584 339.142 320.584Z" fill="#535461"/>
<path d="M337.255 338.541C339.345 338.541 341.039 336.847 341.039 334.757C341.039 332.667 339.345 330.973 337.255 330.973C335.166 330.973 333.471 332.667 333.471 334.757C333.471 336.847 335.166 338.541 337.255 338.541Z" fill="#535461"/>
<path d="M350.494 339.023C352.622 339.023 354.346 337.298 354.346 335.171C354.346 333.044 352.622 331.32 350.494 331.32C348.367 331.32 346.643 333.044 346.643 335.171C346.643 337.298 348.367 339.023 350.494 339.023Z" fill="#535461"/>
<path d="M363.714 338.541C365.804 338.541 367.499 336.847 367.499 334.757C367.499 332.667 365.804 330.973 363.714 330.973C361.625 330.973 359.93 332.667 359.93 334.757C359.93 336.847 361.625 338.541 363.714 338.541Z" fill="#535461"/>
<path d="M331.584 330.039C333.674 330.039 335.368 328.345 335.368 326.255C335.368 324.165 333.674 322.471 331.584 322.471C329.494 322.471 327.8 324.165 327.8 326.255C327.8 328.345 329.494 330.039 331.584 330.039Z" fill="#535461"/>
<path d="M343.755 330.357C345.882 330.357 347.606 328.633 347.606 326.505C347.606 324.378 345.882 322.654 343.755 322.654C341.628 322.654 339.903 324.378 339.903 326.505C339.903 328.633 341.628 330.357 343.755 330.357Z" fill="#535461"/>
<path d="M356.271 330.357C358.398 330.357 360.123 328.633 360.123 326.505C360.123 324.378 358.398 322.654 356.271 322.654C354.144 322.654 352.42 324.378 352.42 326.505C352.42 328.633 354.144 330.357 356.271 330.357Z" fill="#535461"/>
<path d="M369.386 330.039C371.475 330.039 373.17 328.345 373.17 326.255C373.17 324.165 371.475 322.471 369.386 322.471C367.296 322.471 365.602 324.165 365.602 326.255C365.602 328.345 367.296 330.039 369.386 330.039Z" fill="#535461"/>
<path d="M350.494 320.728C352.622 320.728 354.346 319.004 354.346 316.877C354.346 314.75 352.622 313.025 350.494 313.025C348.367 313.025 346.643 314.75 346.643 316.877C346.643 319.004 348.367 320.728 350.494 320.728Z" fill="#535461"/>
<path d="M363.974 320.728C366.102 320.728 367.826 319.004 367.826 316.877C367.826 314.75 366.102 313.025 363.974 313.025C361.847 313.025 360.123 314.75 360.123 316.877C360.123 319.004 361.847 320.728 363.974 320.728Z" fill="#535461"/>
<path d="M375.057 320.584C377.147 320.584 378.841 318.89 378.841 316.8C378.841 314.71 377.147 313.016 375.057 313.016C372.967 313.016 371.273 314.71 371.273 316.8C371.273 318.89 372.967 320.584 375.057 320.584Z" fill="#535461"/>
<path d="M207.511 190.284C205.73 190.286 204.022 190.994 202.763 192.254C201.504 193.513 200.795 195.22 200.793 197.002V217.222C200.795 219.003 201.504 220.711 202.763 221.97C204.022 223.229 205.73 223.938 207.511 223.94H212.325C214.107 223.938 215.814 223.229 217.073 221.97C218.333 220.711 219.041 219.003 219.043 217.222V197.002C219.041 195.22 218.333 193.513 217.073 192.254C215.814 190.994 214.107 190.286 212.325 190.284H207.511Z" fill="#535461"/>
<path d="M488.664 190.284C486.882 190.286 485.175 190.994 483.915 192.253C482.656 193.513 481.948 195.22 481.946 197.002V217.222C481.948 219.003 482.656 220.711 483.915 221.97C485.175 223.23 486.882 223.938 488.664 223.94H493.478C495.259 223.938 496.967 223.23 498.226 221.97C499.486 220.711 500.194 219.003 500.196 217.222V197.002C500.194 195.22 499.486 193.513 498.226 192.253C496.967 190.994 495.259 190.286 493.478 190.284H488.664Z" fill="#535461"/>
<path d="M569.062 248.514C581.825 248.514 592.171 238.168 592.171 225.406C592.171 212.644 581.825 202.297 569.062 202.297C556.3 202.297 545.954 212.644 545.954 225.406C545.954 238.168 556.3 248.514 569.062 248.514Z" fill="#E6E6E6"/>
<path d="M519.957 297.62C532.719 297.62 543.065 287.274 543.065 274.511C543.065 261.749 532.719 251.403 519.957 251.403C507.194 251.403 496.848 261.749 496.848 274.511C496.848 287.274 507.194 297.62 519.957 297.62Z" fill="#E6E6E6"/>
<path d="M620.093 294.731C632.856 294.731 643.202 284.385 643.202 271.623C643.202 258.86 632.856 248.514 620.093 248.514C607.331 248.514 596.985 258.86 596.985 271.623C596.985 284.385 607.331 294.731 620.093 294.731Z" fill="#E6E6E6"/>
<path d="M572.914 345.762C585.676 345.762 596.022 335.416 596.022 322.654C596.022 309.892 585.676 299.546 572.914 299.546C560.151 299.546 549.805 309.892 549.805 322.654C549.805 335.416 560.151 345.762 572.914 345.762Z" fill="#E6E6E6"/>
<path d="M251.08 176.804C245.917 176.81 240.966 178.864 237.315 182.515C233.664 186.166 231.61 191.116 231.604 196.28V282.455C231.61 287.618 233.664 292.568 237.315 296.22C240.966 299.871 245.917 301.925 251.08 301.93H448.946C454.109 301.925 459.06 299.871 462.711 296.22C466.362 292.568 468.416 287.618 468.422 282.455V196.28C468.416 191.116 466.362 186.166 462.711 182.515C459.06 178.864 454.109 176.81 448.946 176.804H251.08Z" fill="#535461"/>
<path d="M584.762 235.997H553.425L568.553 210.064L584.762 235.997ZM556.778 234.071H581.286L568.609 213.788L556.778 234.071Z" fill="#535461"/>
<path d="M532.955 286.066H506.958V262.957H532.955V286.066ZM508.884 284.14H531.03V264.883H508.884V284.14Z" fill="#535461"/>
<path d="M620.094 286.066C617.237 286.066 614.445 285.219 612.07 283.632C609.695 282.045 607.843 279.789 606.75 277.15C605.657 274.511 605.371 271.607 605.928 268.805C606.486 266.004 607.861 263.43 609.881 261.41C611.901 259.391 614.474 258.015 617.276 257.458C620.078 256.9 622.981 257.186 625.621 258.28C628.26 259.373 630.515 261.224 632.102 263.599C633.689 265.974 634.536 268.766 634.536 271.623C634.532 275.452 633.009 279.123 630.302 281.831C627.594 284.538 623.923 286.061 620.094 286.066ZM620.094 259.106C617.618 259.106 615.198 259.84 613.14 261.215C611.081 262.591 609.477 264.546 608.529 266.833C607.582 269.12 607.334 271.637 607.817 274.065C608.3 276.493 609.492 278.723 611.243 280.474C612.993 282.224 615.224 283.416 617.652 283.899C620.08 284.382 622.597 284.135 624.884 283.187C627.171 282.24 629.126 280.635 630.501 278.577C631.877 276.519 632.611 274.098 632.611 271.623C632.607 268.304 631.287 265.123 628.94 262.776C626.594 260.429 623.412 259.109 620.094 259.106Z" fill="#535461"/>
<path d="M562.522 311.141L561.16 312.503L582.824 334.167L584.186 332.805L562.522 311.141Z" fill="#535461"/>
<path d="M583.32 311.125L561.177 332.31L562.508 333.702L584.651 312.516L583.32 311.125Z" fill="#535461"/>
</svg>
