<svg width="1050" height="792" viewBox="0 0 1050 792" fill="none" xmlns="http://www.w3.org/2000/svg">
<path d="M636.504 530.696C636.504 530.696 620.624 525.316 612.984 539.306C610.969 543.099 609.943 547.34 610.002 551.635C610.062 555.93 611.204 560.14 613.324 563.876C618.324 572.946 628.684 584.726 648.324 583.676C664.944 582.786 670.424 570.106 671.944 558.306C672.519 553.882 671.949 549.384 670.288 545.244C668.627 541.103 665.93 537.458 662.457 534.658C658.984 531.858 654.85 529.997 650.451 529.252C646.052 528.508 641.536 528.905 637.334 530.406L636.504 530.696Z" fill="#0A1E3B"/>
<path opacity="0.1" d="M616.684 565.136C614.564 561.4 613.422 557.19 613.362 552.895C613.303 548.6 614.329 544.359 616.344 540.566C623.984 526.566 639.864 531.956 639.864 531.956L640.674 531.666C646.729 529.475 653.384 529.625 659.334 532.086C656.051 530.131 652.374 528.929 648.57 528.565C644.766 528.202 640.929 528.688 637.334 529.986L636.524 530.276C636.524 530.276 620.644 524.896 613.004 538.886C610.989 542.679 609.963 546.92 610.022 551.215C610.082 555.51 611.225 559.72 613.344 563.456C616.654 569.456 622.264 576.566 631.344 580.456C625.148 576.787 620.077 571.488 616.684 565.136Z" fill="white"/>
<path d="M627.044 503.786C627.044 503.786 637.134 531.116 636.294 538.266L644.294 537.426C644.294 537.426 630.834 513.426 634.204 503.786H627.044Z" fill="#0A1E3B"/>
<path opacity="0.2" d="M627.044 503.786C627.044 503.786 637.134 531.116 636.294 538.266L644.294 537.426C644.294 537.426 630.834 513.426 634.204 503.786H627.044Z" fill="black"/>
<path d="M668.234 506.066C668.234 506.066 652.354 497.946 645.234 504.656C638.114 511.366 637.034 528.516 637.034 528.516C637.034 528.516 662.944 532.076 668.234 506.066Z" fill="#0A1E3B"/>
<path opacity="0.1" d="M668.234 506.066C668.234 506.066 652.354 497.946 645.234 504.656C638.114 511.366 637.034 528.516 637.034 528.516C637.034 528.516 662.944 532.076 668.234 506.066Z" fill="white"/>
<path d="M637.044 528.516C637.044 528.516 641.214 508.606 668.234 506.066" stroke="#0A1E3B" stroke-miterlimit="10"/>
<path opacity="0.2" d="M627.044 503.786C627.044 503.786 637.134 531.116 636.294 538.266L644.294 537.426C644.294 537.426 630.834 513.426 634.204 503.786H627.044Z" fill="black"/>
<path opacity="0.1" d="M668.234 506.066C668.234 506.066 652.354 497.946 645.234 504.656C638.114 511.366 637.034 528.516 637.034 528.516C637.034 528.516 662.944 532.076 668.234 506.066Z" fill="white"/>
<path d="M637.044 528.516C637.044 528.516 641.214 508.606 668.234 506.066" stroke="#0A1E3B" stroke-miterlimit="10"/>
<path opacity="0.2" d="M627.044 503.786C627.044 503.786 637.134 531.116 636.294 538.266L644.294 537.426C644.294 537.426 630.834 513.426 634.204 503.786H627.044Z" fill="black"/>
<path opacity="0.1" d="M668.234 506.066C668.234 506.066 652.354 497.946 645.234 504.656C638.114 511.366 637.034 528.516 637.034 528.516C637.034 528.516 662.944 532.076 668.234 506.066Z" fill="white"/>
<path d="M637.044 528.516C637.044 528.516 641.214 508.606 668.234 506.066" stroke="#0A1E3B" stroke-miterlimit="10"/>
<path opacity="0.1" d="M60.4553 414.042C96.1053 459.372 82.2553 525.582 59.6053 578.622C52.0153 596.382 43.4453 615.162 46.6053 634.202C50.5153 657.482 71.2953 674.512 93.1153 683.532C132.885 699.982 180.485 696.062 217.035 673.322C248.615 653.672 271.235 621.722 303.355 602.972C357.115 571.592 425.535 583.442 483.905 605.062C525.205 620.352 570.355 640.242 611.385 624.262C640.255 613.012 660.215 585.642 671.095 556.622C676.345 542.622 680.155 527.452 690.185 516.342C696.185 509.742 703.925 505.052 711.895 501.102C784.665 465.022 876.565 484.342 947.245 444.332C994.975 417.332 1025.54 366.332 1039.07 313.172C1052.6 260.012 1051.07 204.272 1047.59 149.532C1045.15 110.622 1040.77 69.0921 1015.91 39.0621C989.605 7.30207 944.475 -4.51793 903.685 1.52207C862.895 7.56207 825.915 29.0821 793.385 54.4221C752.735 86.1021 715.025 125.542 665.115 138.422C631.115 147.162 595.365 142.422 560.305 140.722C501.695 137.952 443.065 144.112 384.775 150.842C328.975 157.292 272.775 164.392 219.615 182.542C182.005 195.342 151.865 218.662 116.345 234.912C93.1953 245.532 67.9453 248.462 46.0153 261.992C19.0153 278.652 -5.74472 307.632 1.17528 341.542C7.75528 373.812 41.5353 389.982 60.4553 414.042Z" fill="#0A1E3B"/>
<path d="M435 24V41.35V367.96H939.92V41.35V24H435Z" fill="url(#paint0_linear)"/>
<path d="M934.57 39.6001H442.49V361.73H934.57V39.6001Z" fill="white"/>
<path d="M934.57 24.28H442.49V47.98H934.57V24.28Z" fill="#EEEEEE"/>
<path d="M461.21 41.52C464.386 41.52 466.96 38.9457 466.96 35.77C466.96 32.5944 464.386 30.02 461.21 30.02C458.034 30.02 455.46 32.5944 455.46 35.77C455.46 38.9457 458.034 41.52 461.21 41.52Z" fill="#FF5252"/>
<path d="M477.02 41.52C480.196 41.52 482.77 38.9457 482.77 35.77C482.77 32.5944 480.196 30.02 477.02 30.02C473.844 30.02 471.27 32.5944 471.27 35.77C471.27 38.9457 473.844 41.52 477.02 41.52Z" fill="#FFFF00"/>
<path d="M492.82 41.52C495.995 41.52 498.57 38.9457 498.57 35.77C498.57 32.5944 495.995 30.02 492.82 30.02C489.644 30.02 487.07 32.5944 487.07 35.77C487.07 38.9457 489.644 41.52 492.82 41.52Z" fill="#69F0AE"/>
<path opacity="0.5" d="M644.72 85.9402H461.35V93.5802H644.72V85.9402Z" fill="#0A1E3B"/>
<path opacity="0.5" d="M644.72 101.22H461.35V108.86H644.72V101.22Z" fill="#0A1E3B"/>
<path opacity="0.5" d="M644.72 116.5H461.35V124.14H644.72V116.5Z" fill="#0A1E3B"/>
<path opacity="0.5" d="M644.71 131.78H524.55V139.42H644.71V131.78Z" fill="#0A1E3B"/>
<path opacity="0.5" d="M557.9 147.07H461.35V154.71H557.9V147.07Z" fill="#0A1E3B"/>
<path opacity="0.5" d="M587.76 162.35H513.44V169.99H587.76V162.35Z" fill="#0A1E3B"/>
<path opacity="0.5" d="M885.05 139.43H669.03V263.76H885.05V139.43Z" fill="#0A1E3B"/>
<path d="M910.75 151.23H694.73V275.56H910.75V151.23Z" fill="#EEEEEE"/>
<path d="M815.59 275.53H694.73V252.79C724.26 238.99 769.69 231.24 815.59 275.53Z" fill="#0A1E3B"/>
<g opacity="0.1">
<path opacity="0.1" d="M909.36 272.31V275.53H758.63V274.84C758.63 274.84 832.8 202.66 909.36 272.31Z" fill="black"/>
</g>
<path d="M910.75 272.31V275.53H760.02V274.84C760.02 274.84 834.19 202.66 910.75 272.31Z" fill="#0A1E3B"/>
<path d="M719.74 184.57C725.876 184.57 730.85 179.596 730.85 173.46C730.85 167.324 725.876 162.35 719.74 162.35C713.604 162.35 708.63 167.324 708.63 173.46C708.63 179.596 713.604 184.57 719.74 184.57Z" fill="#0A1E3B"/>
<path d="M814.35 165.04C813.08 165.04 811.66 165.04 810.7 165.12C810.266 165.144 809.838 165.232 809.43 165.38L802.89 167.73C808.17 167.86 813.68 167.82 819.08 167.73L849.42 167.5C852.51 167.5 855.77 167.45 858.35 167.26C860.08 167.14 861.35 166.95 862.94 166.81C868.68 166.3 877.06 166.4 884.54 166.42C892.02 166.44 901.05 166.25 903.68 165.5H887.63C885.9 165.5 884.08 165.5 882.55 165.41C880.76 165.31 879.67 165.11 878.1 164.97C875.5 164.75 871.92 164.72 868.58 164.71C850.3 164.7 832.23 165.14 814.35 165.04Z" fill="#F4F4F4"/>
<path d="M832.36 178.53C832.08 178.53 831.78 178.53 831.57 178.53C831.478 178.537 831.387 178.558 831.3 178.59L829.88 179.1C831.02 179.1 832.22 179.1 833.39 179.1L839.96 179.05C840.63 179.05 841.33 179.05 841.89 179L842.89 178.9C844.13 178.79 845.95 178.81 847.57 178.82C848.956 178.866 850.344 178.799 851.72 178.62H848.24C847.86 178.62 847.47 178.62 847.14 178.62C846.81 178.62 846.52 178.55 846.14 178.53C845.58 178.53 844.8 178.48 844.08 178.47C840.14 178.45 836.23 178.53 832.36 178.53Z" fill="#F4F4F4"/>
<path d="M785.82 197.97C785.54 197.97 785.24 197.97 785.03 197.97C784.938 197.978 784.847 197.998 784.76 198.03L783.34 198.54C784.48 198.54 785.68 198.54 786.85 198.54L793.42 198.49C794.09 198.49 794.79 198.49 795.35 198.44L796.35 198.34C797.59 198.23 799.41 198.25 801.03 198.26C802.416 198.307 803.804 198.24 805.18 198.06H801.7C801.32 198.06 800.93 198.06 800.6 198.06C800.27 198.06 799.98 197.99 799.6 197.97C799.04 197.97 798.26 197.92 797.54 197.91C793.61 197.9 789.69 197.99 785.82 197.97Z" fill="#F4F4F4"/>
<path d="M759.68 269.4H754.5C754.5 269.4 752.87 212.28 759.72 194.65H761.03C761.03 194.65 756.42 259.29 759.68 269.4Z" fill="#0A1E3B"/>
<path d="M756.09 191.72C756.09 191.72 751.85 203.47 753.81 208.72C753.81 208.72 756.75 197.95 760.18 196.32C763.61 194.69 767.18 208.72 767.18 208.72C767.18 208.72 769.18 199.91 765.55 192.72C770.142 195.438 773.875 199.396 776.32 204.14C776.32 204.14 776.97 199.24 768.49 189.14C768.49 189.14 776 191.14 780.89 195.67C780.89 195.67 782.52 192.08 772.4 186.2C772.4 186.2 773.71 181.96 781.54 183.92C781.54 183.92 781.54 178.37 769.14 179.35C769.14 179.35 769.14 175.76 777.3 176.41C777.3 176.41 777.3 171.84 767.83 173.47C767.83 173.47 769.83 170.53 771.09 169.88C769.456 169.73 767.826 170.197 766.52 171.19C766.52 171.19 766.85 165.31 761.95 163.03L761.3 171.19C761.3 171.19 755.81 164.72 757.06 165.97C757.848 167.937 758.189 170.055 758.06 172.17C758.06 172.17 752.51 167.6 745.66 172.5C745.66 172.5 754.15 173.15 755.45 176.09C755.45 176.09 748.27 174.78 746.64 175.76C746.64 175.76 752.19 177.76 751.86 179.02C751.86 179.02 742.07 179.02 740.76 182.61C740.76 182.61 750.88 183.92 751.53 184.89C751.53 184.89 739.78 193.38 739.13 195.66C739.13 195.66 751.21 188.48 753.13 188.48C755.05 188.48 744.32 198.93 744.97 201.54C745 201.53 753.81 191.06 756.09 191.72Z" fill="#0A1E3B"/>
<path d="M824.11 267.27H828.11C828.11 267.27 829.36 223.63 824.11 210.16H823.11C823.11 210.16 826.6 259.53 824.11 267.27Z" fill="#0A1E3B"/>
<path d="M826.85 207.91C826.85 207.91 830.09 216.91 828.6 220.91C828.6 220.91 826.36 212.68 823.74 211.43C821.12 210.18 818.38 220.91 818.38 220.91C818.38 220.91 816.88 214.18 819.63 208.69C816.12 210.768 813.267 213.794 811.4 217.42C811.4 217.42 810.9 213.68 817.4 205.95C817.4 205.95 811.66 207.45 807.92 210.95C807.92 210.95 806.67 208.21 814.4 203.72C814.4 203.72 813.4 200.48 807.4 201.97C807.4 201.97 807.4 197.73 816.88 198.48C816.88 198.48 816.88 195.74 810.65 196.24C810.65 196.24 810.65 192.75 817.88 194C817.211 192.953 816.369 192.026 815.39 191.26C816.637 191.144 817.883 191.501 818.88 192.26C818.88 192.26 818.63 187.77 822.37 186.03L822.87 192.26C822.87 192.26 827.06 187.32 826.11 188.26C825.512 189.765 825.256 191.384 825.36 193C825.36 193 829.6 189.51 834.84 193.25C834.84 193.25 828.36 193.75 827.36 195.99C827.36 195.99 832.85 194.99 834.09 195.74C834.09 195.74 829.85 197.24 830.09 198.23C830.09 198.23 837.57 198.23 838.57 200.97C838.57 200.97 830.84 201.97 830.34 202.72C830.34 202.72 839.34 209.2 839.82 210.95C839.82 210.95 830.59 205.46 829.1 205.46C827.61 205.46 835.83 213.46 835.33 215.46C835.33 215.39 828.6 207.41 826.85 207.91Z" fill="#0A1E3B"/>
<path d="M871.85 258.74H874.32C874.32 258.74 875.09 231.74 871.85 223.37H871.23C871.23 223.37 873.39 253.95 871.85 258.74Z" fill="#0A1E3B"/>
<path d="M873.5 221.98C873.5 221.98 875.5 227.54 874.58 229.98C874.58 229.98 873.19 224.88 871.58 224.11C869.97 223.34 868.26 229.98 868.26 229.98C867.75 227.437 868.018 224.799 869.03 222.41C866.855 223.698 865.087 225.573 863.93 227.82C863.93 227.82 863.62 225.5 867.64 220.72C865.485 221.319 863.484 222.373 861.77 223.81C861.77 223.81 861 222.11 865.77 219.33C865.77 219.33 865.15 217.33 861.45 218.25C861.45 218.25 861.45 215.62 867.32 216.09C867.32 216.09 867.32 214.39 863.46 214.7C863.46 214.7 863.46 212.54 867.94 213.31C867.527 212.66 867.006 212.085 866.4 211.61C867.172 211.54 867.943 211.761 868.56 212.23C868.523 211.449 868.706 210.673 869.088 209.991C869.47 209.309 870.035 208.747 870.72 208.37L871.03 212.23C871.03 212.23 873.63 209.17 873.03 209.76C872.662 210.691 872.505 211.691 872.57 212.69C873.428 212.063 874.469 211.738 875.531 211.765C876.593 211.793 877.616 212.17 878.44 212.84C878.44 212.84 874.44 213.15 873.81 214.54C873.81 214.54 877.21 213.92 877.98 214.39C877.98 214.39 875.35 215.32 875.51 215.93C875.51 215.93 880.14 215.93 880.76 217.63C880.76 217.63 875.97 218.25 875.66 218.71C875.66 218.71 881.22 222.71 881.53 223.81C881.53 223.81 875.82 220.41 874.89 220.41C873.96 220.41 879.06 225.35 878.75 226.59C878.8 226.61 874.63 221.67 873.5 221.98Z" fill="#0A1E3B"/>
<path d="M781.5 228.18L780.98 225.4C780.979 225.196 780.937 224.994 780.857 224.807C780.776 224.62 780.658 224.451 780.51 224.31L778.1 223.13C777.92 222.914 777.775 222.671 777.67 222.41V222.35C777.804 222.183 777.9 221.988 777.95 221.78C777.954 221.727 777.954 221.673 777.95 221.62C778.177 221.652 778.408 221.595 778.595 221.461C778.781 221.327 778.908 221.126 778.95 220.9V220.84C778.904 221.023 778.8 221.187 778.654 221.307C778.509 221.428 778.329 221.499 778.14 221.51C778.469 221.289 778.741 220.992 778.93 220.644C779.12 220.296 779.223 219.907 779.23 219.51C779.23 219.51 779.23 219.44 779.23 219.41C779.337 219.345 779.428 219.257 779.499 219.154C779.57 219.05 779.618 218.933 779.64 218.81V218.75C779.61 218.868 779.557 218.978 779.483 219.075C779.409 219.171 779.316 219.251 779.21 219.31C779.192 219.081 779.141 218.855 779.06 218.64H779.12C779.356 218.64 779.582 218.546 779.749 218.379C779.916 218.213 780.01 217.986 780.01 217.75C780.01 217.75 780.01 217.75 780.01 217.69C779.995 217.916 779.894 218.127 779.729 218.281C779.564 218.435 779.346 218.521 779.12 218.52H779.01C779.272 218.436 779.505 218.28 779.682 218.069C779.858 217.859 779.972 217.602 780.01 217.33C780.01 217.33 780.01 217.33 780.01 217.27C779.998 217.444 779.936 217.611 779.83 217.75C779.847 217.634 779.841 217.515 779.812 217.402C779.784 217.288 779.733 217.18 779.663 217.086C779.593 216.992 779.505 216.912 779.404 216.852C779.303 216.792 779.191 216.752 779.075 216.735C778.959 216.718 778.84 216.724 778.726 216.753C778.613 216.781 778.505 216.832 778.411 216.902C778.317 216.972 778.237 217.06 778.177 217.161C778.117 217.262 778.077 217.374 778.06 217.49L777.9 217.4C777.95 217.221 778.055 217.061 778.2 216.945C778.346 216.828 778.524 216.76 778.71 216.75H778.65C778.462 216.746 778.277 216.802 778.122 216.91C777.968 217.018 777.851 217.172 777.79 217.35C777.253 217.1 776.643 217.053 776.074 217.216C775.504 217.38 775.013 217.743 774.69 218.24C774.5 218.38 774.26 218.58 774.27 218.75C774.192 218.83 774.121 218.917 774.06 219.01C773.796 219.589 773.699 220.229 773.78 220.86C773.815 221.174 773.775 221.491 773.664 221.787C773.553 222.082 773.373 222.347 773.14 222.56C773.244 222.604 773.357 222.627 773.47 222.627C773.583 222.627 773.696 222.604 773.8 222.56C774.008 222.473 774.203 222.359 774.38 222.22C774.544 222.122 774.684 221.989 774.79 221.83C774.906 221.906 775.03 221.97 775.16 222.02C775.21 222.44 775.22 222.92 775.04 223.07V222.99C774.591 223.331 774.031 223.491 773.47 223.44C773.138 223.459 772.816 223.56 772.533 223.735C772.251 223.91 772.016 224.152 771.85 224.44L771.1 227.65V227.7V227.75C771.11 227.794 771.132 227.834 771.164 227.866C771.196 227.898 771.236 227.92 771.28 227.93L771.51 227.99C771.588 228.501 771.584 229.02 771.5 229.53C771.342 230.307 771.251 231.097 771.23 231.89C771.29 232.29 771.39 234.35 771.43 235.33C771.347 235.66 771.28 235.994 771.23 236.33L770.11 243.04C770.11 243.04 769.28 248.41 769.32 250.04L769.17 250.98C769.17 250.98 766.9 253.83 767.57 254.23C768.24 254.63 769.26 254.81 770.24 253.29C770.371 252.933 770.583 252.611 770.86 252.35C770.97 252.254 771.055 252.133 771.109 251.997C771.163 251.862 771.184 251.715 771.17 251.57L771.1 250.91H771.22H771.29C771.907 248.886 772.243 246.786 772.29 244.67C772.29 244.67 774.36 237.29 775.94 236.13L776.09 236.06L776.43 243.2L776.09 251.08L776.02 251.55C776.02 251.55 773.75 254.4 774.42 254.8C775.09 255.2 776.11 255.38 777.09 253.86C777.221 253.503 777.433 253.181 777.71 252.92C777.82 252.824 777.905 252.703 777.959 252.568C778.013 252.432 778.034 252.285 778.02 252.14L777.92 251.14C778.31 249.82 779.32 245.99 778.92 243.78L779.61 239.07C780.31 238.29 780.21 236.3 780.21 236.3C780.76 235.16 780.88 230.66 780.88 230.66L781.02 228.44H781.33H781.44L781.49 228.38V228.33L781.5 228.18ZM779.56 232.69C779.5 232.54 779.43 232.38 779.35 232.23H779.29V232.17V232.12V232.06C779.321 231.985 779.348 231.908 779.37 231.83C779.459 231.686 779.504 231.519 779.5 231.35C779.6 231.789 779.633 232.241 779.6 232.69H779.56ZM779.35 230.79L779.21 229.3V229.18L779.4 231.07L779.35 230.79ZM772.76 230.99C772.713 231.045 772.679 231.109 772.658 231.178C772.637 231.246 772.631 231.319 772.64 231.39C772.64 231.542 772.66 231.693 772.7 231.84L772.48 232.77V230.99C772.621 230.802 772.745 230.601 772.85 230.39C772.898 230.589 772.885 230.799 772.81 230.99H772.76Z" fill="url(#paint1_linear)"/>
<path d="M774.21 219.53C773.956 220.087 773.862 220.703 773.94 221.31C773.977 221.613 773.939 221.921 773.831 222.206C773.724 222.492 773.548 222.747 773.32 222.95C773.42 222.992 773.527 223.013 773.635 223.013C773.743 223.013 773.85 222.992 773.95 222.95C774.15 222.866 774.339 222.755 774.51 222.62C774.666 222.524 774.8 222.394 774.9 222.24C774.996 221.999 775.027 221.737 774.99 221.48C774.992 221.028 775.032 220.576 775.11 220.13C775.11 219.85 775.42 219.13 775.11 218.95C774.8 218.77 774.35 219.31 774.21 219.53Z" fill="#72351C"/>
<path d="M769.62 249.04L769.41 250.41C769.41 250.41 767.22 253.16 767.87 253.54C768.52 253.92 769.5 254.1 770.44 252.64C770.568 252.298 770.773 251.99 771.04 251.74C771.146 251.648 771.228 251.531 771.28 251.401C771.332 251.271 771.353 251.13 771.34 250.99L771.13 248.87L769.62 249.04Z" fill="#333333"/>
<path d="M776.21 249.59L776 250.96C776 250.96 773.81 253.71 774.46 254.09C775.11 254.47 776.09 254.65 777.03 253.19C777.158 252.848 777.363 252.54 777.63 252.29C777.736 252.198 777.818 252.081 777.87 251.951C777.922 251.821 777.943 251.68 777.93 251.54L777.72 249.42L776.21 249.59Z" fill="#333333"/>
<path d="M772.8 232.98C772.8 232.98 771.8 233.72 771.39 236.31L770.31 242.77C769.919 245.086 769.672 247.424 769.57 249.77L771.39 250.39C771.995 248.445 772.332 246.426 772.39 244.39C772.39 244.39 774.58 236.6 776.11 236.05L776.43 242.93L776.09 250.69L777.65 251C777.65 251 779.23 246.07 778.73 243.46L779.54 237.91C780.064 236.081 779.936 234.126 779.18 232.38L772.8 232.98Z" fill="#4D8AF0"/>
<g opacity="0.1">
<path opacity="0.1" d="M775.93 236.15V236.03C774.4 236.58 772.21 244.37 772.21 244.37C772.172 246.384 771.855 248.383 771.27 250.31L771.47 250.38C772.075 248.435 772.412 246.416 772.47 244.38C772.47 244.38 774.41 237.27 775.93 236.15Z" fill="black"/>
<path opacity="0.1" d="M779.21 232.36H779C779.748 234.102 779.871 236.048 779.35 237.87L778.54 243.42C779.02 245.89 777.62 250.42 777.48 250.92H777.68C777.68 250.92 779.26 245.99 778.76 243.38L779.57 237.83C780.079 236.019 779.952 234.089 779.21 232.36Z" fill="black"/>
</g>
<path d="M771.4 227.92C771.399 227.973 771.416 228.025 771.449 228.067C771.482 228.109 771.528 228.139 771.58 228.15C772.082 228.269 772.553 228.494 772.96 228.81C773.73 229.41 772.15 227.61 772.15 227.61L771.62 227.73L771.4 227.92Z" fill="#F55F44"/>
<path opacity="0.1" d="M771.4 227.92C771.399 227.973 771.416 228.025 771.449 228.067C771.482 228.109 771.528 228.139 771.58 228.15C772.082 228.269 772.553 228.494 772.96 228.81C773.73 229.41 772.15 227.61 772.15 227.61L771.62 227.73L771.4 227.92Z" fill="black"/>
<path d="M778.92 229.53C779.562 229.07 780.307 228.775 781.09 228.67C781.143 228.67 781.194 228.649 781.231 228.611C781.269 228.574 781.29 228.523 781.29 228.47C781.066 228.368 780.824 228.315 780.578 228.314C780.333 228.313 780.09 228.364 779.866 228.465C779.641 228.565 779.441 228.712 779.278 228.896C779.115 229.079 778.993 229.296 778.92 229.53Z" fill="#F55F44"/>
<path opacity="0.1" d="M781.29 228.44C781.066 228.338 780.824 228.285 780.578 228.284C780.333 228.283 780.09 228.334 779.866 228.435C779.641 228.535 779.441 228.682 779.278 228.866C779.115 229.049 778.993 229.265 778.92 229.5C778.92 229.5 780.26 228.5 781.19 228.64" fill="black"/>
<path d="M776.81 222.44C778.119 222.44 779.18 221.379 779.18 220.07C779.18 218.761 778.119 217.7 776.81 217.7C775.501 217.7 774.44 218.761 774.44 220.07C774.44 221.379 775.501 222.44 776.81 222.44Z" fill="#72351C"/>
<path d="M775.17 221.73C775.17 221.73 775.51 223.12 775.17 223.41C774.83 223.7 774.17 224.22 774.67 224.63C775.17 225.04 776.99 225.73 777.59 225.4C778.19 225.07 778.88 225.16 778.72 224.47C778.56 223.78 777.24 223.92 777.21 220.47L775.17 221.73Z" fill="#FDB797"/>
<path opacity="0.1" d="M771.82 227.53C771.871 228.283 771.824 229.039 771.68 229.78C771.528 230.528 771.441 231.287 771.42 232.05C771.49 232.55 771.64 235.86 771.64 235.86C771.64 235.86 771.38 238.76 772.79 238.49C774.2 238.22 772.57 235.19 772.57 235.19L772.64 231.19C773.031 230.673 773.28 230.063 773.36 229.42C773.42 228.53 771.82 227.53 771.82 227.53Z" fill="black"/>
<path d="M771.79 227.53C771.842 228.283 771.795 229.039 771.65 229.78C771.498 230.528 771.411 231.287 771.39 232.05C771.46 232.55 771.61 235.86 771.61 235.86C771.61 235.86 771.35 238.76 772.76 238.49C774.17 238.22 772.54 235.19 772.54 235.19L772.61 231.19C773.001 230.673 773.25 230.063 773.33 229.42C773.4 228.53 771.79 227.53 771.79 227.53Z" fill="#FDB797"/>
<path opacity="0.1" d="M780.82 227.72L780.63 230.81C780.63 230.81 780.51 235.14 779.98 236.24C779.98 236.24 780.12 239.24 778.71 239.24C777.3 239.24 778.95 235.91 778.95 235.91C778.95 235.91 779.71 232.53 779.32 231.45L778.95 227.74L780.82 227.72Z" fill="black"/>
<path d="M780.84 227.72L780.65 230.81C780.65 230.81 780.53 235.14 780 236.24C780 236.24 780.14 239.24 778.73 239.24C777.32 239.24 778.97 235.91 778.97 235.91C778.97 235.91 779.73 232.53 779.34 231.45L778.97 227.74L780.84 227.72Z" fill="#FDB797"/>
<path opacity="0.1" d="M776.25 224.72C776.25 224.72 777.39 225.25 778.02 223.72L780.35 224.86C780.492 224.995 780.605 225.158 780.683 225.339C780.76 225.519 780.8 225.714 780.8 225.91L781.3 228.59C781.088 228.507 780.862 228.467 780.634 228.472C780.406 228.477 780.182 228.528 779.975 228.621C779.767 228.714 779.58 228.848 779.424 229.014C779.269 229.181 779.149 229.376 779.07 229.59L779.21 231.1C779.323 231.473 779.298 231.874 779.14 232.23C779.126 232.262 779.119 232.296 779.119 232.33C779.119 232.364 779.126 232.398 779.14 232.43C779.181 232.54 779.196 232.659 779.182 232.776C779.169 232.892 779.127 233.004 779.062 233.102C778.996 233.2 778.909 233.281 778.806 233.338C778.703 233.395 778.587 233.426 778.47 233.43C777.844 233.435 777.219 233.482 776.6 233.57C776.1 233.71 774.6 233.28 774.09 233.57C773.58 233.86 772.53 233.35 772.53 233.35L772.82 232.13C772.82 232.13 772.63 231.53 772.82 231.32C773.002 230.454 772.961 229.556 772.7 228.71C772.7 228.71 771.84 227.9 771.34 228.04L772.06 224.95C772.211 224.663 772.435 224.42 772.708 224.244C772.981 224.069 773.296 223.968 773.62 223.95C774.159 223.999 774.697 223.846 775.13 223.52C775.13 223.52 774.57 224.53 776.25 224.72Z" fill="black"/>
<path opacity="0.1" d="M776.37 224.67C776.68 224.75 777.52 224.85 778.02 223.59L780.35 224.73C780.492 224.866 780.605 225.028 780.683 225.209C780.76 225.389 780.8 225.584 780.8 225.78L781.3 228.46C781.088 228.377 780.862 228.337 780.634 228.342C780.407 228.347 780.182 228.398 779.975 228.491C779.767 228.584 779.58 228.718 779.425 228.884C779.269 229.051 779.149 229.247 779.07 229.46L779.21 230.97L779.3 231.27C779.341 231.397 779.352 231.532 779.331 231.665C779.31 231.797 779.258 231.922 779.18 232.03C779.154 232.072 779.141 232.121 779.141 232.17C779.141 232.22 779.154 232.268 779.18 232.31C779.221 232.42 779.236 232.539 779.222 232.656C779.209 232.773 779.167 232.885 779.102 232.982C779.036 233.08 778.949 233.161 778.846 233.218C778.743 233.275 778.628 233.307 778.51 233.31C777.884 233.315 777.259 233.362 776.64 233.45C776.14 233.59 774.64 233.16 774.13 233.45C773.62 233.74 772.57 233.23 772.57 233.23L772.86 232.01C772.86 232.01 772.67 231.41 772.86 231.2C773.042 230.334 773.001 229.436 772.74 228.59C772.74 228.59 771.88 227.78 771.38 227.92L772.1 224.83C772.251 224.543 772.475 224.3 772.748 224.125C773.021 223.949 773.336 223.848 773.66 223.83C774.199 223.879 774.737 223.726 775.17 223.4C775.17 223.4 774.61 224.4 776.09 224.65L776.37 224.67Z" fill="black"/>
<path d="M776.37 224.72C776.68 224.8 777.52 224.9 778.02 223.64L780.35 224.78C780.492 224.916 780.605 225.079 780.683 225.259C780.76 225.439 780.8 225.634 780.8 225.83L781.3 228.51C781.088 228.427 780.862 228.387 780.634 228.392C780.406 228.397 780.182 228.448 779.975 228.541C779.767 228.634 779.58 228.768 779.424 228.935C779.269 229.101 779.149 229.297 779.07 229.51L779.21 231.02C779.323 231.393 779.298 231.794 779.14 232.15C779.126 232.182 779.119 232.216 779.119 232.25C779.119 232.285 779.126 232.319 779.14 232.35C779.181 232.46 779.196 232.579 779.182 232.696C779.169 232.813 779.127 232.925 779.062 233.022C778.996 233.12 778.909 233.201 778.806 233.258C778.703 233.315 778.587 233.347 778.47 233.35C777.844 233.355 777.219 233.402 776.6 233.49C776.1 233.63 774.6 233.2 774.09 233.49C773.58 233.78 772.53 233.27 772.53 233.27L772.82 232.05C772.82 232.05 772.63 231.45 772.82 231.24C773.002 230.374 772.961 229.476 772.7 228.63C772.7 228.63 771.84 227.82 771.34 227.96L772.06 224.87C772.211 224.583 772.435 224.34 772.708 224.165C772.981 223.989 773.296 223.888 773.62 223.87C774.159 223.919 774.697 223.766 775.13 223.44C775.13 223.44 774.57 224.44 776.05 224.69L776.37 224.72Z" fill="#F55F44"/>
<path opacity="0.1" d="M777.25 220.58L775.25 221.85C775.301 222.068 775.341 222.288 775.37 222.51C775.602 222.602 775.85 222.649 776.1 222.65C776.598 222.618 777.068 222.404 777.42 222.05C777.318 221.566 777.261 221.074 777.25 220.58Z" fill="black"/>
<path d="M776.02 222.53C777.103 222.53 777.98 221.653 777.98 220.57C777.98 219.488 777.103 218.61 776.02 218.61C774.938 218.61 774.06 219.488 774.06 220.57C774.06 221.653 774.938 222.53 776.02 222.53Z" fill="#FDB797"/>
<path d="M778.92 219.06C779.395 219.06 779.78 218.675 779.78 218.2C779.78 217.725 779.395 217.34 778.92 217.34C778.445 217.34 778.06 217.725 778.06 218.2C778.06 218.675 778.445 219.06 778.92 219.06Z" fill="#72351C"/>
<path d="M779.08 219.11C778.862 219.111 778.652 219.028 778.492 218.88C778.332 218.731 778.235 218.528 778.22 218.31C778.22 218.31 778.22 218.31 778.22 218.37C778.22 218.598 778.31 218.817 778.472 218.978C778.633 219.139 778.852 219.23 779.08 219.23C779.308 219.23 779.527 219.139 779.688 218.978C779.849 218.817 779.94 218.598 779.94 218.37C779.94 218.37 779.94 218.37 779.94 218.31C779.925 218.528 779.827 218.731 779.668 218.88C779.508 219.028 779.298 219.111 779.08 219.11Z" fill="#72351C"/>
<path d="M778.59 219.97C778.376 219.931 778.185 219.812 778.055 219.638C777.925 219.463 777.866 219.246 777.89 219.03V219.09C777.849 219.315 777.899 219.548 778.029 219.736C778.16 219.925 778.36 220.054 778.585 220.095C778.81 220.136 779.043 220.086 779.231 219.956C779.42 219.825 779.549 219.625 779.59 219.4V219.34C779.535 219.553 779.401 219.737 779.215 219.854C779.029 219.971 778.806 220.013 778.59 219.97Z" fill="#72351C"/>
<path d="M777.92 222.03C777.706 221.991 777.515 221.872 777.385 221.698C777.255 221.523 777.196 221.306 777.22 221.09V221.15C777.179 221.376 777.229 221.608 777.359 221.797C777.49 221.985 777.69 222.114 777.915 222.155C778.141 222.196 778.373 222.146 778.562 222.016C778.75 221.885 778.879 221.686 778.92 221.46V221.4C778.865 221.613 778.731 221.797 778.545 221.914C778.359 222.031 778.136 222.073 777.92 222.03Z" fill="#72351C"/>
<path d="M779.08 218.66C778.862 218.661 778.652 218.578 778.492 218.43C778.332 218.281 778.235 218.078 778.22 217.86C778.22 217.86 778.22 217.86 778.22 217.92C778.22 218.148 778.31 218.367 778.472 218.528C778.633 218.69 778.852 218.78 779.08 218.78C779.308 218.78 779.527 218.69 779.688 218.528C779.849 218.367 779.94 218.148 779.94 217.92C779.94 217.92 779.94 217.92 779.94 217.86C779.925 218.078 779.827 218.281 779.668 218.43C779.508 218.578 779.298 218.661 779.08 218.66Z" fill="#72351C"/>
<path d="M777.88 218.19C777.882 217.972 777.967 217.763 778.117 217.605C778.268 217.448 778.472 217.353 778.69 217.34H778.63C778.402 217.34 778.183 217.431 778.022 217.592C777.861 217.753 777.77 217.972 777.77 218.2C777.77 218.428 777.861 218.647 778.022 218.808C778.183 218.969 778.402 219.06 778.63 219.06H778.69C778.469 219.047 778.261 218.95 778.11 218.788C777.96 218.626 777.877 218.411 777.88 218.19Z" fill="#72351C"/>
<path opacity="0.1" d="M778.75 226.32C778.841 226.745 778.841 227.185 778.75 227.61C778.75 227.61 778.63 228.74 778.82 228.93" fill="black"/>
<path opacity="0.1" d="M772.93 226.53C773.02 226.955 773.02 227.395 772.93 227.82C772.93 227.82 772.81 228.95 773 229.14" fill="black"/>
<path opacity="0.1" d="M772.88 231.2C773.064 231.265 773.265 231.265 773.45 231.2C773.675 231.133 773.915 231.133 774.14 231.2" fill="black"/>
<path opacity="0.1" d="M773.17 229.53C773.851 229.564 774.531 229.459 775.17 229.22C775.17 229.22 777.61 229.82 778.31 229.39" fill="black"/>
<path d="M772.49 239.82H771.82C771.588 239.82 771.4 240.008 771.4 240.24V240.33C771.4 240.562 771.588 240.75 771.82 240.75H772.49C772.722 240.75 772.91 240.562 772.91 240.33V240.24C772.91 240.008 772.722 239.82 772.49 239.82Z" fill="#FDB797"/>
<path d="M771.4 240.06H772.21L772.91 240.17H772.66L771.4 240.06Z" fill="#F0E4E4"/>
<path d="M776.83 236.18H777.64L778.34 236.25H778.09L776.83 236.18Z" fill="#F0E4E4"/>
<path d="M776.83 236.35H777.64L778.34 236.42H778.09L776.83 236.35Z" fill="#F0E4E4"/>
<path d="M776.83 236.53H777.64L778.34 236.6H778.09L776.83 236.53Z" fill="#F0E4E4"/>
<path d="M776.83 236.68H777.64L778.34 236.75H778.09L776.83 236.68Z" fill="#F0E4E4"/>
<path d="M771.4 240.72H772.21L772.91 240.8H772.66L771.4 240.72Z" fill="#F0E4E4"/>
<path d="M771.4 240.64H772.21L772.91 240.72H772.66L771.4 240.64Z" fill="#F0E4E4"/>
<path d="M771.4 240.53H772.21L772.91 240.61H772.66L771.4 240.53Z" fill="#F0E4E4"/>
<path d="M771.4 240.47H772.21L772.91 240.55H772.66L771.4 240.47Z" fill="#F0E4E4"/>
<path d="M771.4 239.95H772.21L772.91 240.06H772.66L771.4 239.95Z" fill="#F0E4E4"/>
<path d="M771.4 239.81H772.21L772.91 239.92H772.66L771.4 239.81Z" fill="#F0E4E4"/>
<path opacity="0.1" d="M776.35 219.31C776.271 220.041 776.364 220.781 776.62 221.47C776.743 221.803 776.795 222.158 776.775 222.513C776.754 222.867 776.661 223.214 776.5 223.53C776.606 223.556 776.717 223.556 776.823 223.53C776.929 223.504 777.028 223.452 777.11 223.38C777.281 223.229 777.429 223.054 777.55 222.86C777.678 222.702 777.771 222.518 777.82 222.32C777.839 222.01 777.792 221.7 777.68 221.41C777.546 220.878 777.449 220.336 777.39 219.79C777.39 219.46 777.39 218.5 777.02 218.41C776.65 218.32 776.42 219.03 776.35 219.31Z" fill="black"/>
<path d="M776.4 219.29C776.322 220.021 776.414 220.761 776.67 221.45C776.797 221.785 776.853 222.144 776.834 222.502C776.815 222.86 776.722 223.21 776.56 223.53C776.666 223.556 776.777 223.556 776.883 223.53C776.99 223.504 777.088 223.452 777.17 223.38C777.341 223.229 777.489 223.054 777.61 222.86C777.739 222.702 777.831 222.518 777.88 222.32C777.9 222.01 777.852 221.7 777.74 221.41C777.606 220.878 777.509 220.336 777.45 219.79C777.45 219.46 777.45 218.5 777.08 218.41C776.71 218.32 776.5 219.01 776.4 219.29Z" fill="#72351C"/>
<path opacity="0.1" d="M775.56 219.8C775.72 219.97 775.76 220.23 775.9 220.43C776.027 220.566 776.182 220.672 776.355 220.74C776.529 220.807 776.715 220.835 776.9 220.82C776.997 220.815 777.094 220.836 777.18 220.88C777.33 220.98 777.34 221.2 777.44 221.35C777.492 221.408 777.555 221.454 777.626 221.485C777.696 221.517 777.773 221.533 777.85 221.533C777.928 221.533 778.004 221.517 778.075 221.485C778.145 221.454 778.209 221.408 778.26 221.35C778.428 221.11 778.512 220.822 778.5 220.53C778.531 220.197 778.531 219.863 778.5 219.53C778.491 219.134 778.334 218.756 778.06 218.47C777.832 218.302 777.569 218.189 777.29 218.14C776.909 218.005 776.498 217.974 776.1 218.05C775.908 218.114 775.727 218.205 775.56 218.32L774.86 218.79C774.6 218.97 774.12 219.33 774.59 219.53C774.93 219.6 775.31 219.53 775.56 219.8Z" fill="black"/>
<path d="M775.61 219.78C775.77 219.95 775.81 220.21 775.95 220.41C776.076 220.547 776.232 220.653 776.405 220.72C776.578 220.788 776.765 220.815 776.95 220.8C777.047 220.795 777.143 220.816 777.23 220.86C777.38 220.96 777.39 221.18 777.49 221.33C777.541 221.388 777.605 221.434 777.675 221.466C777.746 221.497 777.822 221.514 777.9 221.514C777.977 221.514 778.054 221.497 778.124 221.466C778.195 221.434 778.258 221.388 778.31 221.33C778.511 221.089 778.62 220.784 778.62 220.47C778.651 220.138 778.651 219.803 778.62 219.47C778.61 219.074 778.453 218.696 778.18 218.41C777.952 218.242 777.688 218.13 777.41 218.08C777.028 217.945 776.617 217.914 776.22 217.99C776.028 218.054 775.846 218.145 775.68 218.26L774.98 218.73C774.72 218.91 774.24 219.27 774.71 219.47C774.98 219.53 775.35 219.53 775.61 219.78Z" fill="#72351C"/>
<path d="M776.88 236.18H777.69L778.39 236.25H778.14L776.88 236.18Z" fill="#F0E4E4"/>
<path d="M776.88 236.35H777.69L778.39 236.42H778.14L776.88 236.35Z" fill="#F0E4E4"/>
<path d="M776.88 236.53H777.69L778.39 236.6H778.14L776.88 236.53Z" fill="#F0E4E4"/>
<path d="M776.88 236.68H777.69L778.39 236.75H778.14L776.88 236.68Z" fill="#F0E4E4"/>
<path d="M776.5 245.91H777.31L778.01 245.98H777.76L776.5 245.91Z" fill="#F0E4E4"/>
<path d="M776.5 246.07H777.31L778.01 246.14H777.76L776.5 246.07Z" fill="#F0E4E4"/>
<path d="M776.5 246.24H777.31L778.01 246.31H777.76L776.5 246.24Z" fill="#F0E4E4"/>
<path d="M776.5 246.41H777.31L778.01 246.48H777.76L776.5 246.41Z" fill="#F0E4E4"/>
<path d="M339 228C368.823 228 393 203.823 393 174C393 144.177 368.823 120 339 120C309.177 120 285 144.177 285 174C285 203.823 309.177 228 339 228Z" fill="#FBBEBE"/>
<path d="M298.969 201C298.969 201 309.071 277.132 293.53 285.678C277.988 294.223 386 295 386 295C386 295 361.911 228.967 372.79 208.769L298.969 201Z" fill="#FBBEBE"/>
<path d="M466 295.304L456.972 336.414L437.883 423.389L437.312 428.153L430.724 483.295L426.342 519.928L423.404 544.535C405.539 553.717 392.591 560.056 392.591 560.056C392.591 560.056 391.477 554.472 389.681 547.327C377.144 551.086 353.944 557.323 334.284 558.568C341.443 566.549 344.733 574.045 340.27 579.578C326.802 596.256 271.199 561.316 251.751 548.287C251.298 551.407 251.127 554.561 251.238 557.711L236.356 546.265L237.828 519.928L240.313 475.367L243.434 419.484C242.45 417.091 241.625 414.635 240.965 412.134C236.407 395.924 230.874 363.556 226.632 336.414C223.217 314.569 220.652 296.11 220.11 292.182C220.037 291.669 220 291.405 220 291.405L302.386 255C308.241 268.579 335.581 272.66 335.581 272.66C358.231 271.1 375.986 259.155 375.986 259.155L466 295.304Z" fill="#1F4386"/>
<path d="M398 544.443C398 544.443 394.539 545.654 388.911 547.371C376.469 551.184 353.448 557.508 333.939 558.771C317.142 559.871 302.949 557.225 300.353 546.026C299.24 541.21 300.818 537.249 304.257 533.994C314.525 524.266 341.341 520.781 362.61 519.585C368.616 519.25 374.172 519.094 378.796 519.035C386.649 518.931 391.798 519.094 391.798 519.094L391.921 519.585L398 544.443Z" fill="#A0616A"/>
<path d="M294.206 122.872L284.172 118.83C284.172 118.83 305.151 95.5861 334.34 97.6074L326.131 88.5118C326.131 88.5118 346.198 80.4271 364.441 101.65C374.03 112.806 385.126 125.92 392.043 140.692H402.788L398.304 150.63L414 160.567L397.889 158.782C398.849 164.224 398.997 169.78 398.326 175.265C397.635 180.753 394.853 185.755 390.566 189.217C390.566 189.217 378.123 163.297 378.123 159.254V169.36C378.123 169.36 368.089 160.265 368.089 154.201L362.616 161.275L359.88 150.159L326.131 161.275L331.603 152.18L310.624 155.212L318.834 144.095C318.834 144.095 295.118 157.233 294.206 168.35C293.294 179.466 286.352 190 286.352 190C286.352 190 267.753 138.031 294.206 122.872Z" fill="#2F2E41"/>
<path d="M524.075 484.173C518.598 490.128 505.026 499.099 488.572 508.81C482.451 512.419 475.936 516.138 469.289 519.834C453.427 528.658 436.82 537.401 423.116 544.465C405.287 553.655 392.366 560 392.366 560C392.366 560 391.254 554.411 389.463 547.259C387.064 537.687 383.452 525.314 379.686 519.834C379.554 519.644 379.422 519.468 379.291 519.292C378.194 517.847 377.09 517.003 376 517.003L430.421 483.168L453.939 468.542L436.995 427.973L415.745 377.084L428.571 336.148L441.464 295H465.625C465.625 295 473.625 312.516 483.855 336.941C485.384 340.593 486.963 344.4 488.572 348.332C509.618 399.675 535.856 471.373 524.075 484.173Z" fill="#1F4386"/>
<path d="M339.975 579.552C326.549 596.327 271.122 561.184 251.735 548.079C247.513 545.227 245 543.421 245 543.421L262.736 519.555L268.353 512C268.353 512 273.379 514.69 280.808 519.068C281.078 519.231 281.348 519.393 281.626 519.555C288.032 523.351 296.074 528.311 304.19 533.847C315.388 541.49 326.71 550.209 334.008 558.42C341.144 566.447 344.424 573.987 339.975 579.552Z" fill="#A0616A"/>
<path d="M281 519.665C279.005 519.658 277.013 519.82 275.046 520.15C258.145 523.05 253.161 538.326 251.742 548.56C251.288 551.685 251.116 554.844 251.228 558L236.298 546.533L230.858 542.356C217.765 537.798 206.099 529.701 195.984 520.15C187.209 511.718 179.337 502.396 172.497 492.335C165.684 482.419 159.61 472.015 154.325 461.209C152.85 458.194 152.058 454.891 152.003 451.536C151.948 448.181 152.633 444.854 154.009 441.792L172.497 400.646L199.52 340.509C199.718 339.078 199.936 337.678 200.174 336.31C205.533 305.625 219.89 292 219.89 292H230.858L238.194 336.31L247.31 391.36L240.922 412.164L226.16 460.211L240.267 475.51L281 519.665Z" fill="#1F4386"/>
<path d="M292.81 391.684L302.199 402.604C305.688 401.941 309.331 401.162 313.083 400.287L310.386 391.684L316.98 399.353C356.73 389.606 406 370.658 406 370.658C406 370.658 352.808 374.546 313.092 365.896C295.52 362.069 277.44 370.753 270.229 387.18C266.038 396.728 266.696 405 281.561 405C286.584 404.915 291.593 404.445 296.544 403.595L292.81 391.684Z" fill="#0A1E3B"/>
<path d="M506 570.504V575.016C506.002 576.255 505.776 577.483 505.333 578.637C505.136 579.151 504.898 579.648 504.622 580.123C503.748 581.61 502.509 582.842 501.025 583.697C499.541 584.552 497.863 585.001 496.156 585H168.844C167.137 585.001 165.459 584.552 163.975 583.697C162.491 582.842 161.252 581.61 160.378 580.123C160.102 579.648 159.864 579.151 159.667 578.637C159.224 577.483 158.998 576.255 159 575.016V570.504C159 569.193 159.254 567.894 159.749 566.683C160.243 565.471 160.968 564.371 161.882 563.443C162.797 562.516 163.882 561.781 165.076 561.279C166.271 560.778 167.551 560.52 168.844 560.52H187.711V558.416C187.711 558.362 187.721 558.307 187.742 558.257C187.763 558.206 187.793 558.16 187.831 558.122C187.869 558.083 187.914 558.052 187.964 558.031C188.014 558.011 188.067 558 188.121 558H197.965C198.019 558 198.073 558.011 198.122 558.031C198.172 558.052 198.218 558.083 198.256 558.122C198.294 558.16 198.324 558.206 198.345 558.257C198.365 558.307 198.376 558.362 198.376 558.416V560.52H204.525V558.416C204.525 558.362 204.536 558.307 204.556 558.257C204.577 558.206 204.607 558.16 204.645 558.122C204.684 558.083 204.729 558.052 204.779 558.031C204.828 558.011 204.882 558 204.936 558H214.78C214.834 558 214.887 558.011 214.937 558.031C214.987 558.052 215.032 558.083 215.07 558.122C215.108 558.16 215.139 558.206 215.159 558.257C215.18 558.307 215.19 558.362 215.19 558.416V560.52H221.347V558.416C221.347 558.362 221.358 558.307 221.378 558.257C221.399 558.206 221.429 558.16 221.467 558.122C221.505 558.083 221.551 558.052 221.601 558.031C221.65 558.011 221.704 558 221.758 558H231.602C231.656 558 231.709 558.011 231.759 558.031C231.809 558.052 231.854 558.083 231.892 558.122C231.93 558.16 231.96 558.206 231.981 558.257C232.002 558.307 232.012 558.362 232.012 558.416V560.52H238.162V558.416C238.162 558.362 238.172 558.307 238.193 558.257C238.213 558.206 238.244 558.16 238.282 558.122C238.32 558.083 238.365 558.052 238.415 558.031C238.465 558.011 238.518 558 238.572 558H248.416C248.47 558 248.524 558.011 248.573 558.031C248.623 558.052 248.668 558.083 248.707 558.122C248.745 558.16 248.775 558.206 248.796 558.257C248.816 558.307 248.827 558.362 248.827 558.416V560.52H254.976V558.416C254.976 558.362 254.987 558.307 255.007 558.257C255.028 558.206 255.058 558.16 255.096 558.122C255.135 558.083 255.18 558.052 255.23 558.031C255.279 558.011 255.333 558 255.387 558H265.231C265.285 558 265.338 558.011 265.388 558.031C265.438 558.052 265.483 558.083 265.521 558.122C265.559 558.16 265.59 558.206 265.61 558.257C265.631 558.307 265.641 558.362 265.641 558.416V560.52H271.798V558.416C271.798 558.362 271.809 558.307 271.829 558.257C271.85 558.206 271.88 558.16 271.918 558.122C271.956 558.083 272.002 558.052 272.052 558.031C272.101 558.011 272.155 558 272.209 558H282.053C282.107 558 282.16 558.011 282.21 558.031C282.26 558.052 282.305 558.083 282.343 558.122C282.381 558.16 282.411 558.206 282.432 558.257C282.453 558.307 282.463 558.362 282.463 558.416V560.52H288.613V558.416C288.613 558.362 288.623 558.307 288.644 558.257C288.664 558.206 288.695 558.16 288.733 558.122C288.771 558.083 288.816 558.052 288.866 558.031C288.916 558.011 288.969 558 289.023 558H366.133C366.187 558 366.24 558.011 366.29 558.031C366.34 558.052 366.385 558.083 366.423 558.122C366.461 558.16 366.492 558.206 366.512 558.257C366.533 558.307 366.543 558.362 366.543 558.416V560.52H372.7V558.416C372.7 558.362 372.711 558.307 372.731 558.257C372.752 558.206 372.782 558.16 372.82 558.122C372.858 558.083 372.904 558.052 372.954 558.031C373.003 558.011 373.057 558 373.111 558H382.955C383.063 558.001 383.167 558.045 383.244 558.123C383.321 558.201 383.364 558.306 383.365 558.416V560.52H389.515V558.416C389.515 558.362 389.525 558.307 389.546 558.257C389.566 558.206 389.597 558.16 389.635 558.122C389.673 558.083 389.718 558.052 389.768 558.031C389.818 558.011 389.871 558 389.925 558H399.769C399.823 558 399.877 558.011 399.926 558.031C399.976 558.052 400.022 558.083 400.06 558.122C400.098 558.16 400.128 558.206 400.149 558.257C400.169 558.307 400.18 558.362 400.18 558.416V560.52H406.329V558.416C406.329 558.362 406.34 558.307 406.361 558.257C406.381 558.206 406.411 558.16 406.449 558.122C406.488 558.083 406.533 558.052 406.583 558.031C406.633 558.011 406.686 558 406.74 558H416.584C416.638 558 416.691 558.011 416.741 558.031C416.791 558.052 416.836 558.083 416.874 558.122C416.912 558.16 416.943 558.206 416.963 558.257C416.984 558.307 416.994 558.362 416.994 558.416V560.52H423.151V558.416C423.151 558.362 423.162 558.307 423.182 558.257C423.203 558.206 423.233 558.16 423.271 558.122C423.309 558.083 423.355 558.052 423.405 558.031C423.454 558.011 423.508 558 423.562 558H433.406C433.513 558.001 433.616 558.046 433.692 558.124C433.767 558.202 433.809 558.307 433.809 558.416V560.52H439.966V558.416C439.966 558.362 439.976 558.307 439.997 558.257C440.018 558.206 440.048 558.16 440.086 558.122C440.124 558.083 440.169 558.052 440.219 558.031C440.269 558.011 440.322 558 440.376 558H450.22C450.274 558 450.328 558.011 450.377 558.031C450.427 558.052 450.473 558.083 450.511 558.122C450.549 558.16 450.579 558.206 450.6 558.257C450.62 558.307 450.631 558.362 450.631 558.416V560.52H456.78V558.416C456.78 558.362 456.791 558.307 456.811 558.257C456.832 558.206 456.862 558.16 456.9 558.122C456.939 558.083 456.984 558.052 457.034 558.031C457.084 558.011 457.137 558 457.191 558H467.035C467.089 558 467.142 558.011 467.192 558.031C467.242 558.052 467.287 558.083 467.325 558.122C467.363 558.16 467.394 558.206 467.414 558.257C467.435 558.307 467.445 558.362 467.445 558.416V560.52H496.156C497.449 560.52 498.729 560.778 499.924 561.279C501.118 561.781 502.203 562.516 503.118 563.443C504.032 564.371 504.757 565.471 505.251 566.683C505.746 567.894 506 569.193 506 570.504Z" fill="#3F3D56"/>
<path d="M479.756 383.514H357.882V381H302.62V383.514H180.244C178.057 383.514 175.961 384.383 174.415 385.93C172.869 387.477 172 389.575 172 391.763V558.751C172 560.939 172.869 563.037 174.415 564.584C175.961 566.131 178.057 567 180.244 567H479.756C481.943 567 484.039 566.131 485.585 564.584C487.131 563.037 488 560.939 488 558.751V391.763C488 390.679 487.787 389.607 487.372 388.606C486.958 387.605 486.351 386.696 485.585 385.93C484.82 385.164 483.911 384.556 482.911 384.141C481.911 383.727 480.839 383.514 479.756 383.514Z" fill="#3F3D56"/>
<path d="M330 460C339.941 460 348 451.717 348 441.5C348 431.283 339.941 423 330 423C320.059 423 312 431.283 312 441.5C312 451.717 320.059 460 330 460Z" stroke="#D0CDE1" stroke-width="2" stroke-miterlimit="10"/>
<path d="M324 467C333.941 467 342 458.717 342 448.5C342 438.283 333.941 430 324 430C314.059 430 306 438.283 306 448.5C306 458.717 314.059 467 324 467Z" fill="#D0CDE1"/>
<g opacity="0.7">
<path opacity="0.7" d="M748.7 564.619H122V619.409H158.48V630.109V791.819H713.52V630.109V619.409H748.7V564.619Z" fill="url(#paint2_linear)"/>
</g>
<path d="M707.85 596.529H164.12V791.819H707.85V596.529Z" fill="#E0E0E0"/>
<path opacity="0.1" d="M707.85 606.739H164.12V637.369H707.85V606.739Z" fill="black"/>
<path d="M742.32 574.829H128.38V627.159H742.32V574.829Z" fill="#E0E0E0"/>
<defs>
<linearGradient id="paint0_linear" x1="687.46" y1="367.96" x2="687.46" y2="23.99" gradientUnits="userSpaceOnUse">
<stop stop-color="#808080" stop-opacity="0.25"/>
<stop offset="0.54" stop-color="#808080" stop-opacity="0.12"/>
<stop offset="1" stop-color="#808080" stop-opacity="0.1"/>
</linearGradient>
<linearGradient id="paint1_linear" x1="13683.1" y1="11667" x2="13683.1" y2="10192.7" gradientUnits="userSpaceOnUse">
<stop stop-color="#808080" stop-opacity="0.25"/>
<stop offset="0.54" stop-color="#808080" stop-opacity="0.12"/>
<stop offset="1" stop-color="#808080" stop-opacity="0.1"/>
</linearGradient>
<linearGradient id="paint2_linear" x1="276641" y1="183649" x2="276641" y2="132032" gradientUnits="userSpaceOnUse">
<stop stop-color="#808080" stop-opacity="0.25"/>
<stop offset="0.54" stop-color="#808080" stop-opacity="0.12"/>
<stop offset="1" stop-color="#808080" stop-opacity="0.1"/>
</linearGradient>
</defs>
</svg>
